<?xml version="1.0" encoding="UTF-8" standalone="no"?><!DOCTYPE svg PUBLIC "-//W3C//DTD SVG 1.1//EN" "http://www.w3.org/Graphics/SVG/1.1/DTD/svg11.dtd"><svg width="100%" height="100%" viewBox="0 0 1841 1664" version="1.1" xmlns="http://www.w3.org/2000/svg" xmlns:xlink="http://www.w3.org/1999/xlink" xml:space="preserve" xmlns:serif="http://www.serif.com/" style="fill-rule:evenodd;clip-rule:evenodd;stroke-linejoin:bevel;stroke-miterlimit:1.5;"><g><g><g transform="matrix(4.16667,0,0,4.16667,-3139.22,-4080.67)"><text x="794.463px" y="990.067px" style="font-family:'Arial-BoldMT', 'Arial', sans-serif;font-weight:700;font-size:13.333px;">Uniform atmosphere to</text><text x="804.459px" y="1003.84px" style="font-family:'Arial-BoldMT', 'Arial', sans-serif;font-weight:700;font-size:13.333px;">heterogeneous land</text></g><g transform="matrix(4.16667,0,0,4.16667,-2255.57,-4080.67)"><text x="817.959px" y="990.067px" style="font-family:'Arial-BoldMT', 'Arial', sans-serif;font-weight:700;font-size:13.333px;">Uniform land to</text><text x="779.786px" y="1003.84px" style="font-family:'Arial-BoldMT', 'Arial', sans-serif;font-weight:700;font-size:13.333px;">heterogeneous atmosphere</text></g><text x="867.549px" y="523.918px" style="font-family:'Arial-BoldMT', 'Arial', sans-serif;font-weight:700;font-size:166.667px;">+</text><g><clipPath id="_clip1"><rect x="534.081" y="969.748" width="769.62" height="683.651"/></clipPath><g clip-path="url(#_clip1)"><g><clipPath id="_clip2"><rect x="538.045" y="969.748" width="765.656" height="683.651"/></clipPath><g clip-path="url(#_clip2)"><path id="path5186" d="M1203.64,1226.99c53.212,-8.882 111.175,1.101 130.989,5.504c19.813,4.403 111.158,35.409 34.123,28.619c-157.576,-13.889 -116.907,22.102 -19.814,23.116c25.842,0.269 90.901,38.757 7.706,41.828c-43.721,1.613 -229.573,-8 -169.515,-26.418c72.542,-22.246 -72.056,-25.312 31.922,-44.03c59.423,-10.697 -132.852,-9.015 -15.411,-28.619Z" style="fill:#fff;fill-opacity:0.227451;"/><rect id="rect5559" x="536.718" y="1419.65" width="166.667" height="233.333" style="fill:#533c29;"/><path id="path5563" d="M687.867,1418.98c7.271,32.24 8.058,98.815 8.058,108.993c0,10.178 -2.121,103.903 -2.121,113.233c0,9.33 -1.272,15.268 -1.272,15.268l-39.441,4.241c0,0 15.579,-88.697 13.995,-107.72c-0.99,-11.888 3.393,-44.955 3.393,-62.342c0,-17.388 6.237,-51.619 6.237,-54.164c0,-2.545 0.548,-14.964 2.669,-17.933c2.12,-2.968 8.482,0.424 8.482,0.424Z" style="fill:#255d23;"/><path id="path5565" d="M663.693,1420.26c2.545,-4.241 8.482,-2.545 8.482,-2.545c0,0 -0.848,6.786 -0.848,9.33c0,2.545 -14.843,61.494 -22.901,86.94c-8.058,25.446 -34.352,100.086 -39.017,109.84c-4.665,9.755 -15.267,34.776 -15.267,34.776c0,0 -38.169,8.482 -36.896,0.848c1.272,-7.633 27.99,-58.949 35.624,-73.792c7.633,-14.843 53.436,-117.05 53.436,-117.05c0,0 17.812,-41.562 17.812,-43.682c0,-2.121 -0.425,-4.665 -0.425,-4.665Z" style="fill:#255d23;"/><path id="path5567" d="M660.301,1419.83c0,-5.938 -8.058,-4.665 -8.058,-2.121c0,2.545 -25.022,37.321 -31.383,44.53c-6.362,7.21 -47.075,53.86 -47.075,53.86l-45.802,45.378l-1.272,37.745l56.404,-69.976l47.075,-63.19l30.111,-46.226Z" style="fill:#255d23;"/><path id="path5569" d="M646.306,1419.41c-13.147,14.419 -66.583,64.038 -66.583,64.038l-53.436,46.226l0.424,-25.869l33.927,-22.902l43.682,-31.383l32.655,-26.718l4.241,-5.937l5.09,2.545Z" style="fill:#255d23;"/><path id="path5571" d="M631.886,1419.41l-49.619,35.199l-57.677,39.017l2.969,-19.508l67.855,-37.745l29.687,-17.812l6.785,0.849Z" style="fill:#255d23;"/><path id="path5573" d="M613.226,1418.56l-86.091,48.347l2.544,-10.178l73.793,-38.593l9.754,0.424Z" style="fill:#255d23;"/><path id="path5577" d="M566.942,1419.35l-38.535,14.902l0.848,-6.362l33.022,-9.691l4.665,1.151Z" style="fill:#255d23;"/><path id="path5580" d="M690.902,1419.59c7.272,32.239 8.058,98.814 8.058,108.992c0,10.178 -2.12,103.903 -2.12,113.233c0,9.331 -1.273,15.268 -1.273,15.268l-39.441,4.241c0,0 15.58,-88.697 13.996,-107.72c-0.99,-11.888 3.392,-44.954 3.392,-62.342c0,-17.388 6.237,-51.619 6.237,-54.164c0,-2.545 0.549,-14.964 2.669,-17.933c2.121,-2.968 8.482,0.425 8.482,0.425Z" style="fill:#296727;"/><path id="path5582" d="M666.729,1420.86c2.544,-4.241 8.482,-2.545 8.482,-2.545c0,0 -0.848,6.786 -0.848,9.33c0,2.545 -14.844,61.494 -22.902,86.94c-8.057,25.446 -34.351,100.086 -39.016,109.841c-4.665,9.754 -15.268,34.775 -15.268,34.775c0,0 -38.168,8.482 -36.896,0.849c1.272,-7.634 27.99,-58.95 35.624,-73.793c7.634,-14.843 53.436,-117.05 53.436,-117.05c0,0 17.812,-41.562 17.812,-43.682c0,-2.121 -0.424,-4.665 -0.424,-4.665Z" style="fill:#296727;"/><path id="path5584" d="M663.189,1420.18c0,-5.937 -7.911,-4.407 -7.911,-1.863c0,2.545 -25.021,37.321 -31.383,44.53c-6.361,7.21 -47.074,53.86 -47.074,53.86l-45.803,45.379l-1.272,37.744l56.405,-69.976l47.074,-63.19l29.964,-46.484Z" style="fill:#296727;"/><path id="path5586" d="M649.341,1420.01c-13.147,14.419 -66.583,64.038 -66.583,64.038l-53.436,46.226l0.424,-25.869l33.928,-22.902l43.681,-31.383l32.656,-26.718l4.241,-5.937l5.089,2.545Z" style="fill:#296727;"/><path id="path5588" d="M634.922,1420.01l-49.619,35.2l-57.677,39.016l2.968,-19.508l67.855,-37.745l29.687,-17.812l6.786,0.849Z" style="fill:#296727;"/><path id="path5590" d="M616.261,1419.16l-86.091,48.347l2.545,-10.178l73.792,-38.593l9.754,0.424Z" style="fill:#296727;"/><path id="path5594" d="M569.977,1419.96l-38.535,14.901l0.849,-6.361l33.021,-9.692l4.665,1.152Z" style="fill:#296727;"/><rect id="rect4166" x="535.289" y="969.748" width="766.667" height="450" style="fill:#a6ceee;fill-opacity:0.988235;"/><rect id="rect4170" x="703.385" y="1419.65" width="250" height="233.333" style="fill:#85634a;"/><path id="path6843" d="M883.352,1561.19c0,-4.417 -0.196,-4.729 -3.931,-6.239c-3.36,-1.36 -4.873,-1.411 -10.421,-0.356c-5.069,0.964 -7.326,0.969 -10.307,0.023c-2.557,-0.812 -5.778,-0.944 -9.758,-0.398c-3.267,0.449 -6.412,0.837 -6.989,0.863c-2.471,0.114 -0.283,-3.92 7.204,-13.283c4.398,-5.499 7.996,-10.492 7.996,-11.096c0,-0.603 -0.702,-1.357 -1.561,-1.674c-2.128,-0.787 -0.751,-4.09 5.825,-13.968c5.393,-8.103 6.084,-9.898 3.808,-9.898c-0.75,0 -1.904,-0.521 -2.564,-1.157c-1.323,-1.274 0.255,-4.853 6.668,-15.126c4.054,-6.495 4.236,-7.557 1.751,-10.201c-1.703,-1.812 -1.669,-2.142 0.639,-6.333c1.339,-2.431 5.623,-9.451 9.52,-15.599l7.085,-11.18l7.384,11.88c4.061,6.534 8.216,13.574 9.232,15.644c1.782,3.631 1.777,3.838 -0.15,5.888c-1.972,2.099 -1.96,2.19 0.984,7.341c9.903,17.324 10.373,18.843 5.826,18.843c-1.119,0 -2.035,0.373 -2.035,0.829c0,0.456 2.831,5.08 6.29,10.275c6.631,9.958 7.303,11.802 4.657,12.78c-2.276,0.841 -1.543,2.168 7.393,13.395c8.217,10.323 9.734,13.86 5.508,12.846c-6.897,-1.655 -11.7,-1.858 -15.485,-0.655c-3.296,1.048 -5.269,1.053 -10.282,0.03c-7.558,-1.544 -13.735,-0.013 -13.908,3.448c-0.375,7.51 -0.072,7.094 -5.4,7.423l-4.979,0.308l0,-4.65l0,-0.003Z" style="fill:#365a2b;fill-rule:nonzero;"/><rect id="rect4176" x="953.385" y="1419.65" width="150" height="233.333" style="fill:#538146;"/><rect id="rect4178" x="1103.38" y="1419.65" width="200" height="233.333" style="fill:#b3b3b3;"/><path id="path4307" d="M664.484,1105.7c-8.964,-6.555 -6.088,-26.026 4.626,-31.314c4.583,-2.262 10.645,-6.951 13.471,-10.42c8.588,-10.541 19.818,-14.811 33.289,-12.657c9.526,1.523 13.013,0.771 14.509,-3.129c3,-7.816 24.843,-15.679 37.145,-13.371c5.869,1.101 13.359,4.972 16.645,8.603c3.286,3.631 8.658,6.602 11.938,6.602c3.28,0 10.139,3.59 15.241,7.979c13.221,11.373 13.221,32.669 0,44.041c-9.108,7.835 -10.471,7.98 -75.12,7.98c-48.612,0 -67.388,-1.129 -71.744,-4.314l0,0Z" style="fill:#eceded;fill-rule:nonzero;"/><path id="path4309" d="M1174.93,1160.58c-2.262,-4.227 -0.734,-9.535 2.744,-9.535c1.328,0 2.932,-2.058 3.563,-4.574c1.107,-4.411 7.721,-8.268 10.1,-5.889c0.637,0.637 2.053,-1.533 3.148,-4.822c4.59,-13.796 24.024,-18.616 34.518,-8.562c3.447,3.303 6.427,4.588 9.047,3.903c6.596,-1.725 17.329,3.956 18.801,9.952c0.714,2.911 3.316,7.188 5.782,9.503c3.508,3.295 4.078,4.968 2.62,7.693c-1.621,3.029 -5.222,3.644 -27.63,4.719c-14.171,0.679 -33.638,1.235 -43.26,1.235c-15.351,0 -17.731,-0.444 -19.433,-3.623l0,0Z" style="fill:#eceded;fill-opacity:0.996078;fill-rule:nonzero;"/><path id="path4313" d="M1136.93,1128.71c3.62,-3.62 6.084,-8.951 6.084,-13.164c0,-8.186 -8,-17.93 -14.72,-17.93c-2.537,0 -8.517,-3.904 -13.288,-8.675c-10.548,-10.548 -24.231,-11.9 -34.965,-3.456c-4.119,3.239 -8.624,4.698 -11.879,3.847c-7.601,-1.987 -20.018,4.001 -24.09,11.618c-2.214,4.142 -5.592,6.58 -9.118,6.58c-12.066,0 -17.821,15.05 -8.857,23.162c3.903,3.532 11.493,4.102 54.641,4.102c49.897,0 50.134,-0.027 56.192,-6.084Z" style="fill:#bcbebf;fill-opacity:0.996078;fill-rule:nonzero;"/><path id="path4315" d="M592.324,1085.28c-2.983,-5.574 -0.969,-12.573 3.619,-12.573c1.751,0 3.865,-2.714 4.697,-6.031c1.46,-5.816 10.181,-10.902 13.317,-7.765c0.84,0.839 2.708,-2.021 4.151,-6.358c6.053,-18.191 31.678,-24.547 45.516,-11.29c4.545,4.355 8.474,6.049 11.928,5.146c8.698,-2.275 22.851,5.217 24.791,13.123c0.942,3.838 4.373,9.477 7.625,12.531c4.626,4.344 5.377,6.55 3.454,10.144c-2.138,3.993 -6.885,4.804 -36.432,6.221c-18.686,0.896 -44.354,1.629 -57.042,1.629c-20.241,0 -23.38,-0.585 -25.624,-4.777l0,0Z" style="fill:#cccdce;fill-rule:nonzero;"/><path id="path4317" d="M691.628,1173.16c3.62,-3.62 6.084,-8.951 6.084,-13.164c0,-8.186 -8,-17.93 -14.72,-17.93c-2.537,0 -8.517,-3.904 -13.288,-8.675c-10.548,-10.548 -24.231,-11.901 -34.966,-3.456c-4.118,3.239 -8.623,4.698 -11.878,3.847c-7.601,-1.987 -20.018,4.001 -24.09,11.618c-2.214,4.142 -5.592,6.58 -9.118,6.58c-12.066,0 -17.821,15.05 -8.857,23.162c3.903,3.532 11.493,4.102 54.641,4.102c49.897,0 50.134,-0.027 56.192,-6.084Z" style="fill:#dee0e0;fill-rule:nonzero;"/><path id="path4319" d="M963.757,1093.32c3.941,-3.191 7.387,-4.082 10.808,-2.795c5.705,2.147 13.835,-0.258 17.764,-5.255c7.669,-9.754 3.883,-22.486 -8.034,-27.017c-3.574,-1.358 -5.946,-4.263 -5.946,-7.279c0,-8.771 -9.289,-15.683 -18.965,-14.113c-5.996,0.973 -10.995,-0.099 -17.011,-3.648c-10.87,-6.414 -21.115,-4.451 -29.639,5.679c-3.445,4.094 -6.264,8.474 -6.264,9.732c0,1.259 -3.84,2.289 -8.534,2.289c-9.299,0 -16.251,6.892 -16.251,16.11c0,6.731 6.728,16.111 11.556,16.111c2.111,0 7.153,2.788 11.203,6.196c7.49,6.303 17.739,7.941 24.179,3.866c2.323,-1.47 5.321,-1.025 8.607,1.277c7.062,4.946 19.672,4.398 26.527,-1.153Z" style="fill:#e5e6e6;fill-opacity:0.996078;fill-rule:nonzero;"/><path id="path4321" d="M1128.74,1116.12c-1.005,-1.005 -8.472,-1.857 -16.594,-1.894c-13.224,-0.06 -15.601,-0.891 -22.753,-7.95c-4.392,-4.336 -10.495,-10.176 -13.562,-12.978c-10.751,-9.821 -3.574,-29.88 10.692,-29.88c4.046,0 6.962,-1.914 8.494,-5.577c7.616,-18.209 28.831,-25.267 42.835,-14.251c3.466,2.726 9.541,4.957 13.499,4.957c6.773,0 18.046,7.614 18.046,12.188c0,1.145 3.399,3.49 7.553,5.21c14.949,6.192 19.273,26.422 8.408,39.334c-7.001,8.321 -18.753,11.761 -28.204,8.256c-4.136,-1.533 -8.053,-1.195 -12.393,1.07c-7.072,3.69 -13.261,4.275 -16.021,1.515Z" style="fill:#cccdce;fill-opacity:0.996078;fill-rule:nonzero;"/><path id="use5242" d="M741.268,1144.74c0,0 -13.431,24.013 -0.781,24.217c10.309,0.165 0.781,-24.217 0.781,-24.217Z" style="fill:#1d6faf;fill-opacity:0.976471;"/><path id="use5244" d="M660.232,1238.54c0,0 -13.432,24.014 -0.782,24.217c10.309,0.166 0.782,-24.217 0.782,-24.217Z" style="fill:#1d6faf;fill-opacity:0.976471;"/><path id="use5246" d="M781.426,1167.05c0,0 -13.431,24.014 -0.781,24.217c10.309,0.166 0.781,-24.217 0.781,-24.217Z" style="fill:#1d6faf;fill-opacity:0.976471;"/><path id="use5254" d="M1130.01,1264.71c0,0 -13.431,24.013 -0.781,24.217c10.309,0.165 0.781,-24.217 0.781,-24.217Z" style="fill:#1d6faf;fill-opacity:0.976471;"/><path id="use5256" d="M1078.1,1188.91c0,0 -13.431,24.013 -0.782,24.216c10.31,0.166 0.782,-24.216 0.782,-24.216Z" style="fill:#1d6faf;fill-opacity:0.976471;"/><path id="use5260" d="M1129.82,1156.9c0,0 -13.431,24.013 -0.781,24.217c10.309,0.166 0.781,-24.217 0.781,-24.217Z" style="fill:#1d6faf;fill-opacity:0.976471;"/><path id="use5264" d="M1067.39,1264.5c0,0 -13.431,24.013 -0.781,24.217c10.309,0.165 0.781,-24.217 0.781,-24.217Z" style="fill:#1d6faf;fill-opacity:0.976471;"/><path id="use5272" d="M794.907,1114.98c0,0 -13.431,24.014 -0.781,24.217c10.309,0.166 0.781,-24.217 0.781,-24.217Z" style="fill:#1d6faf;fill-opacity:0.976471;"/><path id="use5276" d="M703.022,1189.58c0,0 -13.432,24.013 -0.782,24.217c10.309,0.165 0.782,-24.217 0.782,-24.217Z" style="fill:#1d6faf;fill-opacity:0.976471;"/><path id="use5278" d="M640.399,1259.01c0,0 -13.432,24.013 -0.782,24.216c10.309,0.166 0.782,-24.216 0.782,-24.216Z" style="fill:#1d6faf;fill-opacity:0.976471;"/><path id="use5280" d="M616.022,1197.67c0,0 -13.431,24.013 -0.781,24.216c10.309,0.166 0.781,-24.216 0.781,-24.216Z" style="fill:#1d6faf;fill-opacity:0.976471;"/><path id="use5282" d="M704.306,1323.78c0,0 -13.431,24.013 -0.781,24.216c10.309,0.166 0.781,-24.216 0.781,-24.216Z" style="fill:#1d6faf;fill-opacity:0.976471;"/><path id="use5286" d="M789.662,1248.2c0,0 -13.431,24.013 -0.781,24.217c10.309,0.165 0.781,-24.217 0.781,-24.217Z" style="fill:#1d6faf;fill-opacity:0.976471;"/><path id="use5288" d="M1041.6,1152.48c0,0 -13.431,24.013 -0.781,24.217c10.309,0.166 0.781,-24.217 0.781,-24.217Z" style="fill:#1d6faf;fill-opacity:0.976471;"/><path id="use5290" d="M1086.96,1239.2c0,0 -13.431,24.013 -0.781,24.216c10.309,0.166 0.781,-24.216 0.781,-24.216Z" style="fill:#1d6faf;fill-opacity:0.976471;"/><path id="path5380" d="M753.852,1623.74c0,-4.933 -0.211,-8.969 -0.469,-8.969c-0.258,0 -2.389,1.311 -4.734,2.913c-2.346,1.601 -5.32,3.216 -6.611,3.588l-2.346,0.675l2.275,-3.077c3.038,-4.108 1.973,-4.787 -2.791,-1.779c-4.134,2.609 -12.185,5.653 -14.953,5.653c-1.242,0 -0.875,-0.81 1.468,-3.239c1.719,-1.781 3.606,-4.515 4.194,-6.074l1.069,-2.836l-4.994,0.593c-2.747,0.327 -7.349,0.866 -10.227,1.199l-5.232,0.606l3.987,-3.648l3.986,-3.648l-4.629,0.596c-2.546,0.328 -5.829,0.295 -7.296,-0.073c-2.568,-0.644 -2.457,-0.786 2.954,-3.782c6.256,-3.464 7.204,-4.943 3.49,-5.44c-3.245,-0.434 -5.093,-2.158 -2.314,-2.158c3.871,0 9.54,-3.114 14.903,-8.185c2.942,-2.783 5.349,-5.406 5.349,-5.831c0,-0.424 -1.595,-0.331 -3.543,0.207c-1.949,0.538 -4.528,0.806 -5.731,0.596c-2.031,-0.356 -1.982,-0.468 0.684,-1.582c4.3,-1.796 8.253,-4.853 10.674,-8.254l2.164,-3.039l-2.871,0.194c-1.58,0.107 -4.217,0.13 -5.862,0.05l-2.989,-0.144l3.488,-1.503c3.343,-1.441 13.951,-10.992 13.951,-12.561c0,-0.416 -1.457,-0.485 -3.238,-0.153l-3.239,0.603l3.386,-2.372c1.862,-1.305 4.047,-3.382 4.855,-4.615c1.396,-2.13 1.338,-2.242 -1.165,-2.242c-2.503,0 -2.358,-0.277 2.868,-5.503c6.323,-6.324 6.89,-7.979 2.424,-7.086c-3.039,0.608 -3.017,0.56 1.744,-3.822c4.02,-3.7 4.471,-4.444 2.712,-4.477c-1.948,-0.037 -1.867,-0.299 1.06,-3.403c1.744,-1.849 3.866,-4.796 4.715,-6.549l1.543,-3.187l2.627,4.484c1.446,2.465 3.81,5.413 5.254,6.549l2.627,2.066l-2.377,0.023c-2.172,0.024 -1.979,0.402 2.25,4.438c4.463,4.259 4.525,4.395 1.744,3.839c-4.3,-0.86 -3.629,1.049 2.534,7.212c5.061,5.061 5.249,5.416 2.868,5.416c-2.414,0 -2.471,0.118 -1.079,2.242c0.808,1.233 2.993,3.31 4.855,4.615l3.386,2.372l-3.239,-0.603c-1.781,-0.332 -3.239,-0.354 -3.239,-0.049c0,1.959 7.966,9.676 12.129,11.751l4.994,2.488l-5.638,0.302l-5.638,0.301l3.531,4.118c1.943,2.265 5.336,4.84 7.541,5.723c2.205,0.882 4.009,1.893 4.009,2.247c0,0.354 -2.578,0.341 -5.73,-0.03l-5.73,-0.673l4.983,5.135c5.197,5.357 11.231,8.833 15.396,8.871c3.053,0.026 1.551,1.712 -1.943,2.179c-3.729,0.5 -2.761,1.979 3.601,5.501c5.524,3.059 5.634,3.199 3.046,3.849c-1.477,0.37 -4.811,0.39 -7.407,0.044l-4.721,-0.629l3.986,3.615l3.987,3.615l-5.232,-0.605c-2.878,-0.333 -7.475,-0.872 -10.215,-1.198c-2.741,-0.325 -4.983,-0.296 -4.983,0.066c0,1.453 2.402,5.191 5.352,8.329l3.119,3.319l-3.986,-0.64c-2.193,-0.352 -7.014,-2.141 -10.713,-3.975c-3.7,-1.834 -6.727,-2.987 -6.727,-2.563c0,0.423 0.972,2.006 2.16,3.516l2.16,2.746l-2.409,-0.696c-1.325,-0.382 -4.329,-2.006 -6.674,-3.608c-2.345,-1.602 -4.476,-2.912 -4.734,-2.912c-0.258,0 -0.469,4.036 -0.469,8.969l0,8.969l-4.983,0l-4.982,0l0,-8.969l0,-0.001Z" style="fill:#335529;fill-rule:nonzero;"/><path id="path5458" d="M886.936,1623.37c0,-3.648 -0.419,-6.626 -0.932,-6.619c-0.513,0.01 -4.009,0.747 -7.769,1.645c-3.76,0.897 -6.996,1.638 -7.191,1.645c-0.195,0.01 0.224,-0.949 0.932,-2.125c1.825,-3.032 1.605,-3.738 -0.888,-2.854c-1.197,0.424 -6.549,2.219 -11.894,3.987l-9.718,3.216l2.757,-3.444l2.757,-3.443l-2.983,0.795c-1.641,0.437 -4.29,1.529 -5.888,2.426c-1.598,0.898 -3.137,1.425 -3.42,1.174c-0.283,-0.252 1.991,-3.899 5.054,-8.103c3.062,-4.204 5.58,-8.03 5.595,-8.502c0.013,-0.471 -1.792,-0.02 -4.014,1c-2.983,1.372 -3.683,1.451 -2.677,0.305c0.75,-0.854 5.364,-6.105 10.255,-11.67c4.891,-5.564 8.893,-10.388 8.893,-10.72c0,-0.332 -1.707,-0.074 -3.793,0.573c-2.086,0.647 -4.018,0.975 -4.294,0.729c-0.277,-0.245 2.549,-3.851 6.278,-8.012c3.73,-4.162 6.781,-7.929 6.781,-8.372c0,-0.443 -1.43,-0.562 -3.177,-0.265c-3.039,0.517 -2.874,0.097 3.791,-9.678c3.832,-5.621 6.696,-10.46 6.365,-10.755c-0.332,-0.295 -1.883,0.261 -3.446,1.235c-4.692,2.922 -5.095,2.033 -1.328,-2.927c4.155,-5.472 12.711,-19.071 12.711,-20.204c0,-0.427 -1.447,0.066 -3.215,1.097c-1.769,1.03 -3.389,1.709 -3.601,1.509c-0.212,-0.201 2.526,-5.513 6.085,-11.805l6.472,-11.441l6.284,11.441c3.457,6.292 6.129,11.604 5.939,11.805c-0.19,0.2 -1.792,-0.479 -3.561,-1.509c-1.768,-1.031 -3.215,-1.591 -3.215,-1.245c0,0.719 10.762,17.423 14.18,22.01c2.595,3.483 1.958,3.803 -2.454,1.232c-4.754,-2.77 -4.818,-1.219 -0.217,5.279c2.307,3.259 5.513,7.864 7.125,10.235l2.93,4.311l-3.324,-0.565c-1.828,-0.311 -3.313,-0.261 -3.3,0.111c0.01,0.372 3.132,4.079 6.929,8.24c3.797,4.16 6.612,7.824 6.254,8.142c-0.357,0.318 -2.356,0.049 -4.442,-0.598c-2.086,-0.647 -3.793,-0.948 -3.793,-0.67c0,0.278 4.475,5.501 9.944,11.606c5.47,6.105 9.945,11.336 9.945,11.624c0,0.289 -1.678,-0.247 -3.729,-1.19c-2.051,-0.943 -3.729,-1.459 -3.729,-1.145c0,0.313 2.517,4.062 5.593,8.33c3.077,4.268 5.594,8.012 5.594,8.32c0,0.308 -2.797,-0.7 -6.215,-2.24c-6.745,-3.04 -7.724,-2.676 -3.517,1.306c1.484,1.404 2.463,2.741 2.175,2.971c-0.288,0.229 -5.529,-1.245 -11.648,-3.276c-6.119,-2.03 -11.373,-3.471 -11.675,-3.202c-0.303,0.269 0.168,1.259 1.047,2.201c2.418,2.59 1.105,2.843 -5.539,1.064c-9.32,-2.494 -9.378,-2.463 -9.378,5.015l0,6.633l-4.35,0l-4.351,0l0,-6.633l0,0Z" style="fill:#2d4c24;fill-rule:nonzero;"/><path id="rect5495" d="M1159.32,1512.29c-33.425,-0.52 -50.764,24.216 -38.88,55.463l26.133,68.704c2.184,5.741 5.208,11.292 8.88,16.53l31.582,0l-31.354,-79.961c-7.401,-18.874 2.959,-33.822 23.229,-33.516l124.473,1.882l0,-26.81c-0.366,-0.01 -0.735,-0.059 -1.1,-0.065l-142.963,-2.227l0,0Z" style="fill:#737373;fill-rule:nonzero;"/><path id="path5505" d="M1206.27,1565.46c0,-2.285 -0.098,-2.447 -1.958,-3.228c-1.674,-0.703 -2.428,-0.73 -5.192,-0.184c-2.525,0.499 -3.649,0.501 -5.134,0.013c-1.274,-0.42 -2.879,-0.488 -4.861,-0.206c-1.628,0.232 -3.195,0.433 -3.482,0.447c-1.231,0.058 -0.141,-2.029 3.589,-6.872c2.19,-2.844 3.983,-5.427 3.983,-5.74c0,-0.312 -0.35,-0.702 -0.778,-0.866c-1.06,-0.407 -0.374,-2.116 2.902,-7.226c2.687,-4.191 3.031,-5.12 1.897,-5.12c-0.374,0 -0.948,-0.269 -1.277,-0.599c-0.66,-0.659 0.126,-2.51 3.321,-7.825c2.02,-3.36 2.111,-3.909 0.873,-5.277c-0.848,-0.937 -0.832,-1.108 0.318,-3.275c0.667,-1.258 2.802,-4.89 4.743,-8.07l3.529,-5.784l3.679,6.146c2.023,3.38 4.092,7.022 4.599,8.093c0.888,1.878 0.885,1.985 -0.075,3.046c-0.983,1.085 -0.977,1.133 0.49,3.797c4.933,8.962 5.167,9.748 2.902,9.748c-0.557,0 -1.013,0.193 -1.013,0.429c0,0.236 1.41,2.628 3.133,5.315c3.303,5.152 3.638,6.106 2.32,6.611c-1.134,0.435 -0.769,1.122 3.683,6.93c4.093,5.34 4.849,7.17 2.744,6.645c-3.436,-0.856 -5.829,-0.961 -7.714,-0.339c-1.642,0.542 -2.625,0.545 -5.123,0.017c-3.765,-0.799 -6.842,-0.007 -6.928,1.784c-0.186,3.885 -0.036,3.669 -2.69,3.84l-2.48,0.159l0,-2.405l0,-0.004Z" style="fill:#335529;fill-rule:nonzero;"/><path id="path5507" d="M1266.26,1565.46c0,-2.285 -0.098,-2.447 -1.959,-3.228c-1.673,-0.703 -2.427,-0.73 -5.191,-0.184c-2.525,0.499 -3.649,0.501 -5.135,0.013c-1.273,-0.42 -2.878,-0.488 -4.86,-0.206c-1.628,0.232 -3.195,0.433 -3.482,0.447c-1.231,0.058 -0.141,-2.029 3.589,-6.872c2.19,-2.844 3.983,-5.427 3.983,-5.74c0,-0.312 -0.35,-0.702 -0.778,-0.866c-1.06,-0.407 -0.374,-2.116 2.902,-7.226c2.687,-4.191 3.031,-5.12 1.897,-5.12c-0.374,0 -0.948,-0.269 -1.278,-0.599c-0.659,-0.659 0.127,-2.51 3.322,-7.825c2.02,-3.36 2.111,-3.909 0.873,-5.277c-0.849,-0.937 -0.832,-1.108 0.318,-3.275c0.667,-1.258 2.802,-4.89 4.743,-8.07l3.529,-5.784l3.679,6.146c2.023,3.38 4.092,7.022 4.598,8.093c0.888,1.878 0.886,1.985 -0.074,3.046c-0.983,1.085 -0.977,1.133 0.49,3.797c4.933,8.962 5.167,9.748 2.902,9.748c-0.557,0 -1.013,0.193 -1.013,0.429c0,0.236 1.41,2.628 3.133,5.315c3.303,5.152 3.638,6.106 2.32,6.611c-1.134,0.435 -0.769,1.122 3.683,6.93c4.093,5.34 4.849,7.17 2.744,6.645c-3.436,-0.856 -5.829,-0.961 -7.715,-0.339c-1.641,0.542 -2.624,0.545 -5.122,0.017c-3.765,-0.799 -6.842,-0.007 -6.928,1.784c-0.186,3.885 -0.036,3.669 -2.69,3.84l-2.48,0.159l0,-2.405l0,-0.004Z" style="fill:#335529;fill-rule:nonzero;"/><path id="path5622" d="M557.416,1419.66c0,0 3.831,-1.559 5.678,-1.762c1.687,-0.186 2.913,-0.135 2.913,-0.135l-4.096,2.042l-4.495,-0.145Z" style="fill:#255d23;"/><path id="path5620" d="M561.439,1419.89c0,0 3.547,-2.644 5.309,-2.056c1.763,0.587 3.135,2.112 3.135,2.112l-5.68,0.237l-2.764,-0.293Z" style="fill:#296727;"/><path id="path5630" d="M578.033,1419.68c0,0 3.831,-1.559 5.677,-1.762c1.688,-0.186 2.914,-0.135 2.914,-0.135l-4.096,2.042l-4.495,-0.145Z" style="fill:#255d23;"/><path id="path5632" d="M582.056,1419.91c0,0 3.547,-2.644 5.309,-2.057c1.762,0.587 4.405,1.799 4.405,1.799l-6.95,0.55l-2.764,-0.292Z" style="fill:#296727;"/><path id="path5634" d="M600.572,1419.68c0,0 3.831,-1.559 5.677,-1.762c1.688,-0.186 2.914,-0.135 2.914,-0.135l-4.096,2.042l-4.495,-0.145Z" style="fill:#255d23;"/><path id="path5636" d="M604.595,1419.91c0,0 3.547,-2.644 5.309,-2.057c2.352,-0.112 5.547,1.799 5.547,1.799l-8.092,0.55l-2.764,-0.292Z" style="fill:#296727;"/><path id="path5638" d="M623.148,1419.72c0,0 3.831,-1.559 5.677,-1.762c1.688,-0.186 2.914,-0.135 2.914,-0.135l-4.096,2.042l-4.495,-0.145Z" style="fill:#255d23;"/><path id="path5640" d="M627.171,1419.95c0,0 3.547,-2.644 5.309,-2.057c2.351,-0.112 2.453,2.204 2.453,2.204l-4.998,0.145l-2.764,-0.292Z" style="fill:#296727;"/><path id="path5642" d="M639.131,1419.79c0,0 3.021,-1.743 4.868,-1.946c1.687,-0.185 2.913,-0.134 2.913,-0.134l-4.096,2.042l-3.685,0.038Z" style="fill:#255d23;"/><path id="path5644" d="M642.344,1419.84c0,0 2.774,-2.718 4.536,-2.13c2.351,-0.113 2.49,2.314 2.49,2.314l-4.262,0.109l-2.764,-0.293Z" style="fill:#296727;"/><path id="path5646" d="M651.321,1419.76c0,0 3.022,-1.744 4.868,-1.947c1.688,-0.185 2.913,-0.134 2.913,-0.134l-4.096,2.042l-3.685,0.039Z" style="fill:#255d23;"/><path id="path5648" d="M654.534,1419.8c0,0 3.548,-2.791 5.31,-2.204c2.351,-0.112 3.189,2.131 3.189,2.131l-5.734,0.366l-2.765,-0.293Z" style="fill:#296727;"/><path id="path5650" d="M664.138,1419.72c0,0 3.021,-1.743 4.867,-1.946c1.688,-0.186 2.914,-0.135 2.914,-0.135l-4.096,2.042l-3.685,0.039Z" style="fill:#255d23;"/><path id="path5652" d="M667.351,1419.76c0,0 2.258,-2.68 4.02,-2.093c2.351,-0.112 3.668,2.02 3.668,2.02l-4.924,0.366l-2.764,-0.293Z" style="fill:#296727;"/><path id="path5654" d="M678.685,1419.72c0,0 3.021,-1.743 4.867,-1.946c1.688,-0.186 2.914,-0.135 2.914,-0.135l-4.096,2.042l-3.685,0.039Z" style="fill:#255d23;"/><path id="path5656" d="M681.898,1419.76c0,0 2.258,-2.68 4.02,-2.093c2.351,-0.112 5.031,1.983 5.031,1.983l-6.287,0.403l-2.764,-0.293Z" style="fill:#296727;"/><path id="path6814" d="M1000.78,1635.58c2.784,-3.268 3.026,-4.6 3.026,-4.6l-1.574,0.727l2.058,-4.6l-4.115,2.784l2.057,-6.415l-4.478,3.389l2.058,-5.931c0,0 -2.058,1.089 -3.269,2.3c-1.21,1.21 -2.784,2.663 -2.784,2.663c0,0 0.121,-2.784 0.606,-3.874c0.484,-1.089 1.452,-3.752 1.452,-3.752c0,0 -3.268,1.936 -4.236,3.268c-0.969,1.331 -2.905,3.631 -2.905,3.631c0,0 -0.606,-3.147 -0.606,-4.599c0,-1.453 0.484,-4.116 0.484,-4.116c0,0 -2.784,3.389 -3.752,5.205c-0.968,1.816 -1.695,3.752 -1.695,3.752c0,0 -1.089,-1.815 -1.331,-3.268c-0.242,-1.452 -0.484,-5.326 -0.484,-5.326c0,0 -2.058,2.542 -2.542,4.358c-0.484,1.815 -1.332,4.478 -1.332,4.478l-4.357,-4.599l1.331,7.626l-4.478,-4.963c0,0 0,2.058 0.484,3.873c0.484,1.816 1.815,3.51 1.815,3.51l-3.389,-0.968c0,0 0.969,3.026 2.179,3.995c1.21,0.968 1.574,1.21 1.574,1.21l28.203,0.242Z" style="fill:#44693a;"/><path id="path6816" d="M1052.34,1602.03c-2.784,-3.268 -3.026,-4.599 -3.026,-4.599l1.573,0.726l-2.058,-4.6l4.116,2.784l-2.058,-6.415l4.479,3.389l-2.058,-5.931c0,0 2.058,1.089 3.268,2.3c1.211,1.21 2.784,2.663 2.784,2.663c0,0 -0.121,-2.784 -0.605,-3.874c-0.484,-1.089 -1.453,-3.752 -1.453,-3.752c0,0 3.269,1.937 4.237,3.268c0.968,1.332 2.905,3.631 2.905,3.631c0,0 0.605,-3.147 0.605,-4.599c0,-1.453 -0.484,-4.116 -0.484,-4.116c0,0 2.784,3.389 3.753,5.205c0.968,1.816 1.694,3.753 1.694,3.753c0,0 1.09,-1.816 1.332,-3.269c0.242,-1.452 0.484,-5.326 0.484,-5.326c0,0 2.058,2.542 2.542,4.358c0.484,1.816 1.331,4.479 1.331,4.479l4.358,-4.6l-1.332,7.626l4.479,-4.963c0,0 0,2.058 -0.484,3.873c-0.484,1.816 -1.816,3.511 -1.816,3.511l3.389,-0.969c0,0 -0.968,3.026 -2.178,3.995c-1.211,0.968 -1.574,1.21 -1.574,1.21l-28.203,0.242Z" style="fill:#44693a;"/><path id="path6831" d="M1005.4,1535.27c-1.695,-1.991 -1.843,-2.801 -1.843,-2.801l0.959,0.442l-1.254,-2.801l2.507,1.695l-1.253,-3.907l2.727,2.064l-1.253,-3.612c0,0 1.253,0.664 1.99,1.401c0.737,0.737 1.696,1.622 1.696,1.622c0,0 -0.074,-1.696 -0.369,-2.359c-0.295,-0.664 -0.885,-2.286 -0.885,-2.286c0,0 1.991,1.18 2.581,1.991c0.589,0.811 1.769,2.211 1.769,2.211c0,0 0.368,-1.916 0.368,-2.801c0,-0.884 -0.295,-2.506 -0.295,-2.506c0,0 1.696,2.064 2.285,3.17c0.59,1.105 1.032,2.285 1.032,2.285c0,0 0.664,-1.106 0.811,-1.991c0.148,-0.884 0.295,-3.243 0.295,-3.243c0,0 1.253,1.548 1.548,2.654c0.295,1.105 0.811,2.727 0.811,2.727l2.654,-2.801l-0.811,4.644l2.727,-3.022c0,0 0,1.253 -0.295,2.359c-0.295,1.105 -1.105,2.137 -1.105,2.137l2.064,-0.589c0,0 -0.59,1.842 -1.327,2.432c-0.737,0.59 -0.958,0.737 -0.958,0.737l-17.176,0.148Z" style="fill:#44693a;"/><path id="path6833" d="M996.771,1520.21c1.695,-1.99 1.843,-2.801 1.843,-2.801l-0.959,0.443l1.254,-2.802l-2.507,1.696l1.253,-3.907l-2.727,2.064l1.253,-3.612c0,0 -1.253,0.663 -1.99,1.401c-0.737,0.737 -1.696,1.621 -1.696,1.621c0,0 0.074,-1.695 0.369,-2.359c0.295,-0.663 0.884,-2.285 0.884,-2.285c0,0 -1.99,1.18 -2.58,1.991c-0.589,0.81 -1.769,2.211 -1.769,2.211c0,0 -0.368,-1.917 -0.368,-2.801c0,-0.885 0.295,-2.506 0.295,-2.506c0,0 -1.696,2.064 -2.285,3.169c-0.59,1.106 -1.032,2.285 -1.032,2.285c0,0 -0.664,-1.105 -0.811,-1.99c-0.148,-0.884 -0.295,-3.243 -0.295,-3.243c0,0 -1.253,1.548 -1.548,2.653c-0.295,1.106 -0.811,2.728 -0.811,2.728l-2.654,-2.801l0.811,4.644l-2.727,-3.023c0,0 0,1.254 0.295,2.359c0.295,1.106 1.105,2.138 1.105,2.138l-2.064,-0.59c0,0 0.59,1.843 1.327,2.433c0.737,0.59 0.958,0.737 0.958,0.737l17.176,0.147Z" style="fill:#44693a;"/><path id="path6835" d="M1008.51,1455.63c1.234,-1.448 1.341,-2.039 1.341,-2.039l-0.697,0.322l0.912,-2.038l-1.824,1.234l0.912,-2.844l-1.985,1.502l0.912,-2.629c0,0 -0.912,0.483 -1.449,1.02c-0.537,0.536 -1.234,1.18 -1.234,1.18c0,0 0.054,-1.234 0.268,-1.717c0.215,-0.483 0.644,-1.663 0.644,-1.663c0,0 -1.448,0.858 -1.878,1.448c-0.429,0.591 -1.287,1.61 -1.287,1.61c0,0 -0.269,-1.395 -0.269,-2.039c0,-0.644 0.215,-1.824 0.215,-1.824c0,0 -1.234,1.502 -1.663,2.307c-0.43,0.805 -0.751,1.663 -0.751,1.663c0,0 -0.483,-0.804 -0.591,-1.448c-0.107,-0.644 -0.214,-2.361 -0.214,-2.361c0,0 -0.912,1.127 -1.127,1.932c-0.215,0.804 -0.59,1.985 -0.59,1.985l-1.932,-2.039l0.59,3.38l-1.985,-2.2c0,0 0,0.912 0.215,1.717c0.215,0.805 0.805,1.556 0.805,1.556l-1.502,-0.429c0,0 0.429,1.341 0.965,1.77c0.537,0.43 0.698,0.537 0.698,0.537l12.501,0.107Z" style="fill:#44693a;"/><path id="path6837" d="M1080.82,1448.3c1.234,-1.448 1.342,-2.039 1.342,-2.039l-0.698,0.322l0.912,-2.038l-1.824,1.234l0.912,-2.844l-1.985,1.502l0.912,-2.629c0,0 -0.912,0.483 -1.448,1.02c-0.537,0.536 -1.234,1.18 -1.234,1.18c0,0 0.053,-1.234 0.268,-1.717c0.215,-0.483 0.644,-1.663 0.644,-1.663c0,0 -1.449,0.858 -1.878,1.448c-0.429,0.591 -1.288,1.61 -1.288,1.61c0,0 -0.268,-1.395 -0.268,-2.039c0,-0.644 0.214,-1.824 0.214,-1.824c0,0 -1.234,1.502 -1.663,2.307c-0.429,0.805 -0.751,1.663 -0.751,1.663c0,0 -0.483,-0.804 -0.59,-1.448c-0.107,-0.644 -0.215,-2.361 -0.215,-2.361c0,0 -0.912,1.127 -1.126,1.932c-0.215,0.804 -0.591,1.985 -0.591,1.985l-1.931,-2.039l0.59,3.38l-1.985,-2.2c0,0 0,0.912 0.215,1.717c0.214,0.805 0.804,1.556 0.804,1.556l-1.502,-0.429c0,0 0.429,1.341 0.966,1.77c0.536,0.43 0.697,0.537 0.697,0.537l12.501,0.107Z" style="fill:#44693a;"/><path id="path6839" d="M1035.92,1462.17c-1.234,-1.449 -1.341,-2.039 -1.341,-2.039l0.698,0.322l-0.913,-2.039l1.825,1.234l-0.912,-2.843l1.985,1.502l-0.912,-2.629c0,0 0.912,0.483 1.448,1.019c0.537,0.537 1.234,1.181 1.234,1.181c0,0 -0.053,-1.234 -0.268,-1.717c-0.215,-0.483 -0.644,-1.664 -0.644,-1.664c0,0 1.449,0.859 1.878,1.449c0.429,0.59 1.288,1.61 1.288,1.61c0,0 0.268,-1.395 0.268,-2.039c0,-0.644 -0.215,-1.824 -0.215,-1.824c0,0 1.234,1.502 1.664,2.307c0.429,0.805 0.751,1.663 0.751,1.663c0,0 0.483,-0.805 0.59,-1.449c0.107,-0.644 0.215,-2.36 0.215,-2.36c0,0 0.912,1.126 1.126,1.931c0.215,0.805 0.59,1.985 0.59,1.985l1.932,-2.039l-0.59,3.381l1.985,-2.2c0,0 0,0.912 -0.215,1.717c-0.214,0.805 -0.805,1.556 -0.805,1.556l1.503,-0.43c0,0 -0.43,1.342 -0.966,1.771c-0.537,0.429 -0.698,0.537 -0.698,0.537l-12.501,0.107Z" style="fill:#44693a;"/><path id="rect5484" d="M1128.19,1364.87l0,129.412l155.076,0l0,-77.648l-77.866,0l0,-51.764l-77.21,0Z" style="fill:#f3f0d9;fill-rule:nonzero;"/><rect id="rect5511" x="1208.86" y="1596.5" width="115.599" height="20.874" style="fill:#737373;"/><ellipse id="ellipse5513" cx="1269.22" cy="1616.95" rx="60.363" ry="14.727" style="fill:#737373;"/><ellipse id="path5509" cx="1269.22" cy="1596.95" rx="60.363" ry="14.727" style="fill:#929292;"/><ellipse id="ellipse5515" cx="1269.22" cy="1596.95" rx="51.357" ry="12.529" style="fill:#74a1c2;fill-opacity:0.988235;"/><ellipse id="ellipse5517" cx="1269.22" cy="1596.95" rx="5.676" ry="1.385" style="fill:#797979;"/><path id="path5519" d="M1277.11,1571.09c-0.815,-0.057 -1.588,0.041 -2.253,0.293c-3.908,1.482 -5.67,2.012 -6.009,9.369c-0.844,-7.616 -3.008,-8.132 -6.536,-9.258c-2.708,-0.864 -5.808,0.352 -7.761,4.258c-1.953,3.906 -0.976,11.23 -0.976,11.23c4.517,-0.903 2.441,-8.789 7.812,-7.324c5.371,1.465 7.813,16.113 7.813,16.113c0,0 2.441,-14.648 7.812,-16.113c5.371,-1.465 3.296,6.421 7.813,7.324c0,0 0.976,-7.324 -0.977,-11.23c-1.465,-2.93 -4.294,-4.49 -6.738,-4.662Z" style="fill:#44769a;fill-opacity:0.639216;"/><rect x="535.596" y="1122.03" width="764.9" height="150" style="fill:none;"/><rect x="535.596" y="972.027" width="764.9" height="148" style="fill:none;"/><rect x="535.596" y="1272.03" width="766.187" height="147.624" style="fill:none;"/><path id="path5482" d="M1122.12,1501.36c-2.022,-2.022 -0.848,-7.379 1.766,-8.062c2.619,-0.685 2.665,-1.818 2.665,-65.055c0,-35.397 0.374,-65.332 0.831,-66.523c3.656,-9.529 43.808,-14.255 65.22,-7.677c12.632,3.88 14.397,6.054 15.227,18.751l0.666,10.193l38.974,10.606l38.973,10.607l0,44.2c0,43.603 0.037,44.21 2.763,44.923c2.121,0.555 2.663,1.596 2.331,4.486l-0.431,3.763l-84.043,0.343c-46.224,0.189 -84.448,-0.061 -84.942,-0.555Zm128.074,-17.442l-0.394,-8.994l-12.658,0l-12.658,0l-0.394,8.994l-0.394,8.993l26.892,0l-0.394,-8.993Zm-114.515,-8.458c3.725,-1.299 4.197,-2.038 4.197,-6.584c0,-6.27 -0.837,-6.872 -6.343,-4.557c-3.659,1.539 -4.317,2.502 -4.317,6.321c0,3.743 0.818,6.282 2.022,6.282c0.135,0 2.134,-0.658 4.441,-1.462Zm27.847,-4.604c0.972,-0.299 1.666,-2.748 1.666,-5.884l0,-5.371l-7.242,0c-10.821,0 -14.077,1.636 -14.077,7.073c0,2.461 0.382,4.857 0.849,5.323c0.81,0.811 15.318,-0.07 18.804,-1.141Zm25.649,-3.76c0,-5.463 -0.262,-5.882 -4.164,-6.662c-2.29,-0.458 -6.821,-0.833 -10.069,-0.833l-5.906,0l0.819,11.326l7.328,0.782c4.031,0.43 8.378,0.88 9.66,0.999c1.899,0.177 2.332,-0.866 2.332,-5.612Zm89.02,-8.494l-0.414,-4.997l-38.64,0l-38.64,0l-0.414,4.997l-0.413,4.996l78.934,0l-0.413,-4.996Zm-142.516,-1.796c3.85,-1.342 4.197,-1.947 4.197,-7.329c0,-3.226 -0.32,-5.865 -0.709,-5.865c-0.39,0 -2.789,0.869 -5.33,1.931c-3.982,1.663 -4.621,2.553 -4.621,6.44c0,3.745 0.817,6.286 2.022,6.286c0.135,0 2.134,-0.659 4.441,-1.463Zm26.515,-4.644c2.505,-0.507 2.998,-1.478 2.998,-5.911l0,-5.304l-7.242,0c-10.821,0 -14.077,1.636 -14.077,7.073c0,2.461 0.364,4.839 0.808,5.283c0.784,0.784 11.419,0.091 17.513,-1.141Zm26.716,-4.058c0.465,-6.352 -0.89,-7.108 -12.803,-7.139l-7.071,-0.018l0.819,11.326l7.328,0.794c11.159,1.21 11.279,1.16 11.727,-4.963l0,0Zm89.285,-6.824l-0.414,-4.996l-38.973,-0.354l-38.974,-0.353l0,10.7l78.774,0l-0.413,-4.997Zm-142.516,-3.128c3.85,-1.342 4.197,-1.947 4.197,-7.328c0,-3.227 -0.32,-5.866 -0.709,-5.866c-0.39,0 -2.789,0.869 -5.33,1.931c-3.982,1.663 -4.621,2.553 -4.621,6.44c0,3.745 0.817,6.286 2.022,6.286c0.135,0 2.134,-0.659 4.441,-1.463Zm26.589,-4.663c2.709,-0.551 3.024,-1.29 2.665,-6.243l-0.408,-5.619l-7.994,0.472c-9.752,0.576 -12.658,1.983 -12.658,6.128c0,6.468 1.053,7.288 8.441,6.562c3.785,-0.371 8.264,-0.956 9.954,-1.3Zm26.647,-4.23c0.391,-5.282 0.243,-5.512 -3.997,-6.196c-2.422,-0.391 -6.802,-0.874 -9.733,-1.074l-5.33,-0.362l0,11.992l7.995,0.763c10.773,1.029 10.604,1.108 11.065,-5.123Zm89.28,-5.3l-0.414,-4.997l-38.973,-0.353l-38.974,-0.353l0,10.699l78.774,0l-0.413,-4.996Zm-142.516,-4.461c3.85,-1.342 4.197,-1.947 4.197,-7.328c0,-3.226 -0.32,-5.866 -0.709,-5.866c-0.39,0 -2.789,0.869 -5.33,1.931c-3.982,1.664 -4.621,2.554 -4.621,6.44c0,3.745 0.817,6.286 2.022,6.286c0.135,0 2.134,-0.659 4.441,-1.463Zm25.255,-4.676c4.259,-0.649 4.39,-0.855 3.997,-6.26l-0.406,-5.589l-7.994,0.479c-9.765,0.584 -12.658,1.983 -12.658,6.121c0,7.394 0.996,7.7 17.061,5.249Zm27.979,-4.179c0.464,-6.244 -0.083,-6.582 -11.73,-7.25l-7.328,-0.42l-0.408,5.619c-0.45,6.203 0.003,6.508 11.067,7.447c7.786,0.661 7.958,0.551 8.399,-5.396Zm-51.369,-10.641c1.764,-0.508 2.332,-2.093 2.332,-6.511c0,-6.381 -0.837,-6.855 -6.729,-3.808c-3.151,1.63 -3.931,2.907 -3.931,6.44c0,5.144 1.057,6.6 3.928,5.408c1.137,-0.472 3.117,-1.161 4.4,-1.529Zm66.288,-3.561c0,-5.367 -0.353,-5.988 -4.151,-7.312c-5.346,-1.864 -6.509,-1.031 -6.509,4.66c0,3.971 0.632,4.924 4.331,6.531c6.187,2.69 6.329,2.603 6.329,-3.879Zm-44.897,-0.167l6.401,-0.814l-0.405,-5.571l-0.406,-5.57l-8.66,0.472c-10.199,0.556 -11.992,1.689 -11.992,7.575c0,4.565 1.351,5.723 5.945,5.094c1.494,-0.204 5.596,-0.738 9.117,-1.186Zm30.24,-4.68c0,-5.864 -0.77,-6.285 -12.658,-6.919l-6.662,-0.356l-0.406,5.589c-0.392,5.396 -0.254,5.614 3.997,6.316c6.327,1.045 13.567,1.556 14.73,1.04c0.549,-0.244 0.999,-2.796 0.999,-5.67Zm-49.299,-16.97c0,-5.786 -0.081,-5.896 -3.657,-4.999c-5.383,1.351 -7.003,3.195 -7.003,7.973c0,5.594 0.607,6.028 6.071,4.351c4.33,-1.329 4.589,-1.742 4.589,-7.325Zm63.956,2.45c0,-4.376 -0.55,-5.317 -3.917,-6.712c-5.088,-2.108 -6.743,-0.937 -6.743,4.773c0,3.981 0.621,4.91 4.318,6.465c5.5,2.312 6.342,1.712 6.342,-4.526Zm-14.899,-4.904l-0.424,-5.172l-7.995,-1.003c-4.397,-0.552 -8.744,-0.721 -9.66,-0.375c-0.947,0.357 -1.665,2.909 -1.665,5.918c0,5.819 -1.36,5.154 14.656,7.169c4.654,0.585 5.575,-0.598 5.088,-6.537Zm-28.67,5.287c4.993,-0.825 5.058,-0.914 4.663,-6.314l-0.401,-5.478l-8.66,0.456c-4.764,0.251 -9.411,1.074 -10.327,1.829c-1.755,1.446 -2.29,7.972 -0.777,9.485c1.112,1.112 8.837,1.123 15.502,0.022l0,0Z" style="fill:#4d4d4d;fill-rule:nonzero;"/><path id="path5368" d="M890.052,1509.54c0,-4.363 -0.447,-7.925 -0.992,-7.916c-0.545,0.01 -4.263,0.894 -8.262,1.967c-3.999,1.073 -7.44,1.959 -7.647,1.967c-0.208,0.01 0.238,-1.135 0.991,-2.541c1.941,-3.626 1.707,-4.47 -0.945,-3.413c-1.272,0.508 -6.964,2.653 -12.648,4.768l-10.335,3.846l2.932,-4.118l2.932,-4.118l-3.172,0.951c-1.745,0.523 -4.563,1.828 -6.262,2.901c-1.699,1.073 -3.335,1.705 -3.636,1.403c-0.302,-0.301 2.117,-4.661 5.374,-9.689c3.257,-5.028 5.934,-9.603 5.95,-10.167c0.016,-0.564 -1.905,-0.023 -4.268,1.196c-3.173,1.64 -3.917,1.735 -2.847,0.364c0.797,-1.021 5.704,-7.301 10.905,-13.956c5.202,-6.654 9.457,-12.423 9.457,-12.819c0,-0.397 -1.815,-0.089 -4.033,0.685c-2.218,0.773 -4.274,1.166 -4.567,0.872c-0.294,-0.294 2.711,-4.606 6.677,-9.582c3.966,-4.977 7.211,-9.482 7.211,-10.011c0,-0.53 -1.521,-0.672 -3.379,-0.317c-3.232,0.618 -3.057,0.115 4.031,-11.574c4.076,-6.721 7.122,-12.509 6.769,-12.861c-0.352,-0.353 -2.001,0.312 -3.664,1.476c-4.989,3.495 -5.418,2.432 -1.412,-3.5c4.419,-6.543 13.518,-22.806 13.518,-24.161c0,-0.511 -1.539,0.079 -3.42,1.312c-1.881,1.232 -3.604,2.044 -3.829,1.804c-0.226,-0.24 2.686,-6.593 6.471,-14.117l6.882,-13.681l6.684,13.681c3.675,7.524 6.517,13.877 6.315,14.117c-0.202,0.24 -1.906,-0.572 -3.787,-1.804c-1.88,-1.233 -3.419,-1.902 -3.419,-1.488c0,0.859 11.445,20.835 15.08,26.32c2.76,4.165 2.082,4.547 -2.61,1.473c-5.056,-3.313 -5.123,-1.458 -0.23,6.314c2.453,3.896 5.863,9.404 7.576,12.239l3.117,5.156l-3.535,-0.676c-1.945,-0.372 -3.524,-0.312 -3.509,0.133c0.013,0.444 3.33,4.878 7.368,9.853c4.038,4.975 7.031,9.357 6.651,9.737c-0.38,0.38 -2.506,0.059 -4.725,-0.715c-2.218,-0.773 -4.033,-1.134 -4.033,-0.801c0,0.333 4.759,6.578 10.575,13.879c5.817,7.301 10.576,13.557 10.576,13.901c0,0.345 -1.785,-0.295 -3.966,-1.423c-2.181,-1.128 -3.966,-1.744 -3.966,-1.37c0,0.375 2.677,4.858 5.949,9.962c3.272,5.104 5.948,9.582 5.948,9.95c0,0.369 -2.974,-0.837 -6.609,-2.679c-7.173,-3.635 -8.214,-3.2 -3.74,1.562c1.578,1.679 2.619,3.278 2.313,3.552c-0.306,0.274 -5.88,-1.488 -12.387,-3.916c-6.507,-2.429 -12.094,-4.152 -12.416,-3.83c-0.322,0.322 0.179,1.506 1.114,2.632c2.571,3.098 1.175,3.399 -5.89,1.273c-9.912,-2.983 -9.973,-2.946 -9.973,5.997l0,7.931l-4.627,0l-4.627,0l0,-7.931l0.001,0Z" style="fill:#2d4c24;fill-rule:nonzero;"/><path id="path6841" d="M826.863,1630.92c0,-6.633 -0.679,-12.05 -1.508,-12.036c-0.829,0.013 -6.482,1.359 -12.563,2.991c-6.081,1.632 -11.313,2.978 -11.629,2.991c-0.315,0.013 0.363,-1.726 1.508,-3.864c2.951,-5.514 2.595,-6.798 -1.437,-5.189c-1.935,0.771 -10.589,4.034 -19.233,7.25l-15.715,5.847l4.459,-6.261l4.458,-6.262l-4.824,1.446c-2.653,0.795 -6.938,2.78 -9.521,4.412c-2.584,1.631 -5.072,2.591 -5.531,2.133c-0.458,-0.458 3.22,-7.088 8.172,-14.734c4.953,-7.645 9.024,-14.602 9.048,-15.46c0.023,-0.857 -2.897,-0.039 -6.49,1.819c-4.824,2.494 -5.956,2.639 -4.329,0.554c1.212,-1.553 8.674,-11.103 16.583,-21.221c7.909,-10.119 14.38,-18.891 14.38,-19.494c0,-0.603 -2.76,-0.134 -6.133,1.042c-3.373,1.175 -6.498,1.772 -6.945,1.326c-0.446,-0.447 4.123,-7.003 10.154,-14.571c6.03,-7.567 10.964,-14.418 10.964,-15.223c0,-0.805 -2.311,-1.021 -5.137,-0.481c-4.914,0.939 -4.648,0.175 6.13,-17.6c6.197,-10.22 10.829,-19.021 10.293,-19.557c-0.536,-0.536 -3.044,0.474 -5.573,2.245c-7.586,5.314 -8.238,3.698 -2.146,-5.322c6.719,-9.95 20.555,-34.679 20.555,-36.74c0,-0.776 -2.34,0.121 -5.2,1.995c-2.86,1.874 -5.48,3.108 -5.823,2.744c-0.343,-0.365 4.085,-10.025 9.841,-21.467l10.464,-20.803l10.163,20.803c5.59,11.442 9.911,21.102 9.604,21.467c-0.308,0.364 -2.899,-0.87 -5.759,-2.744c-2.86,-1.874 -5.199,-2.892 -5.199,-2.263c0,1.307 17.403,31.682 22.93,40.023c4.197,6.333 3.167,6.915 -3.968,2.24c-7.688,-5.037 -7.791,-2.217 -0.35,9.601c3.73,5.925 8.915,14.3 11.521,18.612l4.738,7.839l-5.375,-1.028c-2.956,-0.565 -5.358,-0.474 -5.336,0.202c0.02,0.675 5.064,7.418 11.204,14.983c6.141,7.565 10.692,14.228 10.114,14.806c-0.578,0.578 -3.811,0.089 -7.184,-1.087c-3.373,-1.176 -6.133,-1.724 -6.133,-1.219c0,0.506 7.236,10.003 16.081,21.105c8.844,11.102 16.081,20.614 16.081,21.139c0,0.524 -2.714,-0.45 -6.031,-2.165c-3.316,-1.715 -6.03,-2.653 -6.03,-2.083c0,0.57 4.071,7.387 9.046,15.148c4.975,7.762 9.045,14.57 9.045,15.13c0,0.561 -4.523,-1.273 -10.051,-4.074c-10.906,-5.527 -12.489,-4.866 -5.687,2.375c2.4,2.554 3.983,4.985 3.518,5.402c-0.465,0.417 -8.941,-2.263 -18.836,-5.955c-9.895,-3.693 -18.39,-6.313 -18.88,-5.824c-0.489,0.489 0.273,2.29 1.694,4.002c3.909,4.711 1.787,5.17 -8.957,1.936c-15.072,-4.536 -15.165,-4.48 -15.165,9.119l0,12.061l-7.035,0l-7.035,0l0,-12.061l0,0Z" style="fill:#3b642f;fill-rule:nonzero;"/><path id="path5452" d="M870.313,1476.25c0,-3.259 -0.139,-3.489 -2.792,-4.604c-2.388,-1.003 -3.463,-1.041 -7.404,-0.262c-3.602,0.711 -5.205,0.715 -7.323,0.017c-1.817,-0.6 -4.105,-0.697 -6.933,-0.294c-2.321,0.331 -4.556,0.617 -4.965,0.637c-1.756,0.083 -0.202,-2.893 5.118,-9.801c3.124,-4.056 5.681,-7.74 5.681,-8.186c0,-0.445 -0.499,-1.001 -1.109,-1.235c-1.512,-0.58 -0.534,-3.017 4.138,-10.305c3.832,-5.979 4.323,-7.303 2.705,-7.303c-0.532,0 -1.352,-0.384 -1.821,-0.853c-0.94,-0.94 0.181,-3.581 4.737,-11.16c2.881,-4.792 3.01,-5.576 1.245,-7.526c-1.21,-1.337 -1.187,-1.581 0.453,-4.672c0.952,-1.794 3.996,-6.973 6.764,-11.509l5.034,-8.248l5.246,8.764c2.885,4.821 5.837,10.015 6.559,11.542c1.266,2.679 1.262,2.831 -0.107,4.344c-1.401,1.549 -1.392,1.616 0.7,5.416c7.035,12.781 7.369,13.902 4.139,13.902c-0.795,0 -1.446,0.275 -1.446,0.612c0,0.336 2.011,3.747 4.469,7.58c4.711,7.347 5.188,8.708 3.308,9.429c-1.617,0.621 -1.096,1.6 5.253,9.883c5.838,7.616 6.915,10.225 3.913,9.477c-4.9,-1.22 -8.312,-1.37 -11.002,-0.483c-2.341,0.773 -3.743,0.777 -7.305,0.024c-5.369,-1.14 -9.758,-0.01 -9.88,2.543c-0.267,5.541 -0.052,5.234 -3.837,5.477l-3.538,0.227l0,-3.43l0,-0.003Z" style="fill:#405d36;fill-rule:nonzero;"/><path id="path5374" d="M759.216,1503.33c0,-5.379 -0.231,-5.759 -4.61,-7.599c-3.941,-1.655 -5.716,-1.718 -12.222,-0.433c-5.944,1.175 -8.591,1.18 -12.088,0.027c-2.998,-0.99 -6.776,-1.15 -11.443,-0.485c-3.832,0.546 -7.52,1.018 -8.196,1.051c-2.899,0.138 -0.333,-4.775 8.448,-16.177c5.157,-6.697 9.377,-12.778 9.377,-13.513c0,-0.735 -0.824,-1.653 -1.83,-2.039c-2.497,-0.958 -0.881,-4.981 6.83,-17.011c6.326,-9.868 7.136,-12.055 4.466,-12.055c-0.879,0 -2.232,-0.633 -3.007,-1.408c-1.551,-1.552 0.299,-5.91 7.82,-18.422c4.755,-7.91 4.969,-9.203 2.054,-12.423c-1.997,-2.207 -1.958,-2.609 0.75,-7.712c1.57,-2.961 6.595,-11.51 11.164,-18.998l8.309,-13.615l8.66,14.468c4.763,7.958 9.635,16.531 10.827,19.052c2.09,4.422 2.084,4.674 -0.176,7.171c-2.313,2.556 -2.299,2.667 1.154,8.94c11.614,21.098 12.165,22.947 6.833,22.947c-1.313,0 -2.387,0.455 -2.387,1.01c0,0.555 3.32,6.186 7.377,12.513c7.776,12.128 8.564,14.374 5.461,15.564c-2.669,1.025 -1.81,2.641 8.67,16.313c9.637,12.572 11.415,16.88 6.46,15.645c-8.088,-2.015 -13.721,-2.262 -18.161,-0.797c-3.865,1.275 -6.179,1.282 -12.058,0.035c-8.864,-1.881 -16.107,-0.017 -16.31,4.198c-0.44,9.146 -0.085,8.64 -6.333,9.041l-5.839,0.374l0,-5.662l0,0Z" style="fill:#2d4c24;fill-rule:nonzero;"/><path id="path5188" d="M1302,1237.82c-53.211,-8.882 -111.175,1.101 -130.988,5.504c-19.813,4.403 -111.159,35.41 -34.123,28.619c157.576,-13.889 116.907,22.103 19.813,23.116c-25.841,0.27 -90.9,38.758 -7.705,41.828c43.721,1.614 229.573,-8 169.514,-26.418c-72.541,-22.246 72.057,-25.312 -31.921,-44.029c-59.423,-10.697 132.852,-9.015 15.41,-28.62Z" style="fill:#fff;fill-opacity:0.227451;"/><path d="M629.397,1435.71l16.605,0l-25.547,25.547l-25.547,-25.547l16.606,0l0,-36.276l-16.606,0l25.547,-25.547l25.547,25.547l-16.605,0l0,36.276Z" style="stroke:#fff;stroke-width:4.17px;"/><path d="M825.23,1435.71l16.606,0l-25.547,25.547l-25.547,-25.547l16.605,0l0,-36.276l-16.605,0l25.547,-25.547l25.547,25.547l-16.606,0l0,36.276Z" style="stroke:#fff;stroke-width:4.17px;"/><path d="M1033.56,1435.71l16.606,0l-25.547,25.547l-25.547,-25.547l16.606,0l0,-36.276l-16.606,0l25.547,-25.547l25.547,25.547l-16.606,0l0,36.276Z" style="stroke:#fff;stroke-width:4.17px;"/><path d="M1221.06,1435.71l16.606,0l-25.547,25.547l-25.547,-25.547l16.606,0l0,-36.276l-16.606,0l25.547,-25.547l25.547,25.547l-16.606,0l0,36.276Z" style="stroke:#fff;stroke-width:4.17px;"/></g></g><g><path id="path5575" d="M589.901,1418.56l-72.52,36.473l11.026,-13.996l55.132,-23.749l6.362,1.272Z" style="fill:#255d23;"/><path id="path5592" d="M592.936,1419.16l-72.52,36.473l11.026,-13.995l55.133,-23.75l6.361,1.272Z" style="fill:#296727;"/><path id="path5184" d="M515.964,1264.49c97.966,0 190.383,7.675 148.6,11.007c-140.022,11.168 -27.772,22.414 18.713,24.217c56.139,2.176 129.887,1.101 104.57,6.604c-25.317,5.504 -48.432,8.806 -62.742,8.806c-14.31,0 -97.095,18.828 -27.519,15.411c81.068,-3.982 182.178,32.389 66.045,22.014c-58.366,-5.214 -114.482,0.629 -139.794,1.101c-115.095,2.148 52.274,-44.692 -41.828,-36.324c-36.549,3.25 -61.949,-0.794 -61.642,-1.101l-4.403,-51.735Z" style="fill:#fff;fill-opacity:0.321569;"/></g></g></g><g><clipPath id="_clip3"><rect x="91.799" y="120.86" width="768.154" height="682.383"/></clipPath><g clip-path="url(#_clip3)"><g><clipPath id="_clip4"><rect x="91.799" y="120.86" width="767.034" height="682.383"/></clipPath><g clip-path="url(#_clip4)"><g><clipPath id="_clip5"><rect x="91.799" y="120.86" width="769.258" height="682.383"/></clipPath><g clip-path="url(#_clip5)"><rect id="rect55591" serif:id="rect5559" x="90.918" y="570.86" width="166.667" height="233.333" style="fill:#533c29;"/><path id="path55631" serif:id="path5563" d="M242.067,570.194c7.271,32.24 8.058,98.814 8.058,108.992c0,10.179 -2.121,103.904 -2.121,113.234c0,9.33 -1.272,15.267 -1.272,15.267l-39.441,4.241c0,0 15.579,-88.697 13.995,-107.72c-0.99,-11.887 3.393,-44.954 3.393,-62.342c0,-17.388 6.237,-51.619 6.237,-54.164c0,-2.544 0.549,-14.963 2.669,-17.932c2.12,-2.969 8.482,0.424 8.482,0.424Z" style="fill:#255d23;"/><path id="path55651" serif:id="path5565" d="M217.893,571.466c2.545,-4.241 8.482,-2.544 8.482,-2.544c0,0 -0.848,6.785 -0.848,9.33c0,2.544 -14.843,61.494 -22.901,86.939c-8.058,25.446 -34.352,100.087 -39.017,109.841c-4.665,9.754 -15.267,34.776 -15.267,34.776c0,0 -38.169,8.482 -36.896,0.848c1.272,-7.634 27.99,-58.949 35.624,-73.793c7.633,-14.843 53.436,-117.05 53.436,-117.05c0,0 17.812,-41.561 17.812,-43.682c0,-2.12 -0.425,-4.665 -0.425,-4.665Z" style="fill:#255d23;"/><path id="path55671" serif:id="path5567" d="M214.501,571.042c0,-5.937 -8.058,-4.665 -8.058,-2.12c0,2.544 -25.022,37.32 -31.383,44.53c-6.362,7.209 -47.075,53.86 -47.075,53.86l-45.802,45.378l-1.272,37.744l56.404,-69.975l47.075,-63.19l30.111,-46.227Z" style="fill:#255d23;"/><path id="path55691" serif:id="path5569" d="M200.506,570.618c-13.147,14.419 -66.583,64.038 -66.583,64.038l-53.436,46.227l0.424,-25.87l33.927,-22.901l43.682,-31.383l32.655,-26.718l4.241,-5.938l5.09,2.545Z" style="fill:#255d23;"/><path id="path55711" serif:id="path5571" d="M186.086,570.618l-49.619,35.2l-57.677,39.017l2.969,-19.509l67.855,-37.744l29.687,-17.812l6.785,0.848Z" style="fill:#255d23;"/><path id="path55731" serif:id="path5573" d="M167.426,569.77l-86.091,48.347l2.544,-10.179l73.793,-38.592l9.754,0.424Z" style="fill:#255d23;"/><path id="path55751" serif:id="path5575" d="M144.101,569.77l-72.52,36.472l11.026,-13.995l55.132,-23.749l6.362,1.272Z" style="fill:#255d23;"/><path id="path55771" serif:id="path5577" d="M121.142,570.56l-38.535,14.901l0.848,-6.361l33.022,-9.692l4.665,1.152Z" style="fill:#255d23;"/><path id="path55801" serif:id="path5580" d="M245.102,570.801c7.272,32.24 8.058,98.814 8.058,108.993c0,10.178 -2.12,103.903 -2.12,113.233c0,9.33 -1.273,15.267 -1.273,15.267l-39.441,4.241c0,0 15.58,-88.697 13.996,-107.72c-0.99,-11.887 3.392,-44.954 3.392,-62.342c0,-17.388 6.237,-51.619 6.237,-54.164c0,-2.544 0.549,-14.963 2.669,-17.932c2.121,-2.969 8.482,0.424 8.482,0.424Z" style="fill:#296727;"/><path id="path55821" serif:id="path5582" d="M220.929,572.073c2.544,-4.241 8.482,-2.544 8.482,-2.544c0,0 -0.848,6.785 -0.848,9.33c0,2.544 -14.844,61.494 -22.902,86.939c-8.057,25.446 -34.351,100.087 -39.016,109.841c-4.665,9.754 -15.268,34.776 -15.268,34.776c0,0 -38.168,8.482 -36.896,0.848c1.272,-7.634 27.99,-58.949 35.624,-73.793c7.634,-14.843 53.436,-117.05 53.436,-117.05c0,0 17.812,-41.561 17.812,-43.682c0,-2.12 -0.424,-4.665 -0.424,-4.665Z" style="fill:#296727;"/><path id="path55841" serif:id="path5584" d="M217.389,571.391c0,-5.937 -7.911,-4.407 -7.911,-1.862c0,2.544 -25.021,37.32 -31.383,44.53c-6.361,7.209 -47.074,53.86 -47.074,53.86l-45.803,45.378l-1.272,37.744l56.405,-69.975l47.074,-63.19l29.964,-46.485Z" style="fill:#296727;"/><path id="path55861" serif:id="path5586" d="M203.541,571.225c-13.147,14.419 -66.583,64.039 -66.583,64.039l-53.436,46.226l0.424,-25.87l33.928,-22.901l43.682,-31.383l32.655,-26.718l4.241,-5.937l5.089,2.544Z" style="fill:#296727;"/><path id="path55881" serif:id="path5588" d="M189.122,571.225l-49.619,35.2l-57.677,39.017l2.968,-19.509l67.855,-37.744l29.687,-17.812l6.786,0.848Z" style="fill:#296727;"/><path id="path55901" serif:id="path5590" d="M170.461,570.377l-86.091,48.347l2.545,-10.178l73.792,-38.593l9.754,0.424Z" style="fill:#296727;"/><path id="path55921" serif:id="path5592" d="M147.136,570.377l-72.52,36.472l11.026,-13.995l55.133,-23.749l6.361,1.272Z" style="fill:#296727;"/><path id="path55941" serif:id="path5594" d="M124.177,571.167l-38.535,14.901l0.849,-6.361l33.021,-9.692l4.665,1.152Z" style="fill:#296727;"/><rect id="rect41661" serif:id="rect4166" x="90.918" y="120.86" width="766.667" height="450" style="fill:#b8cad8;fill-opacity:0.988235;"/><rect id="rect41701" serif:id="rect4170" x="257.585" y="570.86" width="250" height="233.333" style="fill:#85634a;"/><path id="path68431" serif:id="path6843" d="M437.552,712.4c0,-4.417 -0.196,-4.729 -3.931,-6.24c-3.36,-1.359 -4.873,-1.411 -10.421,-0.355c-5.069,0.964 -7.326,0.969 -10.307,0.023c-2.557,-0.813 -5.778,-0.944 -9.758,-0.398c-3.267,0.448 -6.412,0.836 -6.989,0.863c-2.471,0.113 -0.283,-3.921 7.204,-13.284c4.398,-5.498 7.996,-10.491 7.996,-11.095c0,-0.604 -0.702,-1.358 -1.561,-1.675c-2.128,-0.786 -0.751,-4.089 5.825,-13.968c5.393,-8.103 6.084,-9.898 3.808,-9.898c-0.75,0 -1.904,-0.52 -2.564,-1.156c-1.323,-1.275 0.255,-4.853 6.668,-15.127c4.054,-6.495 4.236,-7.557 1.751,-10.201c-1.703,-1.812 -1.669,-2.142 0.639,-6.332c1.339,-2.431 5.623,-9.451 9.52,-15.6l7.085,-11.179l7.384,11.88c4.061,6.534 8.216,13.573 9.232,15.643c1.782,3.631 1.777,3.838 -0.15,5.889c-1.972,2.098 -1.96,2.19 0.984,7.34c9.903,17.324 10.373,18.843 5.826,18.843c-1.119,0 -2.035,0.373 -2.035,0.829c0,0.456 2.831,5.08 6.29,10.275c6.631,9.959 7.303,11.802 4.657,12.78c-2.276,0.841 -1.543,2.168 7.393,13.395c8.217,10.323 9.734,13.86 5.508,12.847c-6.897,-1.655 -11.7,-1.858 -15.485,-0.655c-3.296,1.047 -5.269,1.053 -10.282,0.03c-7.558,-1.545 -13.735,-0.014 -13.908,3.447c-0.375,7.51 -0.072,7.094 -5.4,7.424l-4.979,0.307l0,-4.649l0,-0.003Z" style="fill:#365a2b;fill-rule:nonzero;"/><rect id="rect41761" serif:id="rect4176" x="507.585" y="570.86" width="150" height="233.333" style="fill:#538146;"/><rect id="rect41781" serif:id="rect4178" x="657.585" y="570.86" width="200" height="233.333" style="fill:#b3b3b3;"/><path id="path53801" serif:id="path5380" d="M308.052,774.947c0,-4.933 -0.211,-8.969 -0.469,-8.969c-0.258,0 -2.389,1.31 -4.734,2.912c-2.346,1.602 -5.32,3.216 -6.611,3.588l-2.346,0.676l2.275,-3.078c3.038,-4.107 1.973,-4.786 -2.791,-1.779c-4.134,2.61 -12.185,5.653 -14.953,5.653c-1.242,0 -0.875,-0.809 1.468,-3.239c1.719,-1.781 3.606,-4.514 4.194,-6.074l1.069,-2.836l-4.994,0.594c-2.747,0.326 -7.349,0.866 -10.227,1.199l-5.232,0.605l3.987,-3.648l3.986,-3.648l-4.629,0.596c-2.546,0.328 -5.829,0.296 -7.296,-0.073c-2.568,-0.644 -2.457,-0.786 2.954,-3.782c6.256,-3.464 7.204,-4.942 3.49,-5.439c-3.245,-0.435 -5.093,-2.158 -2.314,-2.158c3.871,0 9.54,-3.114 14.903,-8.186c2.942,-2.782 5.349,-5.406 5.349,-5.83c0,-0.425 -1.595,-0.332 -3.543,0.206c-1.949,0.538 -4.528,0.806 -5.731,0.596c-2.031,-0.355 -1.982,-0.468 0.684,-1.582c4.3,-1.796 8.253,-4.852 10.674,-8.254l2.164,-3.039l-2.871,0.195c-1.58,0.107 -4.217,0.129 -5.862,0.05l-2.989,-0.145l3.488,-1.503c3.343,-1.44 13.951,-10.991 13.951,-12.561c0,-0.416 -1.457,-0.485 -3.238,-0.153l-3.239,0.604l3.386,-2.373c1.862,-1.305 4.047,-3.381 4.855,-4.615c1.396,-2.13 1.338,-2.242 -1.165,-2.242c-2.503,0 -2.358,-0.277 2.868,-5.503c6.323,-6.323 6.89,-7.979 2.424,-7.086c-3.039,0.608 -3.017,0.56 1.744,-3.822c4.02,-3.699 4.471,-4.444 2.712,-4.477c-1.948,-0.037 -1.867,-0.299 1.06,-3.402c1.744,-1.849 3.866,-4.797 4.715,-6.549l1.543,-3.187l2.627,4.483c1.446,2.466 3.81,5.413 5.254,6.549l2.627,2.066l-2.377,0.024c-2.172,0.023 -1.979,0.402 2.25,4.438c4.463,4.259 4.525,4.395 1.744,3.839c-4.3,-0.86 -3.629,1.049 2.534,7.211c5.061,5.062 5.249,5.416 2.868,5.416c-2.414,0 -2.471,0.119 -1.079,2.243c0.808,1.233 2.993,3.31 4.855,4.614l3.386,2.373l-3.239,-0.604c-1.781,-0.332 -3.239,-0.354 -3.239,-0.048c0,1.958 7.966,9.675 12.129,11.75l4.994,2.489l-5.638,0.301l-5.638,0.302l3.531,4.118c1.943,2.265 5.336,4.84 7.541,5.722c2.205,0.882 4.009,1.894 4.009,2.248c0,0.354 -2.578,0.34 -5.73,-0.03l-5.73,-0.674l4.983,5.136c5.197,5.357 11.231,8.833 15.396,8.87c3.053,0.027 1.551,1.712 -1.943,2.18c-3.729,0.499 -2.761,1.978 3.601,5.501c5.524,3.058 5.634,3.198 3.046,3.848c-1.477,0.371 -4.811,0.391 -7.407,0.045l-4.721,-0.63l3.986,3.615l3.987,3.615l-5.232,-0.605c-2.878,-0.333 -7.475,-0.872 -10.215,-1.197c-2.741,-0.326 -4.983,-0.296 -4.983,0.065c0,1.453 2.402,5.192 5.352,8.33l3.119,3.318l-3.986,-0.64c-2.193,-0.352 -7.014,-2.14 -10.713,-3.974c-3.7,-1.834 -6.727,-2.988 -6.727,-2.564c0,0.424 0.972,2.006 2.16,3.517l2.16,2.745l-2.409,-0.695c-1.325,-0.383 -4.329,-2.007 -6.674,-3.608c-2.345,-1.602 -4.476,-2.913 -4.734,-2.913c-0.258,0 -0.469,4.036 -0.469,8.969l0,8.969l-4.983,0l-4.982,0l0,-8.969l0,0Z" style="fill:#335529;fill-rule:nonzero;"/><path id="path54581" serif:id="path5458" d="M441.136,774.578c0,-3.648 -0.419,-6.627 -0.932,-6.62c-0.513,0.01 -4.009,0.748 -7.769,1.645c-3.76,0.898 -6.996,1.638 -7.191,1.645c-0.195,0.01 0.224,-0.949 0.932,-2.125c1.825,-3.032 1.605,-3.738 -0.888,-2.853c-1.197,0.424 -6.549,2.218 -11.894,3.987l-9.718,3.215l2.757,-3.443l2.757,-3.443l-2.983,0.795c-1.641,0.437 -4.29,1.529 -5.888,2.426c-1.598,0.897 -3.137,1.425 -3.42,1.173c-0.283,-0.252 1.991,-3.898 5.054,-8.102c3.062,-4.205 5.58,-8.031 5.595,-8.502c0.013,-0.472 -1.792,-0.02 -4.014,1c-2.983,1.371 -3.683,1.451 -2.677,0.305c0.75,-0.854 5.364,-6.106 10.255,-11.67c4.891,-5.565 8.893,-10.389 8.893,-10.72c0,-0.332 -1.707,-0.074 -3.793,0.572c-2.086,0.647 -4.018,0.975 -4.294,0.73c-0.277,-0.246 2.549,-3.851 6.278,-8.013c3.73,-4.162 6.781,-7.929 6.781,-8.371c0,-0.443 -1.43,-0.562 -3.177,-0.265c-3.039,0.516 -2.874,0.096 3.791,-9.679c3.832,-5.62 6.696,-10.46 6.365,-10.755c-0.332,-0.294 -1.883,0.261 -3.446,1.235c-4.692,2.922 -5.095,2.033 -1.328,-2.927c4.155,-5.472 12.711,-19.071 12.711,-20.204c0,-0.427 -1.447,0.067 -3.215,1.097c-1.769,1.031 -3.389,1.71 -3.601,1.509c-0.212,-0.201 2.526,-5.513 6.085,-11.805l6.472,-11.44l6.284,11.44c3.457,6.292 6.129,11.605 5.939,11.805c-0.19,0.201 -1.792,-0.478 -3.561,-1.509c-1.768,-1.03 -3.215,-1.59 -3.215,-1.244c0,0.718 10.762,17.423 14.18,22.009c2.595,3.483 1.958,3.803 -2.454,1.232c-4.754,-2.77 -4.818,-1.219 -0.217,5.28c2.307,3.258 5.513,7.864 7.125,10.235l2.93,4.311l-3.324,-0.565c-1.828,-0.311 -3.313,-0.261 -3.3,0.11c0.01,0.372 3.132,4.08 6.929,8.24c3.797,4.16 6.612,7.824 6.254,8.142c-0.357,0.318 -2.356,0.049 -4.442,-0.598c-2.086,-0.646 -3.793,-0.948 -3.793,-0.67c0,0.279 4.475,5.501 9.944,11.606c5.47,6.105 9.945,11.337 9.945,11.625c0,0.288 -1.678,-0.247 -3.729,-1.191c-2.051,-0.943 -3.729,-1.458 -3.729,-1.145c0,0.313 2.517,4.062 5.593,8.33c3.077,4.269 5.594,8.013 5.594,8.321c0,0.308 -2.797,-0.701 -6.215,-2.241c-6.745,-3.039 -7.724,-2.676 -3.517,1.306c1.484,1.405 2.463,2.742 2.175,2.971c-0.288,0.229 -5.529,-1.245 -11.648,-3.275c-6.119,-2.031 -11.373,-3.472 -11.675,-3.203c-0.303,0.269 0.168,1.26 1.047,2.201c2.418,2.591 1.105,2.843 -5.539,1.065c-9.32,-2.495 -9.378,-2.464 -9.378,5.015l0,6.632l-4.35,0l-4.351,0l0,-6.632l0,0Z" style="fill:#2d4c24;fill-rule:nonzero;"/><path id="rect54951" serif:id="rect5495" d="M713.523,663.499c-33.425,-0.52 -50.764,24.216 -38.88,55.462l26.133,68.704c2.184,5.742 5.208,11.292 8.88,16.53l31.582,0l-31.354,-79.961c-7.401,-18.873 2.959,-33.821 23.229,-33.515l124.473,1.881l0,-26.81c-0.366,-0.01 -0.735,-0.059 -1.1,-0.065l-142.963,-2.226l0,0Z" style="fill:#737373;fill-rule:nonzero;"/><path id="path55051" serif:id="path5505" d="M760.465,716.671c0,-2.285 -0.098,-2.446 -1.958,-3.228c-1.674,-0.703 -2.428,-0.729 -5.192,-0.184c-2.525,0.499 -3.649,0.502 -5.134,0.014c-1.274,-0.421 -2.879,-0.489 -4.861,-0.206c-1.628,0.232 -3.195,0.433 -3.482,0.446c-1.231,0.059 -0.141,-2.028 3.589,-6.871c2.19,-2.845 3.983,-5.428 3.983,-5.74c0,-0.313 -0.35,-0.702 -0.778,-0.867c-1.06,-0.406 -0.374,-2.115 2.902,-7.225c2.687,-4.192 3.031,-5.121 1.897,-5.121c-0.374,0 -0.948,-0.269 -1.277,-0.598c-0.66,-0.659 0.126,-2.511 3.321,-7.825c2.02,-3.36 2.111,-3.909 0.873,-5.277c-0.848,-0.938 -0.832,-1.108 0.318,-3.276c0.667,-1.258 2.802,-4.889 4.743,-8.07l3.529,-5.783l3.679,6.146c2.023,3.38 4.092,7.021 4.599,8.092c0.888,1.879 0.885,1.986 -0.075,3.046c-0.983,1.086 -0.977,1.133 0.49,3.798c4.933,8.962 5.167,9.747 2.902,9.747c-0.557,0 -1.013,0.193 -1.013,0.429c0,0.236 1.41,2.628 3.133,5.316c3.303,5.151 3.638,6.105 2.32,6.611c-1.134,0.435 -0.769,1.121 3.683,6.929c4.093,5.34 4.849,7.17 2.744,6.646c-3.436,-0.856 -5.829,-0.961 -7.714,-0.339c-1.642,0.542 -2.625,0.545 -5.123,0.017c-3.765,-0.799 -6.842,-0.007 -6.928,1.783c-0.186,3.885 -0.036,3.67 -2.69,3.84l-2.48,0.159l0,-2.405l0,-0.004Z" style="fill:#335529;fill-rule:nonzero;"/><path id="path55071" serif:id="path5507" d="M820.462,716.671c0,-2.285 -0.098,-2.446 -1.959,-3.228c-1.673,-0.703 -2.427,-0.729 -5.191,-0.184c-2.525,0.499 -3.649,0.502 -5.135,0.014c-1.273,-0.421 -2.878,-0.489 -4.86,-0.206c-1.628,0.232 -3.195,0.433 -3.482,0.446c-1.231,0.059 -0.141,-2.028 3.589,-6.871c2.19,-2.845 3.983,-5.428 3.983,-5.74c0,-0.313 -0.35,-0.702 -0.778,-0.867c-1.06,-0.406 -0.374,-2.115 2.902,-7.225c2.687,-4.192 3.031,-5.121 1.897,-5.121c-0.374,0 -0.948,-0.269 -1.278,-0.598c-0.659,-0.659 0.127,-2.511 3.322,-7.825c2.02,-3.36 2.111,-3.909 0.873,-5.277c-0.849,-0.938 -0.832,-1.108 0.318,-3.276c0.667,-1.258 2.802,-4.889 4.743,-8.07l3.529,-5.783l3.679,6.146c2.023,3.38 4.092,7.021 4.598,8.092c0.888,1.879 0.886,1.986 -0.074,3.046c-0.983,1.086 -0.977,1.133 0.49,3.798c4.933,8.962 5.167,9.747 2.902,9.747c-0.557,0 -1.013,0.193 -1.013,0.429c0,0.236 1.41,2.628 3.133,5.316c3.303,5.151 3.638,6.105 2.32,6.611c-1.134,0.435 -0.769,1.121 3.683,6.929c4.093,5.34 4.849,7.17 2.744,6.646c-3.436,-0.856 -5.829,-0.961 -7.715,-0.339c-1.641,0.542 -2.624,0.545 -5.122,0.017c-3.765,-0.799 -6.842,-0.007 -6.928,1.783c-0.186,3.885 -0.036,3.67 -2.69,3.84l-2.48,0.159l0,-2.405l0,-0.004Z" style="fill:#335529;fill-rule:nonzero;"/><path id="path56221" serif:id="path5622" d="M111.616,570.87c0,0 3.831,-1.559 5.678,-1.762c1.687,-0.186 2.913,-0.135 2.913,-0.135l-4.096,2.043l-4.495,-0.146Z" style="fill:#255d23;"/><path id="path56201" serif:id="path5620" d="M115.639,571.098c0,0 3.547,-2.644 5.309,-2.057c1.763,0.588 3.135,2.112 3.135,2.112l-5.68,0.238l-2.764,-0.293Z" style="fill:#296727;"/><path id="path56301" serif:id="path5630" d="M132.233,570.895c0,0 3.831,-1.559 5.677,-1.762c1.688,-0.185 2.914,-0.134 2.914,-0.134l-4.096,2.042l-4.495,-0.146Z" style="fill:#255d23;"/><path id="path56321" serif:id="path5632" d="M136.256,571.123c0,0 3.547,-2.644 5.309,-2.056c1.762,0.587 4.405,1.798 4.405,1.798l-6.95,0.551l-2.764,-0.293Z" style="fill:#296727;"/><path id="path56341" serif:id="path5634" d="M154.772,570.895c0,0 3.831,-1.559 5.677,-1.762c1.688,-0.185 2.914,-0.134 2.914,-0.134l-4.096,2.042l-4.495,-0.146Z" style="fill:#255d23;"/><path id="path56361" serif:id="path5636" d="M158.795,571.123c0,0 3.547,-2.644 5.309,-2.056c2.352,-0.113 5.547,1.798 5.547,1.798l-8.092,0.551l-2.764,-0.293Z" style="fill:#296727;"/><path id="path56381" serif:id="path5638" d="M177.348,570.932c0,0 3.831,-1.559 5.677,-1.762c1.688,-0.185 2.914,-0.134 2.914,-0.134l-4.096,2.042l-4.495,-0.146Z" style="fill:#255d23;"/><path id="path56401" serif:id="path5640" d="M181.371,571.16c0,0 3.547,-2.644 5.309,-2.057c2.351,-0.112 2.453,2.204 2.453,2.204l-4.998,0.146l-2.764,-0.293Z" style="fill:#296727;"/><path id="path56421" serif:id="path5642" d="M193.331,571.006c0,0 3.021,-1.743 4.868,-1.946c1.687,-0.186 2.913,-0.135 2.913,-0.135l-4.096,2.042l-3.685,0.039Z" style="fill:#255d23;"/><path id="path56441" serif:id="path5644" d="M196.544,571.05c0,0 2.774,-2.718 4.536,-2.131c2.351,-0.112 2.49,2.315 2.49,2.315l-4.262,0.108l-2.764,-0.292Z" style="fill:#296727;"/><path id="path56461" serif:id="path5646" d="M205.521,570.969c0,0 3.022,-1.743 4.868,-1.946c1.688,-0.186 2.913,-0.135 2.913,-0.135l-4.096,2.042l-3.685,0.039Z" style="fill:#255d23;"/><path id="path56481" serif:id="path5648" d="M208.734,571.013c0,0 3.548,-2.792 5.31,-2.204c2.351,-0.113 3.189,2.13 3.189,2.13l-5.734,0.367l-2.765,-0.293Z" style="fill:#296727;"/><path id="path56501" serif:id="path5650" d="M218.338,570.932c0,0 3.021,-1.743 4.867,-1.946c1.688,-0.186 2.914,-0.135 2.914,-0.135l-4.096,2.042l-3.685,0.039Z" style="fill:#255d23;"/><path id="path56521" serif:id="path5652" d="M221.551,570.976c0,0 2.258,-2.681 4.02,-2.094c2.351,-0.112 3.668,2.02 3.668,2.02l-4.924,0.367l-2.764,-0.293Z" style="fill:#296727;"/><path id="path56541" serif:id="path5654" d="M232.885,570.932c0,0 3.021,-1.743 4.867,-1.946c1.688,-0.186 2.914,-0.135 2.914,-0.135l-4.096,2.042l-3.685,0.039Z" style="fill:#255d23;"/><path id="path56561" serif:id="path5656" d="M236.098,570.976c0,0 2.258,-2.681 4.02,-2.094c2.351,-0.112 5.031,1.983 5.031,1.983l-6.287,0.404l-2.764,-0.293Z" style="fill:#296727;"/><path id="path68141" serif:id="path6814" d="M554.982,786.795c2.784,-3.269 3.026,-4.6 3.026,-4.6l-1.574,0.726l2.058,-4.6l-4.115,2.784l2.057,-6.415l-4.478,3.389l2.058,-5.931c0,0 -2.058,1.09 -3.269,2.3c-1.21,1.21 -2.784,2.663 -2.784,2.663c0,0 0.121,-2.784 0.606,-3.873c0.484,-1.09 1.452,-3.753 1.452,-3.753c0,0 -3.268,1.937 -4.236,3.268c-0.969,1.332 -2.905,3.632 -2.905,3.632c0,0 -0.606,-3.147 -0.606,-4.6c0,-1.452 0.484,-4.115 0.484,-4.115c0,0 -2.784,3.389 -3.752,5.204c-0.968,1.816 -1.695,3.753 -1.695,3.753c0,0 -1.089,-1.816 -1.331,-3.268c-0.242,-1.453 -0.484,-5.326 -0.484,-5.326c0,0 -2.058,2.542 -2.542,4.357c-0.484,1.816 -1.332,4.479 -1.332,4.479l-4.357,-4.6l1.331,7.626l-4.478,-4.963c0,0 0,2.058 0.484,3.874c0.484,1.815 1.815,3.51 1.815,3.51l-3.389,-0.968c0,0 0.969,3.026 2.179,3.994c1.21,0.968 1.574,1.21 1.574,1.21l28.203,0.243Z" style="fill:#44693a;"/><path id="path68161" serif:id="path6816" d="M606.538,753.246c-2.784,-3.268 -3.026,-4.6 -3.026,-4.6l1.573,0.726l-2.058,-4.599l4.116,2.784l-2.058,-6.416l4.479,3.39l-2.058,-5.932c0,0 2.058,1.09 3.268,2.3c1.211,1.211 2.784,2.663 2.784,2.663c0,0 -0.121,-2.784 -0.605,-3.873c-0.484,-1.09 -1.453,-3.753 -1.453,-3.753c0,0 3.269,1.937 4.237,3.269c0.968,1.331 2.905,3.631 2.905,3.631c0,0 0.605,-3.147 0.605,-4.6c0,-1.452 -0.484,-4.115 -0.484,-4.115c0,0 2.784,3.389 3.753,5.205c0.968,1.815 1.694,3.752 1.694,3.752c0,0 1.09,-1.816 1.332,-3.268c0.242,-1.453 0.484,-5.326 0.484,-5.326c0,0 2.058,2.542 2.542,4.357c0.484,1.816 1.331,4.479 1.331,4.479l4.358,-4.6l-1.332,7.626l4.479,-4.963c0,0 0,2.058 -0.484,3.874c-0.484,1.815 -1.816,3.51 -1.816,3.51l3.389,-0.968c0,0 -0.968,3.026 -2.178,3.994c-1.211,0.969 -1.574,1.211 -1.574,1.211l-28.203,0.242Z" style="fill:#44693a;"/><path id="path68311" serif:id="path6831" d="M559.6,686.483c-1.695,-1.99 -1.843,-2.801 -1.843,-2.801l0.959,0.442l-1.254,-2.801l2.507,1.696l-1.253,-3.907l2.727,2.064l-1.253,-3.612c0,0 1.253,0.663 1.99,1.4c0.737,0.737 1.696,1.622 1.696,1.622c0,0 -0.074,-1.695 -0.369,-2.359c-0.295,-0.663 -0.885,-2.285 -0.885,-2.285c0,0 1.991,1.179 2.581,1.99c0.589,0.811 1.769,2.212 1.769,2.212c0,0 0.368,-1.917 0.368,-2.801c0,-0.885 -0.295,-2.507 -0.295,-2.507c0,0 1.696,2.064 2.285,3.17c0.59,1.106 1.032,2.285 1.032,2.285c0,0 0.664,-1.106 0.811,-1.99c0.148,-0.885 0.295,-3.244 0.295,-3.244c0,0 1.253,1.548 1.548,2.654c0.295,1.106 0.811,2.728 0.811,2.728l2.654,-2.802l-0.811,4.644l2.727,-3.022c0,0 0,1.253 -0.295,2.359c-0.295,1.106 -1.105,2.138 -1.105,2.138l2.064,-0.59c0,0 -0.59,1.843 -1.327,2.433c-0.737,0.589 -0.958,0.737 -0.958,0.737l-17.176,0.147Z" style="fill:#44693a;"/><path id="path68331" serif:id="path6833" d="M550.971,671.427c1.695,-1.99 1.843,-2.801 1.843,-2.801l-0.959,0.442l1.254,-2.801l-2.507,1.695l1.253,-3.907l-2.727,2.064l1.253,-3.612c0,0 -1.253,0.664 -1.99,1.401c-0.737,0.737 -1.696,1.622 -1.696,1.622c0,0 0.074,-1.696 0.369,-2.359c0.295,-0.664 0.884,-2.285 0.884,-2.285c0,0 -1.99,1.179 -2.58,1.99c-0.589,0.811 -1.769,2.211 -1.769,2.211c0,0 -0.368,-1.916 -0.368,-2.801c0,-0.884 0.295,-2.506 0.295,-2.506c0,0 -1.696,2.064 -2.285,3.17c-0.59,1.105 -1.032,2.285 -1.032,2.285c0,0 -0.664,-1.106 -0.811,-1.99c-0.148,-0.885 -0.295,-3.244 -0.295,-3.244c0,0 -1.253,1.548 -1.548,2.654c-0.295,1.106 -0.811,2.727 -0.811,2.727l-2.654,-2.801l0.811,4.644l-2.727,-3.022c0,0 0,1.253 0.295,2.359c0.295,1.105 1.105,2.138 1.105,2.138l-2.064,-0.59c0,0 0.59,1.843 1.327,2.432c0.737,0.59 0.958,0.738 0.958,0.738l17.176,0.147Z" style="fill:#44693a;"/><path id="path68351" serif:id="path6835" d="M562.712,606.844c1.234,-1.449 1.341,-2.039 1.341,-2.039l-0.697,0.322l0.912,-2.039l-1.824,1.234l0.912,-2.844l-1.985,1.503l0.912,-2.629c0,0 -0.912,0.483 -1.449,1.019c-0.537,0.537 -1.234,1.18 -1.234,1.18c0,0 0.054,-1.234 0.268,-1.716c0.215,-0.483 0.644,-1.664 0.644,-1.664c0,0 -1.448,0.859 -1.878,1.449c-0.429,0.59 -1.287,1.61 -1.287,1.61c0,0 -0.269,-1.395 -0.269,-2.039c0,-0.644 0.215,-1.824 0.215,-1.824c0,0 -1.234,1.502 -1.663,2.307c-0.43,0.804 -0.751,1.663 -0.751,1.663c0,0 -0.483,-0.805 -0.591,-1.449c-0.107,-0.644 -0.214,-2.361 -0.214,-2.361c0,0 -0.912,1.127 -1.127,1.932c-0.215,0.805 -0.59,1.985 -0.59,1.985l-1.932,-2.039l0.59,3.38l-1.985,-2.199c0,0 0,0.912 0.215,1.717c0.215,0.804 0.805,1.556 0.805,1.556l-1.502,-0.43c0,0 0.429,1.342 0.965,1.771c0.537,0.429 0.698,0.536 0.698,0.536l12.501,0.108Z" style="fill:#44693a;"/><path id="path68371" serif:id="path6837" d="M635.021,599.514c1.234,-1.449 1.342,-2.039 1.342,-2.039l-0.698,0.322l0.912,-2.039l-1.824,1.234l0.912,-2.844l-1.985,1.503l0.912,-2.629c0,0 -0.912,0.483 -1.448,1.019c-0.537,0.537 -1.234,1.18 -1.234,1.18c0,0 0.053,-1.234 0.268,-1.716c0.215,-0.483 0.644,-1.664 0.644,-1.664c0,0 -1.449,0.859 -1.878,1.449c-0.429,0.59 -1.288,1.61 -1.288,1.61c0,0 -0.268,-1.395 -0.268,-2.039c0,-0.644 0.214,-1.824 0.214,-1.824c0,0 -1.234,1.502 -1.663,2.307c-0.429,0.804 -0.751,1.663 -0.751,1.663c0,0 -0.483,-0.805 -0.59,-1.449c-0.107,-0.644 -0.215,-2.361 -0.215,-2.361c0,0 -0.912,1.127 -1.126,1.932c-0.215,0.805 -0.591,1.985 -0.591,1.985l-1.931,-2.039l0.59,3.38l-1.985,-2.199c0,0 0,0.912 0.215,1.717c0.214,0.804 0.804,1.556 0.804,1.556l-1.502,-0.43c0,0 0.429,1.342 0.966,1.771c0.536,0.429 0.697,0.536 0.697,0.536l12.501,0.108Z" style="fill:#44693a;"/><path id="path68391" serif:id="path6839" d="M590.121,613.381c-1.234,-1.448 -1.341,-2.039 -1.341,-2.039l0.698,0.322l-0.913,-2.038l1.825,1.234l-0.912,-2.844l1.985,1.502l-0.912,-2.629c0,0 0.912,0.483 1.448,1.02c0.537,0.536 1.234,1.18 1.234,1.18c0,0 -0.053,-1.234 -0.268,-1.717c-0.215,-0.483 -0.644,-1.663 -0.644,-1.663c0,0 1.449,0.858 1.878,1.449c0.429,0.59 1.288,1.609 1.288,1.609c0,0 0.268,-1.395 0.268,-2.039c0,-0.644 -0.215,-1.824 -0.215,-1.824c0,0 1.234,1.502 1.664,2.307c0.429,0.805 0.751,1.663 0.751,1.663c0,0 0.483,-0.804 0.59,-1.448c0.107,-0.644 0.215,-2.361 0.215,-2.361c0,0 0.912,1.127 1.126,1.932c0.215,0.804 0.59,1.985 0.59,1.985l1.932,-2.039l-0.59,3.38l1.985,-2.2c0,0 0,0.912 -0.215,1.717c-0.214,0.805 -0.805,1.556 -0.805,1.556l1.503,-0.429c0,0 -0.43,1.341 -0.966,1.77c-0.537,0.43 -0.698,0.537 -0.698,0.537l-12.501,0.107Z" style="fill:#44693a;"/><path id="rect54841" serif:id="rect5484" d="M682.392,516.083l0,129.411l155.076,0l0,-77.647l-77.866,0l0,-51.764l-77.21,0Z" style="fill:#f3f0d9;fill-rule:nonzero;"/><rect id="rect55111" serif:id="rect5511" x="763.061" y="747.715" width="115.599" height="20.874" style="fill:#737373;"/><ellipse id="ellipse55151" serif:id="ellipse5515" cx="823.424" cy="748.163" rx="51.357" ry="12.529" style="fill:#74a1c2;fill-opacity:0.988235;"/><ellipse id="ellipse55171" serif:id="ellipse5517" cx="823.424" cy="748.163" rx="5.676" ry="1.385" style="fill:#797979;"/><path id="path55191" serif:id="path5519" d="M831.31,722.301c-0.815,-0.057 -1.588,0.041 -2.253,0.293c-3.908,1.482 -5.67,2.011 -6.009,9.368c-0.844,-7.615 -3.008,-8.132 -6.536,-9.257c-2.708,-0.864 -5.808,0.351 -7.761,4.257c-1.953,3.907 -0.976,11.231 -0.976,11.231c4.517,-0.904 2.441,-8.789 7.812,-7.324c5.371,1.464 7.813,16.113 7.813,16.113c0,0 2.441,-14.649 7.812,-16.113c5.371,-1.465 3.296,6.42 7.813,7.324c0,0 0.976,-7.324 -0.977,-11.231c-1.465,-2.929 -4.294,-4.489 -6.738,-4.661Z" style="fill:#44769a;fill-opacity:0.639216;"/><path id="path54821" serif:id="path5482" d="M676.322,652.568c-2.022,-2.021 -0.848,-7.378 1.767,-8.062c2.618,-0.685 2.664,-1.817 2.664,-65.055c0,-35.397 0.374,-65.332 0.831,-66.522c3.656,-9.529 43.808,-14.256 65.22,-7.678c12.632,3.88 14.397,6.054 15.227,18.752l0.666,10.192l38.974,10.607l38.973,10.606l0,44.201c0,43.602 0.037,44.21 2.763,44.923c2.121,0.554 2.663,1.596 2.331,4.485l-0.431,3.764l-84.043,0.343c-46.224,0.188 -84.448,-0.062 -84.942,-0.556Zm128.074,-17.442l-0.394,-8.994l-12.658,0l-12.658,0l-0.394,8.994l-0.394,8.994l26.892,0l-0.394,-8.994Zm-114.515,-8.458c3.725,-1.298 4.197,-2.038 4.197,-6.583c0,-6.271 -0.837,-6.872 -6.343,-4.557c-3.659,1.538 -4.317,2.502 -4.317,6.321c0,3.742 0.818,6.282 2.022,6.282c0.135,0 2.134,-0.658 4.441,-1.463Zm27.847,-4.604c0.972,-0.299 1.666,-2.747 1.666,-5.883l0,-5.372l-7.242,0c-10.821,0 -14.077,1.636 -14.077,7.074c0,2.461 0.382,4.856 0.849,5.323c0.81,0.81 15.318,-0.07 18.804,-1.142Zm25.649,-3.76c0,-5.463 -0.262,-5.881 -4.164,-6.662c-2.29,-0.458 -6.821,-0.833 -10.069,-0.833l-5.906,0l0.819,11.326l7.328,0.782c4.031,0.43 8.378,0.88 9.66,0.999c1.899,0.177 2.332,-0.866 2.332,-5.612Zm89.02,-8.494l-0.414,-4.996l-38.64,0l-38.64,0l-0.414,4.996l-0.413,4.997l78.934,0l-0.413,-4.997Zm-142.516,-1.796c3.85,-1.342 4.197,-1.947 4.197,-7.328c0,-3.226 -0.319,-5.866 -0.709,-5.866c-0.39,0 -2.789,0.869 -5.33,1.931c-3.982,1.664 -4.621,2.554 -4.621,6.44c0,3.746 0.817,6.286 2.022,6.286c0.135,0 2.134,-0.658 4.441,-1.463Zm26.515,-4.644c2.505,-0.506 2.998,-1.477 2.998,-5.91l0,-5.304l-7.242,0c-10.821,0 -14.077,1.635 -14.077,7.073c0,2.461 0.364,4.838 0.808,5.283c0.784,0.783 11.419,0.09 17.513,-1.142Zm26.716,-4.058c0.465,-6.352 -0.89,-7.108 -12.803,-7.138l-7.071,-0.018l0.819,11.325l7.328,0.795c11.159,1.21 11.279,1.159 11.727,-4.963l0,-0.001Zm89.285,-6.823l-0.414,-4.997l-38.973,-0.353l-38.974,-0.353l0,10.699l78.774,0l-0.413,-4.996Zm-142.516,-3.129c3.85,-1.342 4.197,-1.947 4.197,-7.328c0,-3.226 -0.319,-5.866 -0.709,-5.866c-0.39,0 -2.789,0.869 -5.33,1.931c-3.982,1.664 -4.621,2.554 -4.621,6.44c0,3.746 0.817,6.286 2.022,6.286c0.135,0 2.134,-0.658 4.441,-1.463Zm26.589,-4.662c2.709,-0.551 3.024,-1.29 2.665,-6.244l-0.408,-5.619l-7.994,0.472c-9.752,0.576 -12.658,1.983 -12.658,6.128c0,6.469 1.053,7.288 8.441,6.563c3.785,-0.372 8.264,-0.957 9.954,-1.3Zm26.647,-4.231c0.391,-5.281 0.243,-5.511 -3.997,-6.196c-2.422,-0.391 -6.802,-0.874 -9.733,-1.073l-5.33,-0.363l0,11.992l7.995,0.764c10.773,1.029 10.604,1.107 11.065,-5.124Zm89.28,-5.3l-0.414,-4.996l-38.973,-0.354l-38.974,-0.353l0,10.7l78.774,0l-0.413,-4.997Zm-142.516,-4.461c3.85,-1.342 4.197,-1.947 4.197,-7.328c0,-3.226 -0.319,-5.865 -0.709,-5.865c-0.39,0 -2.789,0.868 -5.33,1.93c-3.982,1.664 -4.621,2.554 -4.621,6.44c0,3.746 0.817,6.286 2.022,6.286c0.135,0 2.134,-0.658 4.441,-1.463Zm25.255,-4.675c4.259,-0.65 4.39,-0.856 3.997,-6.261l-0.406,-5.588l-7.994,0.478c-9.765,0.585 -12.658,1.984 -12.658,6.122c0,7.393 0.996,7.7 17.061,5.249Zm27.979,-4.179c0.464,-6.245 -0.083,-6.583 -11.73,-7.25l-7.328,-0.42l-0.408,5.618c-0.45,6.204 0.003,6.509 11.067,7.448c7.786,0.661 7.958,0.551 8.399,-5.396Zm-51.369,-10.642c1.764,-0.507 2.332,-2.092 2.332,-6.511c0,-6.38 -0.837,-6.854 -6.729,-3.807c-3.151,1.629 -3.931,2.907 -3.931,6.44c0,5.144 1.057,6.599 3.928,5.407c1.137,-0.472 3.117,-1.16 4.4,-1.529Zm66.288,-3.56c0,-5.368 -0.353,-5.989 -4.151,-7.313c-5.346,-1.863 -6.509,-1.03 -6.509,4.661c0,3.97 0.632,4.923 4.331,6.531c6.187,2.689 6.329,2.602 6.329,-3.879Zm-44.897,-0.167l6.401,-0.815l-0.405,-5.57l-0.406,-5.57l-8.66,0.472c-10.199,0.556 -11.992,1.689 -11.992,7.574c0,4.565 1.351,5.723 5.945,5.095c1.494,-0.205 5.596,-0.738 9.117,-1.186Zm30.24,-4.68c0,-5.864 -0.77,-6.285 -12.658,-6.92l-6.662,-0.355l-0.406,5.588c-0.392,5.396 -0.254,5.614 3.997,6.316c6.327,1.045 13.568,1.556 14.73,1.04c0.549,-0.244 0.999,-2.795 0.999,-5.669Zm-49.299,-16.97c0,-5.787 -0.081,-5.897 -3.657,-4.999c-5.383,1.351 -7.003,3.195 -7.003,7.973c0,5.593 0.607,6.028 6.071,4.351c4.33,-1.329 4.589,-1.742 4.589,-7.325Zm63.956,2.449c0,-4.375 -0.55,-5.317 -3.917,-6.711c-5.088,-2.108 -6.743,-0.937 -6.743,4.773c0,3.98 0.621,4.91 4.318,6.464c5.5,2.313 6.342,1.712 6.342,-4.526Zm-14.899,-4.904l-0.424,-5.172l-7.995,-1.003c-4.397,-0.551 -8.744,-0.72 -9.66,-0.375c-0.947,0.358 -1.665,2.909 -1.665,5.918c0,5.82 -1.36,5.155 14.656,7.169c4.654,0.585 5.575,-0.598 5.088,-6.537Zm-28.67,5.288c4.993,-0.826 5.058,-0.914 4.663,-6.315l-0.401,-5.477l-8.66,0.456c-4.764,0.251 -9.411,1.074 -10.327,1.829c-1.755,1.446 -2.289,7.972 -0.777,9.484c1.112,1.113 8.837,1.124 15.502,0.023l0,0Z" style="fill:#4d4d4d;fill-rule:nonzero;"/><path id="path53681" serif:id="path5368" d="M444.252,660.751c0,-4.362 -0.447,-7.924 -0.992,-7.916c-0.545,0.01 -4.263,0.894 -8.262,1.968c-3.999,1.073 -7.44,1.958 -7.647,1.967c-0.208,0.01 0.238,-1.135 0.991,-2.542c1.941,-3.626 1.707,-4.47 -0.945,-3.412c-1.272,0.507 -6.964,2.653 -12.648,4.768l-10.335,3.845l2.932,-4.118l2.932,-4.117l-3.172,0.95c-1.745,0.523 -4.563,1.829 -6.262,2.902c-1.699,1.073 -3.335,1.704 -3.636,1.403c-0.302,-0.301 2.117,-4.662 5.374,-9.69c3.257,-5.027 5.934,-9.603 5.95,-10.167c0.016,-0.564 -1.905,-0.023 -4.268,1.196c-3.173,1.64 -3.917,1.736 -2.847,0.365c0.797,-1.022 5.704,-7.302 10.905,-13.956c5.202,-6.654 9.457,-12.423 9.457,-12.82c0,-0.396 -1.815,-0.088 -4.033,0.685c-2.218,0.773 -4.274,1.166 -4.567,0.872c-0.294,-0.293 2.711,-4.605 6.677,-9.582c3.966,-4.976 7.211,-9.481 7.211,-10.011c0,-0.529 -1.521,-0.672 -3.379,-0.316c-3.232,0.617 -3.057,0.115 4.031,-11.575c4.076,-6.721 7.122,-12.508 6.769,-12.861c-0.352,-0.352 -2.001,0.312 -3.664,1.477c-4.989,3.494 -5.418,2.431 -1.412,-3.501c4.419,-6.543 13.518,-22.806 13.518,-24.161c0,-0.511 -1.539,0.08 -3.42,1.312c-1.881,1.232 -3.604,2.044 -3.829,1.804c-0.226,-0.24 2.686,-6.592 6.471,-14.117l6.882,-13.681l6.684,13.681c3.675,7.525 6.517,13.878 6.315,14.117c-0.202,0.24 -1.906,-0.572 -3.787,-1.804c-1.88,-1.232 -3.419,-1.902 -3.419,-1.488c0,0.859 11.445,20.835 15.08,26.32c2.76,4.165 2.082,4.548 -2.61,1.474c-5.056,-3.313 -5.123,-1.458 -0.23,6.313c2.453,3.897 5.863,9.405 7.576,12.24l3.117,5.155l-3.535,-0.676c-1.945,-0.371 -3.524,-0.312 -3.509,0.133c0.013,0.445 3.33,4.879 7.368,9.854c4.038,4.975 7.031,9.356 6.651,9.736c-0.38,0.381 -2.506,0.059 -4.725,-0.714c-2.218,-0.774 -4.033,-1.134 -4.033,-0.802c0,0.333 4.759,6.579 10.575,13.88c5.817,7.301 10.576,13.556 10.576,13.901c0,0.345 -1.785,-0.296 -3.966,-1.424c-2.181,-1.128 -3.966,-1.744 -3.966,-1.369c0,0.375 2.677,4.857 5.949,9.962c3.272,5.104 5.948,9.581 5.948,9.95c0,0.368 -2.974,-0.838 -6.609,-2.68c-7.173,-3.635 -8.214,-3.2 -3.74,1.562c1.578,1.68 2.619,3.279 2.313,3.553c-0.306,0.274 -5.88,-1.489 -12.387,-3.917c-6.507,-2.428 -12.094,-4.152 -12.416,-3.83c-0.322,0.322 0.179,1.506 1.114,2.632c2.571,3.098 1.175,3.4 -5.89,1.273c-9.912,-2.983 -9.973,-2.946 -9.973,5.998l0,7.931l-4.627,0l-4.627,0l0,-7.931l0.001,-0.001Z" style="fill:#2d4c24;fill-rule:nonzero;"/><path id="path68411" serif:id="path6841" d="M381.063,782.136c0,-6.634 -0.679,-12.05 -1.508,-12.037c-0.829,0.013 -6.482,1.359 -12.563,2.991c-6.081,1.632 -11.313,2.978 -11.629,2.992c-0.315,0.013 0.363,-1.726 1.508,-3.865c2.951,-5.513 2.595,-6.797 -1.437,-5.189c-1.935,0.772 -10.589,4.034 -19.233,7.25l-15.715,5.847l4.459,-6.261l4.458,-6.261l-4.824,1.445c-2.653,0.795 -6.938,2.781 -9.521,4.412c-2.584,1.632 -5.072,2.592 -5.531,2.134c-0.458,-0.458 3.22,-7.089 8.172,-14.734c4.953,-7.646 9.024,-14.603 9.048,-15.46c0.023,-0.858 -2.897,-0.039 -6.49,1.818c-4.824,2.494 -5.956,2.639 -4.329,0.554c1.212,-1.553 8.674,-11.102 16.583,-21.221c7.909,-10.119 14.38,-18.891 14.38,-19.494c0,-0.603 -2.76,-0.134 -6.133,1.042c-3.373,1.176 -6.498,1.773 -6.945,1.326c-0.446,-0.446 4.123,-7.003 10.154,-14.57c6.03,-7.568 10.964,-14.418 10.964,-15.223c0,-0.805 -2.311,-1.022 -5.137,-0.482c-4.914,0.94 -4.648,0.175 6.13,-17.6c6.197,-10.22 10.829,-19.02 10.293,-19.556c-0.536,-0.537 -3.044,0.474 -5.573,2.245c-7.586,5.314 -8.238,3.697 -2.146,-5.323c6.719,-9.95 20.555,-34.679 20.555,-36.739c0,-0.777 -2.34,0.121 -5.2,1.994c-2.86,1.874 -5.48,3.109 -5.823,2.744c-0.343,-0.364 4.085,-10.024 9.841,-21.466l10.464,-20.804l10.163,20.804c5.59,11.442 9.911,21.102 9.604,21.466c-0.308,0.365 -2.899,-0.87 -5.759,-2.744c-2.86,-1.873 -5.199,-2.892 -5.199,-2.262c0,1.306 17.403,31.682 22.93,40.022c4.197,6.334 3.167,6.916 -3.968,2.241c-7.688,-5.038 -7.791,-2.217 -0.35,9.6c3.73,5.925 8.915,14.301 11.521,18.612l4.738,7.839l-5.375,-1.027c-2.956,-0.565 -5.358,-0.475 -5.336,0.201c0.02,0.676 5.064,7.418 11.204,14.983c6.141,7.565 10.692,14.228 10.114,14.806c-0.578,0.578 -3.811,0.089 -7.184,-1.087c-3.373,-1.176 -6.133,-1.724 -6.133,-1.218c0,0.506 7.236,10.003 16.081,21.105c8.844,11.101 16.081,20.614 16.081,21.138c0,0.524 -2.714,-0.45 -6.031,-2.165c-3.316,-1.715 -6.03,-2.652 -6.03,-2.082c0,0.57 4.071,7.386 9.046,15.148c4.975,7.761 9.045,14.57 9.045,15.13c0,0.56 -4.523,-1.274 -10.051,-4.075c-10.906,-5.526 -12.489,-4.865 -5.687,2.375c2.4,2.555 3.983,4.986 3.518,5.403c-0.465,0.416 -8.941,-2.264 -18.836,-5.956c-9.895,-3.692 -18.39,-6.313 -18.88,-5.824c-0.489,0.49 0.273,2.291 1.694,4.002c3.909,4.711 1.787,5.17 -8.957,1.937c-15.072,-4.536 -15.165,-4.481 -15.165,9.119l0,12.06l-7.035,0l-7.035,0l0,-12.06l0,0Z" style="fill:#3b642f;fill-rule:nonzero;"/><path id="path54521" serif:id="path5452" d="M424.513,627.465c0,-3.259 -0.139,-3.489 -2.792,-4.603c-2.388,-1.003 -3.463,-1.041 -7.404,-0.263c-3.602,0.712 -5.205,0.715 -7.323,0.017c-1.817,-0.599 -4.105,-0.696 -6.933,-0.294c-2.321,0.331 -4.556,0.618 -4.965,0.637c-1.756,0.084 -0.202,-2.893 5.118,-9.8c3.124,-4.057 5.681,-7.741 5.681,-8.186c0,-0.446 -0.499,-1.002 -1.109,-1.236c-1.512,-0.58 -0.534,-3.017 4.138,-10.305c3.832,-5.978 4.323,-7.303 2.705,-7.303c-0.532,0 -1.352,-0.384 -1.821,-0.853c-0.94,-0.94 0.181,-3.58 4.737,-11.16c2.881,-4.792 3.01,-5.575 1.245,-7.526c-1.21,-1.337 -1.187,-1.58 0.453,-4.672c0.952,-1.793 3.996,-6.973 6.764,-11.509l5.034,-8.248l5.246,8.765c2.885,4.821 5.837,10.014 6.559,11.541c1.266,2.679 1.262,2.832 -0.107,4.345c-1.401,1.548 -1.392,1.615 0.7,5.415c7.035,12.782 7.369,13.902 4.139,13.902c-0.795,0 -1.446,0.276 -1.446,0.612c0,0.337 2.011,3.748 4.469,7.581c4.711,7.347 5.188,8.707 3.308,9.429c-1.617,0.62 -1.096,1.599 5.253,9.882c5.838,7.616 6.915,10.226 3.913,9.478c-4.9,-1.221 -8.312,-1.371 -11.002,-0.483c-2.341,0.773 -3.743,0.777 -7.305,0.023c-5.369,-1.139 -9.758,-0.01 -9.88,2.544c-0.267,5.54 -0.052,5.233 -3.837,5.476l-3.538,0.227l0,-3.43l0,-0.003Z" style="fill:#405d36;fill-rule:nonzero;"/><path id="path53741" serif:id="path5374" d="M313.416,654.544c0,-5.379 -0.231,-5.759 -4.61,-7.599c-3.941,-1.655 -5.716,-1.718 -12.222,-0.432c-5.944,1.174 -8.591,1.18 -12.088,0.026c-2.998,-0.99 -6.776,-1.15 -11.443,-0.485c-3.832,0.546 -7.52,1.019 -8.196,1.051c-2.899,0.138 -0.333,-4.775 8.448,-16.177c5.157,-6.696 9.377,-12.777 9.377,-13.513c0,-0.735 -0.824,-1.653 -1.83,-2.039c-2.497,-0.958 -0.881,-4.981 6.83,-17.011c6.326,-9.868 7.136,-12.054 4.466,-12.054c-0.879,0 -2.232,-0.634 -3.007,-1.409c-1.551,-1.551 0.299,-5.91 7.82,-18.421c4.755,-7.91 4.969,-9.203 2.054,-12.424c-1.997,-2.206 -1.958,-2.608 0.75,-7.711c1.57,-2.961 6.595,-11.51 11.164,-18.998l8.309,-13.615l8.66,14.468c4.763,7.957 9.635,16.53 10.827,19.051c2.09,4.422 2.084,4.674 -0.176,7.171c-2.313,2.556 -2.299,2.667 1.154,8.94c11.614,21.098 12.165,22.948 6.833,22.948c-1.313,0 -2.387,0.454 -2.387,1.01c0,0.555 3.32,6.186 7.377,12.513c7.776,12.128 8.564,14.373 5.461,15.564c-2.669,1.024 -1.81,2.64 8.67,16.313c9.637,12.571 11.415,16.879 6.46,15.645c-8.088,-2.015 -13.721,-2.263 -18.161,-0.798c-3.865,1.276 -6.179,1.283 -12.058,0.035c-8.864,-1.881 -16.107,-0.016 -16.31,4.199c-0.44,9.146 -0.085,8.639 -6.333,9.04l-5.839,0.375l0,-5.662l0,-0.001Z" style="fill:#2d4c24;fill-rule:nonzero;"/><path d="M183.597,586.92l16.605,0l-25.547,25.547l-25.547,-25.547l16.606,0l0,-61.822l17.883,0l0,61.822Z" style="stroke:#fff;stroke-width:4.17px;"/><path d="M379.43,586.92l16.606,0l-25.547,25.547l-25.547,-25.547l16.605,0l0,-61.822l17.883,0l0,61.822Z" style="stroke:#fff;stroke-width:4.17px;"/><path d="M587.763,586.92l16.606,0l-25.547,25.547l-25.547,-25.547l16.606,0l0,-61.822l17.882,0l0,61.822Z" style="stroke:#fff;stroke-width:4.17px;"/><path d="M775.263,586.92l16.606,0l-25.547,25.547l-25.547,-25.547l16.606,0l0,-61.822l17.882,0l0,61.822Z" style="stroke:#fff;stroke-width:4.17px;"/></g></g><ellipse id="ellipse55131" serif:id="ellipse5513" cx="823.424" cy="768.163" rx="60.363" ry="14.727" style="fill:#737373;"/><ellipse id="path55091" serif:id="path5509" cx="823.424" cy="748.163" rx="60.363" ry="14.727" style="fill:#929292;"/></g></g><ellipse id="ellipse55152" serif:id="ellipse5515" cx="819.976" cy="748.586" rx="51.357" ry="12.529" style="fill:#74a1c2;fill-opacity:0.988235;"/></g></g><g><clipPath id="_clip6"><rect x="976.94" y="120.96" width="767.353" height="683.577"/></clipPath><g clip-path="url(#_clip6)"><rect id="rect41762" serif:id="rect4176" x="977.073" y="571.204" width="766.667" height="233.333" style="fill:#538146;"/><path id="path51861" serif:id="path5186" d="M1645.42,378.201c53.212,-8.883 111.175,1.1 130.989,5.503c19.813,4.403 111.158,35.41 34.123,28.619c-157.576,-13.889 -116.907,22.103 -19.814,23.116c25.842,0.27 90.901,38.758 7.706,41.828c-43.721,1.614 -229.573,-8 -169.515,-26.418c72.541,-22.246 -72.056,-25.312 31.922,-44.029c59.423,-10.697 -132.852,-9.015 -15.411,-28.619Z" style="fill:#fff;fill-opacity:0.227451;"/><rect id="rect41662" serif:id="rect4166" x="977.073" y="120.96" width="766.667" height="450" style="fill:#a6ceee;fill-opacity:0.988235;"/><path id="path43071" serif:id="path4307" d="M1106.27,256.914c-8.964,-6.555 -6.088,-26.027 4.626,-31.315c4.583,-2.262 10.645,-6.951 13.471,-10.42c8.588,-10.541 19.818,-14.811 33.289,-12.657c9.526,1.523 13.013,0.771 14.509,-3.129c3,-7.816 24.843,-15.678 37.145,-13.371c5.869,1.101 13.359,4.973 16.645,8.604c3.285,3.63 8.658,6.601 11.938,6.601c3.28,0 10.139,3.591 15.241,7.98c13.221,11.372 13.221,32.668 0,44.041c-9.108,7.834 -10.471,7.979 -75.12,7.979c-48.612,0 -67.388,-1.129 -71.744,-4.314l0,0.001Z" style="fill:#eceded;fill-rule:nonzero;"/><path id="path43091" serif:id="path4309" d="M1616.71,311.787c-2.262,-4.228 -0.735,-9.535 2.744,-9.535c1.328,0 2.932,-2.059 3.563,-4.574c1.107,-4.411 7.721,-8.268 10.1,-5.89c0.637,0.637 2.053,-1.533 3.147,-4.821c4.591,-13.796 24.025,-18.617 34.519,-8.563c3.447,3.303 6.427,4.588 9.047,3.903c6.596,-1.725 17.329,3.957 18.801,9.952c0.714,2.911 3.316,7.188 5.782,9.504c3.508,3.294 4.078,4.968 2.62,7.693c-1.621,3.028 -5.222,3.643 -27.63,4.718c-14.171,0.68 -33.638,1.236 -43.26,1.236c-15.351,0 -17.731,-0.444 -19.433,-3.624l0,0.001Z" style="fill:#eceded;fill-opacity:0.996078;fill-rule:nonzero;"/><path id="path43131" serif:id="path4313" d="M1578.72,279.918c3.62,-3.62 6.084,-8.952 6.084,-13.165c0,-8.185 -8,-17.93 -14.72,-17.93c-2.537,0 -8.517,-3.904 -13.288,-8.675c-10.548,-10.548 -24.231,-11.9 -34.966,-3.456c-4.118,3.239 -8.623,4.699 -11.878,3.848c-7.601,-1.988 -20.018,4 -24.09,11.618c-2.214,4.141 -5.592,6.579 -9.118,6.579c-12.066,0 -17.821,15.05 -8.857,23.163c3.903,3.532 11.493,4.102 54.641,4.102c49.897,0 50.134,-0.027 56.192,-6.084Z" style="fill:#bcbebf;fill-opacity:0.996078;fill-rule:nonzero;"/><path id="path43151" serif:id="path4315" d="M1034.11,236.496c-2.983,-5.575 -0.969,-12.573 3.618,-12.573c1.752,0 3.866,-2.714 4.698,-6.031c1.46,-5.817 10.181,-10.902 13.317,-7.766c0.84,0.84 2.708,-2.021 4.151,-6.358c6.053,-18.191 31.678,-24.547 45.516,-11.29c4.545,4.355 8.474,6.05 11.928,5.147c8.698,-2.275 22.851,5.216 24.791,13.122c0.942,3.839 4.373,9.478 7.625,12.531c4.625,4.344 5.377,6.551 3.454,10.144c-2.138,3.994 -6.886,4.804 -36.432,6.222c-18.686,0.896 -44.355,1.629 -57.042,1.629c-20.241,0 -23.38,-0.585 -25.624,-4.778l0,0.001Z" style="fill:#cccdce;fill-rule:nonzero;"/><path id="path43171" serif:id="path4317" d="M1133.41,324.368c3.62,-3.62 6.084,-8.952 6.084,-13.165c0,-8.185 -8.001,-17.93 -14.72,-17.93c-2.537,0 -8.517,-3.904 -13.288,-8.675c-10.548,-10.548 -24.231,-11.9 -34.966,-3.456c-4.118,3.239 -8.623,4.699 -11.878,3.848c-7.601,-1.988 -20.018,4 -24.09,11.618c-2.214,4.141 -5.592,6.579 -9.118,6.579c-12.066,0 -17.821,15.05 -8.857,23.163c3.903,3.532 11.492,4.102 54.641,4.102c49.897,0 50.134,-0.027 56.192,-6.084Z" style="fill:#dee0e0;fill-rule:nonzero;"/><path id="path43191" serif:id="path4319" d="M1405.54,244.534c3.941,-3.192 7.387,-4.083 10.808,-2.795c5.705,2.146 13.835,-0.259 17.764,-5.255c7.669,-9.754 3.883,-22.486 -8.034,-27.017c-3.574,-1.359 -5.946,-4.263 -5.946,-7.28c0,-8.77 -9.289,-15.682 -18.965,-14.112c-5.996,0.973 -10.995,-0.1 -17.011,-3.649c-10.87,-6.413 -21.116,-4.45 -29.639,5.68c-3.445,4.094 -6.264,8.473 -6.264,9.732c0,1.258 -3.84,2.288 -8.534,2.288c-9.299,0 -16.251,6.893 -16.251,16.111c0,6.73 6.728,16.111 11.556,16.111c2.111,0 7.153,2.788 11.203,6.196c7.49,6.302 17.739,7.941 24.179,3.865c2.323,-1.469 5.321,-1.024 8.607,1.278c7.061,4.946 19.672,4.397 26.527,-1.153Z" style="fill:#e5e6e6;fill-opacity:0.996078;fill-rule:nonzero;"/><path id="path43211" serif:id="path4321" d="M1570.53,267.329c-1.004,-1.005 -8.471,-1.857 -16.593,-1.894c-13.224,-0.061 -15.601,-0.891 -22.753,-7.951c-4.392,-4.335 -10.495,-10.175 -13.562,-12.977c-10.751,-9.822 -3.574,-29.88 10.692,-29.88c4.046,0 6.962,-1.915 8.494,-5.577c7.615,-18.209 28.831,-25.268 42.835,-14.252c3.466,2.727 9.541,4.957 13.499,4.957c6.773,0 18.046,7.614 18.046,12.189c0,1.145 3.399,3.489 7.553,5.21c14.949,6.192 19.273,26.421 8.408,39.334c-7.001,8.321 -18.753,11.76 -28.205,8.256c-4.135,-1.534 -8.052,-1.196 -12.392,1.069c-7.072,3.69 -13.261,4.276 -16.022,1.516Z" style="fill:#cccdce;fill-opacity:0.996078;fill-rule:nonzero;"/><path id="path51841" serif:id="path5184" d="M957.749,415.701c97.966,0 190.382,7.675 148.6,11.007c-140.022,11.168 -27.772,22.414 18.713,24.216c56.139,2.177 129.887,1.101 104.57,6.605c-25.317,5.503 -48.432,8.806 -62.742,8.806c-14.31,0 -97.095,18.827 -27.519,15.41c81.068,-3.982 182.178,32.39 66.045,22.015c-58.366,-5.214 -114.482,0.628 -139.794,1.101c-115.095,2.148 52.274,-44.693 -41.828,-36.325c-36.549,3.25 -61.949,-0.794 -61.642,-1.101l-4.403,-51.734Z" style="fill:#fff;fill-opacity:0.321569;"/><path id="use52421" serif:id="use5242" d="M1183.05,295.953c0,0 -13.431,24.013 -0.781,24.216c10.309,0.166 0.781,-24.216 0.781,-24.216Z" style="fill:#1d6faf;fill-opacity:0.976471;"/><path id="use52441" serif:id="use5244" d="M1102.02,389.756c0,0 -13.432,24.013 -0.782,24.217c10.309,0.165 0.782,-24.217 0.782,-24.217Z" style="fill:#1d6faf;fill-opacity:0.976471;"/><path id="use52461" serif:id="use5246" d="M1223.21,318.264c0,0 -13.431,24.013 -0.781,24.217c10.309,0.165 0.781,-24.217 0.781,-24.217Z" style="fill:#1d6faf;fill-opacity:0.976471;"/><path id="use52541" serif:id="use5254" d="M1571.8,415.923c0,0 -13.431,24.013 -0.781,24.216c10.309,0.166 0.781,-24.216 0.781,-24.216Z" style="fill:#1d6faf;fill-opacity:0.976471;"/><path id="use52561" serif:id="use5256" d="M1519.88,340.126c0,0 -13.432,24.013 -0.782,24.217c10.309,0.165 0.782,-24.217 0.782,-24.217Z" style="fill:#1d6faf;fill-opacity:0.976471;"/><path id="use52601" serif:id="use5260" d="M1571.61,308.114c0,0 -13.431,24.013 -0.781,24.216c10.309,0.166 0.781,-24.216 0.781,-24.216Z" style="fill:#1d6faf;fill-opacity:0.976471;"/><path id="use52641" serif:id="use5264" d="M1509.17,415.709c0,0 -13.431,24.014 -0.781,24.217c10.309,0.166 0.781,-24.217 0.781,-24.217Z" style="fill:#1d6faf;fill-opacity:0.976471;"/><path id="use52721" serif:id="use5272" d="M1236.69,266.187c0,0 -13.431,24.013 -0.781,24.217c10.309,0.165 0.781,-24.217 0.781,-24.217Z" style="fill:#1d6faf;fill-opacity:0.976471;"/><path id="use52761" serif:id="use5276" d="M1144.81,340.789c0,0 -13.432,24.014 -0.782,24.217c10.309,0.166 0.782,-24.217 0.782,-24.217Z" style="fill:#1d6faf;fill-opacity:0.976471;"/><path id="use52781" serif:id="use5278" d="M1082.18,410.22c0,0 -13.432,24.013 -0.782,24.217c10.309,0.166 0.782,-24.217 0.782,-24.217Z" style="fill:#1d6faf;fill-opacity:0.976471;"/><path id="use52801" serif:id="use5280" d="M1057.81,348.884c0,0 -13.431,24.014 -0.781,24.217c10.309,0.166 0.781,-24.217 0.781,-24.217Z" style="fill:#1d6faf;fill-opacity:0.976471;"/><path id="use52821" serif:id="use5282" d="M1146.09,474.986c0,0 -13.431,24.013 -0.781,24.217c10.309,0.166 0.781,-24.217 0.781,-24.217Z" style="fill:#1d6faf;fill-opacity:0.976471;"/><path id="use52861" serif:id="use5286" d="M1231.45,399.411c0,0 -13.431,24.013 -0.781,24.216c10.309,0.166 0.781,-24.216 0.781,-24.216Z" style="fill:#1d6faf;fill-opacity:0.976471;"/><path id="use52881" serif:id="use5288" d="M1483.38,303.694c0,0 -13.431,24.013 -0.781,24.216c10.309,0.166 0.781,-24.216 0.781,-24.216Z" style="fill:#1d6faf;fill-opacity:0.976471;"/><path id="use52901" serif:id="use5290" d="M1528.74,390.411c0,0 -13.431,24.013 -0.781,24.217c10.309,0.166 0.781,-24.217 0.781,-24.217Z" style="fill:#1d6faf;fill-opacity:0.976471;"/><rect x="977.38" y="273.238" width="764.9" height="150" style="fill:none;"/><rect x="977.38" y="123.238" width="764.9" height="148" style="fill:none;"/><rect x="977.38" y="423.238" width="766.187" height="147.624" style="fill:none;"/><path id="path51881" serif:id="path5188" d="M1743.79,389.034c-53.211,-8.883 -111.175,1.101 -130.988,5.504c-19.813,4.403 -111.159,35.409 -34.123,28.619c157.576,-13.89 116.907,22.102 19.813,23.115c-25.841,0.27 -90.9,38.758 -7.705,41.829c43.72,1.613 229.572,-8 169.514,-26.418c-72.541,-22.246 72.057,-25.313 -31.921,-44.03c-59.423,-10.697 132.852,-9.015 15.41,-28.619Z" style="fill:#fff;fill-opacity:0.227451;"/><path d="M1370.02,614.645l-17.883,0l0,-61.823l-16.606,0l25.547,-25.547l25.547,25.547l-16.605,0l0,61.823Z" style="stroke:#fff;stroke-width:4.17px;"/><g><rect x="981.187" y="130.427" width="764.9" height="148" style="fill:none;"/></g></g></g><g transform="matrix(6.12323e-17,-1,1,6.12323e-17,-7138.6,955.093)"><text x="366.164px" y="7187.14px" style="font-family:'Arial-BoldMT', 'Arial', sans-serif;font-weight:700;font-size:66.667px;">Current</text></g><g transform="matrix(6.12323e-17,-1,1,6.12323e-17,-7584.16,2285.1)"><text x="808.388px" y="8074.91px" style="font-family:'Arial-BoldMT', 'Arial', sans-serif;font-weight:700;font-size:66.667px;">Objective</text></g><path d="M547.554,884.017l33.15,-24.22l-13.74,88.261l-88.26,-13.74l33.15,-24.219l-58.068,-79.479l35.7,-26.083l58.068,79.48Zm-87.945,-52.491l55.609,76.115l-0.906,5.822l-25.028,18.285l74.204,11.552l11.552,-74.204l-25.028,18.285l-5.823,-0.907l-55.609,-76.114l-28.971,21.166Z"/><path d="M453.786,830.62l35.7,-26.083l58.068,79.48l33.15,-24.22l-13.74,88.261l-88.26,-13.74l33.15,-24.219l-58.068,-79.479Z" style="fill-opacity:0.988235;"/><path d="M1383.8,838.823l-52.073,71.276l33.15,24.219l-88.261,13.74l-13.74,-88.261l33.151,24.22l52.073,-71.276l35.7,26.082Zm-84.409,47.651l-5.822,0.907l-25.028,-18.285l11.551,74.204l74.204,-11.552l-25.027,-18.285l-0.907,-5.822l49.616,-67.911l-28.971,-21.167l-49.616,67.911Z"/><path d="M1383.8,838.823l-35.7,-26.082l-52.073,71.276l-33.151,-24.22l13.74,88.261l88.261,-13.74l-33.15,-24.219l52.073,-71.276Z" style="fill-opacity:0.988235;"/></g></g></svg>