<?xml version="1.0" encoding="UTF-8" standalone="no"?><!DOCTYPE svg PUBLIC "-//W3C//DTD SVG 1.1//EN" "http://www.w3.org/Graphics/SVG/1.1/DTD/svg11.dtd"><svg width="100%" height="100%" viewBox="0 0 202 109" version="1.1" xmlns="http://www.w3.org/2000/svg" xmlns:xlink="http://www.w3.org/1999/xlink" xml:space="preserve" xmlns:serif="http://www.serif.com/" style="fill-rule:evenodd;clip-rule:evenodd;stroke-linejoin:round;stroke-miterlimit:1.41421;"><g><clipPath id="_clip1"><rect x="4.951" y="0.619" width="182.125" height="104.769"/></clipPath><g clip-path="url(#_clip1)"><g id="g4478"><rect id="rect4480" x="4.641" y="0" width="184" height="51.215" style="fill:#a6ceee;fill-opacity:0.988235;"/><rect id="rect4482" x="4.641" y="49.615" width="40" height="56" style="fill:#533c29;"/><g id="g4486"><path id="path4488" d="M40.917,49.456c1.745,7.737 1.934,23.715 1.934,26.158c0,2.443 -0.509,24.937 -0.509,27.176c0,2.239 -0.306,3.664 -0.306,3.664l-9.465,1.018c0,0 3.739,-21.287 3.358,-25.853c-0.237,-2.853 0.815,-10.789 0.815,-14.962c0,-4.173 1.496,-12.389 1.496,-12.999c0,-0.611 0.132,-3.592 0.641,-4.304c0.509,-0.713 2.036,0.102 2.036,0.102Z" style="fill:#255d23;"/><path id="path4490" d="M35.115,49.761c0.611,-1.018 2.036,-0.611 2.036,-0.611c0,0 -0.204,1.629 -0.204,2.24c0,0.61 -3.562,14.758 -5.496,20.865c-1.934,6.107 -8.245,24.021 -9.364,26.362c-1.12,2.341 -3.664,8.346 -3.664,8.346c0,0 -9.161,2.036 -8.855,0.204c0.305,-1.833 6.717,-14.148 8.549,-17.711c1.832,-3.562 12.825,-28.092 12.825,-28.092c0,0 4.275,-9.974 4.275,-10.483c0,-0.509 -0.102,-1.12 -0.102,-1.12Z" style="fill:#255d23;"/><path id="path4492" d="M34.301,49.659c0,-1.425 -1.934,-1.119 -1.934,-0.509c0,0.611 -6.005,8.957 -7.532,10.687c-1.527,1.731 -11.298,12.927 -11.298,12.927l-10.992,10.891l-0.306,9.058l13.537,-16.794l11.298,-15.165l7.227,-11.095Z" style="fill:#255d23;"/><path id="path4494" d="M30.942,49.557c-3.155,3.461 -15.98,15.37 -15.98,15.37l-12.825,11.094l0.102,-6.209l8.143,-5.496l10.483,-7.532l7.838,-6.412l1.018,-1.425l1.221,0.61Z" style="fill:#255d23;"/><path id="path4496" d="M27.481,49.557l-11.908,8.448l-13.843,9.364l0.713,-4.682l16.285,-9.058l7.125,-4.275l1.628,0.203Z" style="fill:#255d23;"/><path id="path4498" d="M23.003,49.354l-20.662,11.603l0.611,-2.443l17.71,-9.262l2.341,0.102Z" style="fill:#255d23;"/><path id="path4500" d="M17.405,49.354l-17.405,8.753l2.646,-3.359l13.232,-5.699l1.527,0.305Z" style="fill:#255d23;"/><path id="path4502" d="M11.895,49.543l-9.249,3.577l0.204,-1.527l7.925,-2.326l1.12,0.276Z" style="fill:#255d23;"/><path id="path4504" d="M41.645,49.601c1.745,7.738 1.934,23.716 1.934,26.159c0,2.442 -0.509,24.936 -0.509,27.176c0,2.239 -0.305,3.664 -0.305,3.664l-9.466,1.018c0,0 3.739,-21.288 3.359,-25.853c-0.238,-2.853 0.814,-10.789 0.814,-14.962c0,-4.173 1.497,-12.389 1.497,-13c0,-0.61 0.132,-3.591 0.641,-4.303c0.508,-0.713 2.035,0.101 2.035,0.101Z" style="fill:#296727;"/><path id="path4506" d="M35.844,49.907c0.61,-1.018 2.035,-0.611 2.035,-0.611c0,0 -0.203,1.629 -0.203,2.239c0,0.611 -3.563,14.759 -5.497,20.866c-1.933,6.107 -8.244,24.02 -9.364,26.361c-1.119,2.341 -3.664,8.347 -3.664,8.347c0,0 -9.16,2.035 -8.855,0.203c0.305,-1.832 6.718,-14.148 8.55,-17.71c1.832,-3.562 12.824,-28.092 12.824,-28.092c0,0 4.275,-9.975 4.275,-10.484c0,-0.509 -0.101,-1.119 -0.101,-1.119Z" style="fill:#296727;"/><path id="path4508" d="M34.994,49.743c0,-1.425 -1.899,-1.058 -1.899,-0.447c0,0.611 -6.005,8.957 -7.531,10.687c-1.527,1.73 -11.298,12.927 -11.298,12.927l-10.993,10.89l-0.305,9.059l13.537,-16.794l11.298,-15.166l7.191,-11.156Z" style="fill:#296727;"/><path id="path4510" d="M31.67,49.703c-3.155,3.461 -15.979,15.369 -15.979,15.369l-12.825,11.095l0.102,-6.209l8.142,-5.496l10.484,-7.532l7.837,-6.413l1.018,-1.425l1.221,0.611Z" style="fill:#296727;"/><path id="path4512" d="M28.21,49.703l-11.909,8.448l-13.842,9.364l0.712,-4.682l16.286,-9.059l7.124,-4.274l1.629,0.203Z" style="fill:#296727;"/><path id="path4514" d="M23.731,49.5l-20.661,11.603l0.61,-2.443l17.71,-9.262l2.341,0.102Z" style="fill:#296727;"/><path id="path4516" d="M18.133,49.5l-17.405,8.753l2.647,-3.359l13.232,-5.7l1.526,0.306Z" style="fill:#296727;"/><path id="path4518" d="M12.623,49.689l-9.248,3.577l0.203,-1.527l7.926,-2.326l1.119,0.276Z" style="fill:#296727;"/></g><rect id="rect4520" x="44.103" y="49.615" width="61.075" height="56" style="fill:#85634a;"/><path id="path4522" d="M58.04,69.7c0,-1.291 -0.055,-1.382 -1.106,-1.824c-0.946,-0.397 -1.372,-0.412 -2.933,-0.104c-1.427,0.282 -2.062,0.283 -2.901,0.006c-0.72,-0.237 -1.627,-0.275 -2.747,-0.116c-0.919,0.131 -1.804,0.245 -1.967,0.252c-0.695,0.033 -0.08,-1.146 2.028,-3.882c1.238,-1.607 2.25,-3.067 2.25,-3.243c0,-0.177 -0.197,-0.397 -0.439,-0.49c-0.599,-0.23 -0.211,-1.195 1.639,-4.082c1.519,-2.369 1.713,-2.893 1.072,-2.893c-0.211,0 -0.535,-0.152 -0.721,-0.338c-0.373,-0.373 0.071,-1.419 1.876,-4.422c1.142,-1.898 1.193,-2.208 0.493,-2.981c-0.479,-0.53 -0.47,-0.626 0.18,-1.851c0.377,-0.711 1.583,-2.762 2.68,-4.559l1.994,-3.268l2.078,3.472c1.143,1.91 2.313,3.968 2.599,4.573c0.501,1.061 0.5,1.121 -0.043,1.721c-0.555,0.613 -0.551,0.64 0.277,2.145c2.788,5.064 2.92,5.508 1.64,5.508c-0.315,0 -0.572,0.109 -0.572,0.242c0,0.133 0.796,1.485 1.77,3.003c1.866,2.911 2.055,3.45 1.311,3.736c-0.641,0.245 -0.435,0.633 2.08,3.915c2.313,3.017 2.74,4.051 1.551,3.754c-1.941,-0.483 -3.293,-0.543 -4.359,-0.191c-0.928,0.306 -1.483,0.308 -2.894,0.008c-2.127,-0.451 -3.866,-0.004 -3.914,1.008c-0.106,2.195 -0.021,2.074 -1.52,2.17l-1.402,0.09l0,-1.359l0,0Z" style="fill:#2d4c24;fill-rule:nonzero;"/><path id="path4524" d="M84.704,63.201c0,-0.782 -0.034,-0.838 -0.67,-1.105c-0.573,-0.241 -0.831,-0.25 -1.777,-0.063c-0.865,0.171 -1.249,0.172 -1.758,0.004c-0.436,-0.144 -0.985,-0.167 -1.664,-0.071c-0.557,0.08 -1.093,0.149 -1.191,0.153c-0.422,0.02 -0.049,-0.694 1.228,-2.352c0.75,-0.973 1.363,-1.858 1.363,-1.964c0,-0.107 -0.119,-0.241 -0.266,-0.297c-0.363,-0.139 -0.128,-0.724 0.993,-2.473c0.92,-1.435 1.038,-1.753 0.65,-1.753c-0.128,0 -0.325,-0.092 -0.437,-0.205c-0.226,-0.225 0.043,-0.859 1.136,-2.678c0.692,-1.15 0.723,-1.338 0.299,-1.806c-0.29,-0.321 -0.285,-0.38 0.109,-1.122c0.228,-0.43 0.959,-1.673 1.623,-2.762l1.208,-1.979l1.26,2.103c0.692,1.157 1.4,2.404 1.574,2.77c0.304,0.643 0.303,0.68 -0.026,1.043c-0.336,0.371 -0.334,0.388 0.168,1.3c1.688,3.067 1.769,3.336 0.993,3.336c-0.19,0 -0.347,0.066 -0.347,0.147c0,0.081 0.483,0.899 1.073,1.819c1.13,1.764 1.245,2.09 0.794,2.263c-0.388,0.149 -0.263,0.384 1.26,2.372c1.402,1.828 1.66,2.454 0.94,2.275c-1.176,-0.293 -1.995,-0.329 -2.641,-0.116c-0.562,0.185 -0.898,0.186 -1.753,0.005c-1.289,-0.273 -2.342,-0.002 -2.371,0.611c-0.064,1.33 -0.013,1.256 -0.921,1.314l-0.849,0.055l0,-0.824l0,0Z" style="fill:#405d36;fill-rule:nonzero;"/><path id="path4526" d="M89.441,71.189c0,-1.047 -0.107,-1.901 -0.238,-1.899c-0.131,0.002 -1.023,0.214 -1.983,0.472c-0.959,0.257 -1.785,0.47 -1.835,0.472c-0.05,0.002 0.057,-0.273 0.238,-0.61c0.466,-0.87 0.409,-1.073 -0.227,-0.819c-0.305,0.122 -1.671,0.637 -3.036,1.144l-2.48,0.923l0.704,-0.988l0.703,-0.988l-0.761,0.228c-0.419,0.125 -1.095,0.439 -1.503,0.696c-0.407,0.258 -0.8,0.409 -0.873,0.337c-0.072,-0.073 0.509,-1.119 1.29,-2.326c0.782,-1.206 1.425,-2.304 1.428,-2.44c0.004,-0.135 -0.457,-0.005 -1.024,0.287c-0.761,0.394 -0.94,0.417 -0.683,0.088c0.191,-0.245 1.369,-1.753 2.617,-3.35c1.248,-1.597 2.27,-2.981 2.27,-3.076c0,-0.096 -0.436,-0.022 -0.968,0.164c-0.533,0.186 -1.026,0.28 -1.096,0.209c-0.071,-0.07 0.65,-1.105 1.602,-2.299c0.952,-1.195 1.731,-2.276 1.731,-2.403c0,-0.127 -0.365,-0.161 -0.811,-0.076c-0.776,0.148 -0.734,0.028 0.967,-2.778c0.978,-1.613 1.709,-3.002 1.625,-3.087c-0.085,-0.084 -0.481,0.075 -0.88,0.355c-1.197,0.839 -1.3,0.583 -0.338,-0.84c1.06,-1.571 3.244,-5.474 3.244,-5.799c0,-0.122 -0.37,0.019 -0.821,0.315c-0.451,0.296 -0.865,0.491 -0.919,0.433c-0.054,-0.058 0.645,-1.582 1.553,-3.388l1.652,-3.284l1.604,3.284c0.882,1.806 1.564,3.33 1.516,3.388c-0.049,0.058 -0.458,-0.137 -0.909,-0.433c-0.452,-0.296 -0.821,-0.457 -0.821,-0.357c0,0.206 2.747,5 3.619,6.317c0.663,0.999 0.5,1.091 -0.626,0.353c-1.213,-0.795 -1.23,-0.35 -0.055,1.516c0.588,0.935 1.407,2.257 1.818,2.937l0.748,1.237l-0.848,-0.162c-0.467,-0.089 -0.846,-0.075 -0.843,0.032c0.004,0.107 0.8,1.171 1.769,2.365c0.969,1.194 1.687,2.245 1.596,2.337c-0.091,0.091 -0.601,0.014 -1.134,-0.172c-0.532,-0.185 -0.968,-0.272 -0.968,-0.192c0,0.08 1.142,1.579 2.538,3.331c1.396,1.752 2.538,3.253 2.538,3.336c0,0.083 -0.428,-0.071 -0.951,-0.342c-0.524,-0.27 -0.952,-0.418 -0.952,-0.328c0,0.09 0.642,1.166 1.427,2.391c0.786,1.225 1.428,2.299 1.428,2.388c0,0.088 -0.714,-0.201 -1.586,-0.643c-1.722,-0.873 -1.971,-0.768 -0.898,0.374c0.379,0.404 0.629,0.787 0.555,0.853c-0.073,0.066 -1.411,-0.357 -2.973,-0.94c-1.561,-0.583 -2.902,-0.996 -2.979,-0.919c-0.078,0.077 0.043,0.361 0.267,0.632c0.617,0.743 0.282,0.815 -1.414,0.305c-2.379,-0.716 -2.393,-0.707 -2.393,1.439l0,1.904l-1.111,0l-1.11,0l0,-1.904l0,0Z" style="fill:#2d4c24;fill-rule:nonzero;"/><path id="path4528" d="M87.833,83.585c0,-1.06 -0.047,-1.135 -0.943,-1.497c-0.807,-0.327 -1.17,-0.339 -2.501,-0.086c-1.217,0.232 -1.759,0.233 -2.474,0.006c-0.614,-0.195 -1.387,-0.227 -2.342,-0.096c-0.784,0.108 -1.539,0.201 -1.677,0.207c-0.593,0.028 -0.068,-0.941 1.729,-3.188c1.055,-1.319 1.919,-2.518 1.919,-2.663c0,-0.144 -0.169,-0.325 -0.375,-0.401c-0.511,-0.189 -0.18,-0.982 1.398,-3.353c1.294,-1.944 1.46,-2.375 0.914,-2.375c-0.18,0 -0.457,-0.125 -0.615,-0.278c-0.318,-0.306 0.061,-1.165 1.6,-3.63c0.973,-1.559 1.017,-1.814 0.42,-2.449c-0.408,-0.434 -0.4,-0.514 0.154,-1.519c0.321,-0.584 1.349,-2.269 2.284,-3.744l1.701,-2.683l1.772,2.851c0.975,1.568 1.972,3.258 2.216,3.754c0.427,0.872 0.426,0.921 -0.036,1.414c-0.474,0.503 -0.471,0.525 0.236,1.761c2.376,4.158 2.489,4.523 1.398,4.523c-0.269,0 -0.488,0.089 -0.488,0.199c0,0.109 0.679,1.219 1.509,2.466c1.592,2.39 1.753,2.832 1.118,3.067c-0.546,0.202 -0.371,0.52 1.774,3.215c1.972,2.477 2.336,3.326 1.322,3.083c-1.655,-0.397 -2.808,-0.446 -3.716,-0.157c-0.791,0.251 -1.265,0.252 -2.468,0.007c-1.814,-0.371 -3.296,-0.003 -3.338,0.827c-0.09,1.803 -0.017,1.703 -1.296,1.782l-1.195,0.074l0,-1.116l0,-0.001Z" style="fill:#365a2b;fill-rule:nonzero;"/><path id="path4530" d="M74.276,90.322c0,-1.592 -0.163,-2.892 -0.362,-2.889c-0.199,0.003 -1.556,0.326 -3.015,0.718c-1.46,0.391 -2.715,0.715 -2.791,0.718c-0.076,0.003 0.087,-0.415 0.362,-0.928c0.708,-1.323 0.623,-1.631 -0.345,-1.245c-0.465,0.185 -2.542,0.968 -4.616,1.74l-3.772,1.403l1.07,-1.503l1.07,-1.502l-1.157,0.347c-0.637,0.19 -1.666,0.667 -2.286,1.059c-0.62,0.391 -1.217,0.622 -1.327,0.512c-0.11,-0.11 0.773,-1.702 1.961,-3.537c1.189,-1.834 2.166,-3.504 2.172,-3.71c0.006,-0.206 -0.695,-0.009 -1.558,0.436c-1.157,0.599 -1.429,0.634 -1.039,0.133c0.291,-0.372 2.082,-2.664 3.98,-5.093c1.898,-2.428 3.452,-4.533 3.452,-4.678c0,-0.145 -0.663,-0.032 -1.472,0.25c-0.81,0.282 -1.56,0.425 -1.667,0.318c-0.107,-0.107 0.989,-1.681 2.437,-3.497c1.447,-1.816 2.631,-3.46 2.631,-3.653c0,-0.193 -0.555,-0.246 -1.233,-0.116c-1.179,0.226 -1.115,0.042 1.471,-4.224c1.488,-2.453 2.599,-4.565 2.471,-4.693c-0.129,-0.129 -0.731,0.113 -1.338,0.538c-1.82,1.276 -1.977,0.888 -0.515,-1.277c1.613,-2.388 4.933,-8.323 4.933,-8.818c0,-0.186 -0.561,0.03 -1.248,0.479c-0.686,0.45 -1.315,0.746 -1.397,0.659c-0.082,-0.088 0.98,-2.406 2.362,-5.152l2.511,-4.993l2.439,4.993c1.342,2.746 2.379,5.064 2.305,5.152c-0.074,0.087 -0.696,-0.209 -1.382,-0.659c-0.686,-0.449 -1.248,-0.694 -1.248,-0.543c0,0.314 4.177,7.604 5.503,9.606c1.008,1.52 0.76,1.659 -0.952,0.537c-1.845,-1.209 -1.87,-0.532 -0.084,2.304c0.895,1.422 2.14,3.433 2.765,4.467l1.137,1.882l-1.29,-0.247c-0.709,-0.136 -1.286,-0.114 -1.28,0.048c0.004,0.163 1.215,1.781 2.689,3.596c1.473,1.816 2.566,3.415 2.427,3.554c-0.139,0.138 -0.915,0.021 -1.724,-0.261c-0.81,-0.282 -1.472,-0.414 -1.472,-0.293c0,0.122 1.737,2.401 3.859,5.066c2.123,2.664 3.86,4.947 3.86,5.073c0,0.126 -0.652,-0.108 -1.448,-0.52c-0.796,-0.411 -1.447,-0.636 -1.447,-0.499c0,0.136 0.977,1.772 2.171,3.635c1.194,1.863 2.171,3.497 2.171,3.631c0,0.135 -1.086,-0.305 -2.412,-0.978c-2.618,-1.326 -2.998,-1.167 -1.365,0.57c0.576,0.613 0.956,1.197 0.844,1.297c-0.112,0.1 -2.146,-0.543 -4.52,-1.429c-2.375,-0.887 -4.414,-1.516 -4.532,-1.398c-0.117,0.117 0.066,0.55 0.407,0.96c0.938,1.131 0.429,1.241 -2.15,0.465c-3.617,-1.089 -3.639,-1.075 -3.639,2.189l0,2.894l-1.689,0l-1.688,0l0,-2.894l0,0Z" style="fill:#3b642f;fill-rule:nonzero;"/><rect id="rect4532" x="104.641" y="49.615" width="36" height="56" style="fill:#538146;"/><rect id="rect4534" x="139.924" y="49.615" width="48.717" height="56" style="fill:#b3b3b3;"/><path id="path4536" d="M26.057,17.789c-1.238,-0.905 -0.841,-3.592 0.638,-4.322c0.633,-0.312 1.469,-0.959 1.859,-1.438c1.185,-1.455 2.735,-2.044 4.595,-1.747c1.314,0.21 1.796,0.106 2.002,-0.432c0.414,-1.079 3.429,-2.164 5.127,-1.845c0.81,0.152 1.843,0.686 2.297,1.187c0.453,0.501 1.195,0.911 1.648,0.911c0.452,0 1.399,0.496 2.103,1.101c1.825,1.57 1.825,4.509 0,6.079c-1.257,1.081 -1.445,1.101 -10.368,1.101c-6.709,0 -9.3,-0.156 -9.901,-0.595l0,0Z" style="fill:#eceded;fill-rule:nonzero;"/><path id="path4538" d="M126.296,20.554c-0.312,-0.583 -0.102,-1.316 0.379,-1.316c0.183,0 0.404,-0.284 0.491,-0.631c0.153,-0.609 1.066,-1.141 1.394,-0.813c0.088,0.088 0.284,-0.211 0.435,-0.665c0.633,-1.904 3.315,-2.57 4.764,-1.182c0.476,0.456 0.887,0.633 1.248,0.539c0.911,-0.238 2.392,0.546 2.595,1.373c0.099,0.402 0.458,0.992 0.798,1.312c0.484,0.455 0.563,0.685 0.362,1.062c-0.224,0.418 -0.721,0.502 -3.814,0.651c-1.955,0.094 -4.642,0.17 -5.97,0.17c-2.119,0 -2.447,-0.061 -2.682,-0.5l0,0Z" style="fill:#eceded;fill-opacity:0.996078;fill-rule:nonzero;"/><path id="path4540" d="M121.052,16.156c0.5,-0.5 0.84,-1.235 0.84,-1.817c0,-1.13 -1.105,-2.475 -2.032,-2.475c-0.35,0 -1.175,-0.538 -1.834,-1.197c-1.456,-1.456 -3.344,-1.642 -4.826,-0.477c-0.568,0.447 -1.19,0.649 -1.639,0.531c-1.049,-0.274 -2.763,0.552 -3.325,1.604c-0.305,0.571 -0.772,0.908 -1.258,0.908c-1.666,0 -2.46,2.077 -1.223,3.196c0.539,0.488 1.586,0.567 7.542,0.567c6.886,0 6.919,-0.003 7.755,-0.84Z" style="fill:#bcbebf;fill-opacity:0.996078;fill-rule:nonzero;"/><path id="path4542" d="M14.497,14.971c-0.411,-0.77 -0.133,-1.735 0.5,-1.735c0.242,0 0.533,-0.375 0.648,-0.833c0.202,-0.803 1.405,-1.504 1.838,-1.072c0.116,0.116 0.374,-0.279 0.573,-0.877c0.835,-2.511 4.372,-3.388 6.282,-1.558c0.627,0.601 1.169,0.835 1.646,0.71c1.201,-0.314 3.154,0.72 3.422,1.811c0.13,0.53 0.603,1.308 1.052,1.73c0.638,0.599 0.742,0.904 0.477,1.4c-0.295,0.551 -0.951,0.663 -5.028,0.858c-2.579,0.124 -6.122,0.225 -7.873,0.225c-2.794,0 -3.227,-0.081 -3.537,-0.659l0,0Z" style="fill:#cccdce;fill-rule:nonzero;"/><path id="path4544" d="M28.203,27.098c0.499,-0.499 0.84,-1.235 0.84,-1.816c0,-1.13 -1.105,-2.475 -2.032,-2.475c-0.35,0 -1.175,-0.539 -1.834,-1.197c-1.456,-1.456 -3.344,-1.643 -4.826,-0.477c-0.568,0.447 -1.19,0.648 -1.639,0.531c-1.049,-0.275 -2.763,0.552 -3.325,1.603c-0.306,0.572 -0.772,0.908 -1.258,0.908c-1.666,0 -2.46,2.077 -1.223,3.197c0.539,0.487 1.586,0.566 7.541,0.566c6.887,0 6.92,-0.002 7.756,-0.84Z" style="fill:#dee0e0;fill-rule:nonzero;"/><path id="path4546" d="M81.602,17.875c0.445,-0.361 0.834,-0.462 1.221,-0.316c0.644,0.242 1.563,-0.029 2.007,-0.594c0.866,-1.102 0.439,-2.54 -0.908,-3.052c-0.404,-0.154 -0.672,-0.482 -0.672,-0.823c0,-0.99 -1.049,-1.771 -2.142,-1.594c-0.678,0.11 -1.242,-0.011 -1.922,-0.412c-1.228,-0.725 -2.386,-0.503 -3.349,0.641c-0.389,0.463 -0.707,0.958 -0.707,1.1c0,0.142 -0.434,0.258 -0.964,0.258c-1.051,0 -1.836,0.779 -1.836,1.821c0,0.76 0.76,1.82 1.305,1.82c0.239,0 0.808,0.315 1.266,0.7c0.846,0.712 2.004,0.897 2.732,0.437c0.262,-0.166 0.601,-0.116 0.972,0.144c0.798,0.559 2.222,0.497 2.997,-0.13Z" style="fill:#e5e6e6;fill-opacity:0.996078;fill-rule:nonzero;"/><path id="path4548" d="M119.922,14.418c-0.139,-0.138 -1.169,-0.256 -2.29,-0.261c-1.825,-0.009 -2.154,-0.123 -3.141,-1.097c-0.606,-0.599 -1.448,-1.405 -1.871,-1.791c-1.484,-1.356 -0.494,-4.124 1.475,-4.124c0.559,0 0.961,-0.264 1.173,-0.77c1.051,-2.513 3.979,-3.487 5.911,-1.967c0.479,0.376 1.317,0.684 1.863,0.684c0.935,0 2.491,1.051 2.491,1.683c0,0.158 0.469,0.481 1.042,0.719c2.064,0.854 2.661,3.646 1.161,5.428c-0.966,1.149 -2.588,1.623 -3.893,1.14c-0.57,-0.212 -1.111,-0.165 -1.71,0.147c-0.976,0.51 -1.83,0.59 -2.211,0.209Z" style="fill:#cccdce;fill-opacity:0.996078;fill-rule:nonzero;"/><path id="path4550" d="M5.198,27.257c15.544,0 30.207,1.218 23.578,1.747c-22.217,1.772 -4.407,3.556 2.969,3.842c8.907,0.346 20.609,0.175 16.592,1.048c-4.017,0.873 -7.685,1.397 -9.955,1.397c-2.271,0 -15.406,2.988 -4.367,2.445c12.863,-0.631 28.906,5.14 10.48,3.494c-9.261,-0.828 -18.165,0.099 -22.181,0.174c-18.262,0.341 8.294,-7.091 -6.637,-5.763c-5.799,0.515 -9.829,-0.126 -9.781,-0.175l-0.698,-8.209Z" style="fill:#fff;fill-opacity:0.321569;"/><path id="path4552" d="M170.73,18.401c8.443,-1.41 17.64,0.174 20.783,0.873c3.144,0.698 17.638,5.618 5.415,4.541c-25.003,-2.204 -18.55,3.507 -3.144,3.668c4.1,0.042 14.423,6.149 1.222,6.636c-6.937,0.256 -36.426,-1.269 -26.896,-4.191c11.51,-3.53 -11.433,-4.017 5.065,-6.986c9.428,-1.698 -21.08,-1.431 -2.445,-4.541Z" style="fill:#fff;fill-opacity:0.227451;"/><path id="path4554" d="M185.015,19.458c-8.443,-1.409 -17.64,0.175 -20.784,0.874c-3.144,0.698 -17.637,5.618 -5.414,4.541c25.002,-2.204 18.549,3.507 3.143,3.667c-4.1,0.043 -14.423,6.15 -1.222,6.637c6.937,0.256 36.426,-1.269 26.896,-4.192c-11.51,-3.529 11.433,-4.016 -5.065,-6.986c-9.428,-1.697 21.08,-1.43 2.446,-4.541Z" style="fill:#fff;fill-opacity:0.227451;"/><path id="path4556" d="M35.054,23.177c0,0 -1.854,3.314 -0.108,3.342c1.423,0.023 0.108,-3.342 0.108,-3.342Z" style="fill:#1d6faf;fill-opacity:0.976471;"/><path id="path4558" d="M23.87,36.123c0,0 -1.854,3.314 -0.108,3.342c1.423,0.023 0.108,-3.342 0.108,-3.342Z" style="fill:#1d6faf;fill-opacity:0.976471;"/><path id="path4560" d="M40.596,26.256c0,0 -1.853,3.314 -0.107,3.342c1.422,0.023 0.107,-3.342 0.107,-3.342Z" style="fill:#1d6faf;fill-opacity:0.976471;"/><path id="path4562" d="M120.097,34.927c0,0 -1.854,3.314 -0.108,3.342c1.423,0.023 0.108,-3.342 0.108,-3.342Z" style="fill:#1d6faf;fill-opacity:0.976471;"/><path id="path4564" d="M112.932,24.466c0,0 -1.854,3.314 -0.108,3.342c1.423,0.023 0.108,-3.342 0.108,-3.342Z" style="fill:#1d6faf;fill-opacity:0.976471;"/><path id="path4566" d="M120.071,20.047c0,0 -1.854,3.315 -0.108,3.343c1.423,0.022 0.108,-3.343 0.108,-3.343Z" style="fill:#1d6faf;fill-opacity:0.976471;"/><path id="path4568" d="M111.454,34.897c0,0 -1.854,3.314 -0.108,3.342c1.423,0.023 0.108,-3.342 0.108,-3.342Z" style="fill:#1d6faf;fill-opacity:0.976471;"/><path id="path4570" d="M42.457,19.069c0,0 -1.854,3.314 -0.108,3.342c1.423,0.023 0.108,-3.342 0.108,-3.342Z" style="fill:#1d6faf;fill-opacity:0.976471;"/><path id="path4572" d="M29.775,29.365c0,0 -1.853,3.314 -0.107,3.342c1.422,0.023 0.107,-3.342 0.107,-3.342Z" style="fill:#1d6faf;fill-opacity:0.976471;"/><path id="path4574" d="M21.132,38.947c0,0 -1.853,3.315 -0.107,3.343c1.422,0.022 0.107,-3.343 0.107,-3.343Z" style="fill:#1d6faf;fill-opacity:0.976471;"/><path id="path4576" d="M17.768,30.482c0,0 -1.854,3.314 -0.108,3.342c1.423,0.023 0.108,-3.342 0.108,-3.342Z" style="fill:#1d6faf;fill-opacity:0.976471;"/><path id="path4578" d="M41.733,37.455c0,0 -1.854,3.315 -0.108,3.343c1.423,0.023 0.108,-3.343 0.108,-3.343Z" style="fill:#1d6faf;fill-opacity:0.976471;"/><path id="path4580" d="M107.894,19.437c0,0 -1.853,3.315 -0.107,3.343c1.422,0.022 0.107,-3.343 0.107,-3.343Z" style="fill:#1d6faf;fill-opacity:0.976471;"/><path id="path4582" d="M114.155,31.406c0,0 -1.854,3.314 -0.108,3.342c1.423,0.023 0.108,-3.342 0.108,-3.342Z" style="fill:#1d6faf;fill-opacity:0.976471;"/><path id="path4584" d="M56.753,98.596c0,-1.184 -0.051,-2.152 -0.113,-2.152c-0.061,0 -0.573,0.314 -1.136,0.699c-0.563,0.384 -1.276,0.772 -1.586,0.861l-0.563,0.162l0.546,-0.739c0.729,-0.985 0.473,-1.148 -0.67,-0.427c-0.992,0.627 -2.924,1.357 -3.589,1.357c-0.298,0 -0.21,-0.194 0.353,-0.777c0.412,-0.428 0.865,-1.084 1.006,-1.458l0.257,-0.681l-1.199,0.143c-0.659,0.078 -1.764,0.208 -2.454,0.288l-1.256,0.145l0.957,-0.876l0.956,-0.875l-1.111,0.143c-0.611,0.079 -1.399,0.071 -1.751,-0.018c-0.616,-0.154 -0.589,-0.188 0.709,-0.907c1.502,-0.832 1.729,-1.186 0.838,-1.306c-0.779,-0.104 -1.222,-0.518 -0.555,-0.518c0.929,0 2.289,-0.747 3.576,-1.964c0.706,-0.668 1.284,-1.298 1.284,-1.4c0,-0.101 -0.383,-0.079 -0.85,0.05c-0.468,0.129 -1.087,0.194 -1.376,0.143c-0.487,-0.085 -0.475,-0.112 0.165,-0.38c1.031,-0.431 1.98,-1.164 2.561,-1.981l0.52,-0.729l-0.69,0.047c-0.379,0.025 -1.012,0.031 -1.406,0.012l-0.718,-0.035l0.837,-0.361c0.803,-0.345 3.349,-2.638 3.349,-3.014c0,-0.1 -0.35,-0.117 -0.778,-0.037l-0.777,0.145l0.813,-0.57c0.447,-0.313 0.971,-0.811 1.165,-1.107c0.335,-0.511 0.321,-0.538 -0.28,-0.538c-0.6,0 -0.566,-0.067 0.689,-1.321c1.517,-1.518 1.653,-1.915 0.582,-1.701c-0.73,0.146 -0.725,0.135 0.418,-0.917c0.965,-0.888 1.073,-1.067 0.651,-1.074c-0.468,-0.009 -0.448,-0.072 0.254,-0.817c0.419,-0.444 0.928,-1.151 1.132,-1.572l0.37,-0.765l0.631,1.076c0.347,0.592 0.914,1.3 1.261,1.572l0.63,0.496l-0.57,0.006c-0.522,0.005 -0.475,0.096 0.54,1.065c1.071,1.022 1.086,1.055 0.418,0.921c-1.032,-0.206 -0.871,0.252 0.608,1.731c1.215,1.215 1.26,1.3 0.689,1.3c-0.579,0 -0.593,0.028 -0.259,0.538c0.194,0.296 0.718,0.794 1.165,1.107l0.813,0.57l-0.778,-0.145c-0.427,-0.08 -0.777,-0.085 -0.777,-0.012c0,0.47 1.912,2.323 2.911,2.82l1.198,0.598l-1.353,0.072l-1.353,0.072l0.848,0.989c0.466,0.543 1.28,1.161 1.81,1.373c0.529,0.212 0.962,0.455 0.962,0.54c0,0.084 -0.619,0.081 -1.376,-0.008l-1.375,-0.161l1.196,1.232c1.247,1.286 2.696,2.12 3.695,2.129c0.733,0.007 0.373,0.411 -0.466,0.523c-0.895,0.12 -0.663,0.475 0.864,1.32c1.326,0.735 1.352,0.768 0.731,0.924c-0.354,0.089 -1.154,0.094 -1.778,0.011l-1.133,-0.151l0.957,0.867l0.957,0.868l-1.256,-0.145c-0.69,-0.08 -1.794,-0.21 -2.451,-0.288c-0.658,-0.078 -1.196,-0.071 -1.196,0.016c0,0.349 0.576,1.246 1.284,1.999l0.749,0.797l-0.957,-0.154c-0.526,-0.085 -1.683,-0.514 -2.571,-0.954c-0.888,-0.44 -1.614,-0.717 -1.614,-0.615c0,0.102 0.233,0.481 0.518,0.844l0.518,0.659l-0.578,-0.167c-0.318,-0.092 -1.039,-0.482 -1.602,-0.866c-0.562,-0.385 -1.074,-0.699 -1.136,-0.699c-0.062,0 -0.112,0.969 -0.112,2.152l0,2.153l-1.196,0l-1.196,0l0,-2.153l0,0Z" style="fill:#335529;fill-rule:nonzero;"/><path id="path4586" d="M88.693,98.508c0,-0.876 -0.1,-1.591 -0.223,-1.589c-0.123,0.003 -0.962,0.179 -1.865,0.395c-0.902,0.215 -1.679,0.393 -1.726,0.395c-0.047,0.002 0.054,-0.228 0.224,-0.51c0.438,-0.728 0.385,-0.898 -0.213,-0.685c-0.287,0.102 -1.572,0.532 -2.855,0.957l-2.332,0.771l0.662,-0.826l0.661,-0.826l-0.716,0.19c-0.393,0.105 -1.029,0.367 -1.413,0.583c-0.383,0.215 -0.753,0.342 -0.821,0.281c-0.068,-0.06 0.478,-0.935 1.213,-1.944c0.735,-1.009 1.34,-1.928 1.343,-2.041c0.003,-0.113 -0.43,-0.005 -0.963,0.24c-0.716,0.329 -0.884,0.349 -0.643,0.073c0.18,-0.205 1.288,-1.465 2.462,-2.8c1.173,-1.336 2.134,-2.494 2.134,-2.573c0,-0.08 -0.41,-0.018 -0.91,0.137c-0.501,0.156 -0.965,0.234 -1.031,0.175c-0.066,-0.059 0.612,-0.924 1.507,-1.923c0.895,-0.998 1.627,-1.903 1.627,-2.009c0,-0.106 -0.343,-0.135 -0.762,-0.063c-0.73,0.124 -0.69,0.023 0.909,-2.323c0.92,-1.349 1.608,-2.511 1.528,-2.581c-0.08,-0.071 -0.452,0.062 -0.827,0.296c-1.126,0.701 -1.223,0.488 -0.319,-0.703c0.998,-1.313 3.051,-4.577 3.051,-4.849c0,-0.102 -0.347,0.016 -0.772,0.264c-0.424,0.247 -0.813,0.41 -0.864,0.362c-0.051,-0.048 0.606,-1.323 1.461,-2.833l1.553,-2.746l1.508,2.746c0.83,1.51 1.471,2.785 1.425,2.833c-0.045,0.048 -0.43,-0.115 -0.854,-0.362c-0.425,-0.248 -0.772,-0.382 -0.772,-0.299c0,0.173 2.583,4.182 3.403,5.282c0.623,0.836 0.47,0.913 -0.589,0.296c-1.141,-0.665 -1.156,-0.293 -0.052,1.267c0.554,0.782 1.323,1.888 1.71,2.457l0.704,1.034l-0.798,-0.135c-0.439,-0.075 -0.795,-0.063 -0.792,0.026c0.002,0.089 0.751,0.979 1.663,1.978c0.911,0.998 1.586,1.877 1.501,1.954c-0.086,0.076 -0.566,0.011 -1.067,-0.144c-0.5,-0.155 -0.91,-0.227 -0.91,-0.161c0,0.067 1.074,1.321 2.387,2.786c1.313,1.465 2.387,2.721 2.387,2.79c0,0.069 -0.403,-0.06 -0.895,-0.286c-0.493,-0.226 -0.895,-0.35 -0.895,-0.275c0,0.075 0.604,0.975 1.342,1.999c0.738,1.025 1.343,1.923 1.343,1.997c0,0.074 -0.672,-0.168 -1.492,-0.537c-1.619,-0.73 -1.854,-0.643 -0.844,0.313c0.356,0.337 0.591,0.658 0.522,0.713c-0.069,0.055 -1.327,-0.299 -2.796,-0.786c-1.468,-0.487 -2.729,-0.833 -2.802,-0.769c-0.072,0.065 0.041,0.303 0.252,0.529c0.58,0.621 0.265,0.682 -1.33,0.255c-2.237,-0.598 -2.25,-0.591 -2.25,1.204l0,1.592l-1.044,0l-1.045,0l0,-1.592l0,0Z" style="fill:#2d4c24;fill-rule:nonzero;"/><g id="g4588"><path id="path4590" d="M148.195,30.069l0,31.059l37.218,0l0,-18.636l-18.688,0l0,-12.423l-18.53,0Z" style="fill:#4d4d4d;fill-rule:nonzero;"/><path id="path4592" d="M148.195,30.069l0,31.059l37.218,0l0,-18.636l-18.688,0l0,-12.423l-18.53,0Z" style="fill:#f3f0d9;fill-opacity:0.752941;fill-rule:nonzero;"/><path id="path4594" d="M146.738,62.826c-0.485,-0.486 -0.204,-1.771 0.424,-1.935c0.628,-0.165 0.639,-0.437 0.639,-15.614c0,-8.495 0.09,-15.679 0.2,-15.965c0.877,-2.287 10.514,-3.421 15.653,-1.843c3.031,0.932 3.455,1.453 3.654,4.501l0.16,2.446l9.354,2.546l9.353,2.545l0,10.608c0,10.465 0.009,10.611 0.663,10.782c0.509,0.133 0.639,0.383 0.56,1.076l-0.104,0.903l-20.17,0.083c-11.094,0.045 -20.268,-0.015 -20.386,-0.133Zm30.738,-4.187l-0.095,-2.158l-3.038,0l-3.038,0l-0.094,2.158l-0.095,2.159l6.454,0l-0.094,-2.159Zm-27.484,-2.03c0.894,-0.311 1.007,-0.489 1.007,-1.58c0,-1.505 -0.201,-1.649 -1.522,-1.093c-0.878,0.369 -1.036,0.6 -1.036,1.517c0,0.898 0.196,1.507 0.485,1.507c0.033,0 0.512,-0.157 1.066,-0.351Zm6.683,-1.104c0.234,-0.072 0.4,-0.66 0.4,-1.413l0,-1.289l-1.738,0c-2.597,0 -3.378,0.393 -3.378,1.698c0,0.591 0.091,1.165 0.203,1.277c0.195,0.195 3.677,-0.016 4.513,-0.273Zm6.156,-0.903c0,-1.311 -0.063,-1.411 -0.999,-1.599c-0.55,-0.11 -1.637,-0.2 -2.417,-0.2l-1.417,0l0.196,2.718l1.759,0.188c0.967,0.103 2.011,0.211 2.319,0.24c0.455,0.042 0.559,-0.208 0.559,-1.347Zm21.365,-2.038l-0.099,-1.2l-9.274,0l-9.274,0l-0.099,1.2l-0.099,1.199l18.944,0l-0.099,-1.199Zm-34.204,-0.432c0.924,-0.322 1.007,-0.467 1.007,-1.758c0,-0.775 -0.076,-1.408 -0.17,-1.408c-0.093,0 -0.669,0.208 -1.279,0.463c-0.956,0.4 -1.109,0.613 -1.109,1.546c0,0.899 0.196,1.509 0.485,1.509c0.033,0 0.512,-0.158 1.066,-0.352Zm6.364,-1.114c0.601,-0.122 0.719,-0.355 0.719,-1.419l0,-1.273l-1.738,0c-2.597,0 -3.378,0.393 -3.378,1.698c0,0.591 0.087,1.161 0.194,1.268c0.188,0.188 2.74,0.022 4.203,-0.274Zm6.412,-0.974c0.111,-1.524 -0.214,-1.706 -3.073,-1.713l-1.697,-0.005l0.196,2.719l1.759,0.19c2.678,0.291 2.707,0.279 2.815,-1.191l0,0Zm21.428,-1.638l-0.099,-1.199l-9.354,-0.085l-9.354,-0.084l0,2.568l18.906,0l-0.099,-1.2Zm-34.204,-0.75c0.924,-0.323 1.007,-0.468 1.007,-1.759c0,-0.774 -0.076,-1.408 -0.17,-1.408c-0.093,0 -0.669,0.209 -1.279,0.463c-0.956,0.4 -1.109,0.613 -1.109,1.546c0,0.899 0.196,1.509 0.485,1.509c0.033,0 0.512,-0.158 1.066,-0.351Zm6.381,-1.119c0.651,-0.133 0.726,-0.31 0.64,-1.499l-0.098,-1.348l-1.918,0.113c-2.341,0.138 -3.038,0.476 -3.038,1.471c0,1.552 0.252,1.749 2.025,1.575c0.909,-0.09 1.984,-0.23 2.389,-0.312Zm6.396,-1.016c0.094,-1.267 0.058,-1.323 -0.96,-1.487c-0.581,-0.094 -1.632,-0.21 -2.336,-0.257l-1.279,-0.087l0,2.878l1.919,0.183c2.586,0.247 2.545,0.266 2.656,-1.23Zm21.427,-1.272l-0.099,-1.199l-9.354,-0.085l-9.354,-0.085l0,2.568l18.906,0l-0.099,-1.199Zm-34.204,-1.07c0.924,-0.322 1.007,-0.468 1.007,-1.759c0,-0.774 -0.076,-1.408 -0.17,-1.408c-0.093,0 -0.669,0.209 -1.279,0.463c-0.956,0.4 -1.109,0.613 -1.109,1.546c0,0.899 0.196,1.509 0.485,1.509c0.033,0 0.512,-0.158 1.066,-0.351Zm6.061,-1.123c1.022,-0.155 1.054,-0.205 0.96,-1.502l-0.098,-1.341l-1.918,0.114c-2.344,0.141 -3.038,0.477 -3.038,1.47c0,1.774 0.239,1.848 4.094,1.259Zm6.715,-1.002c0.112,-1.499 -0.02,-1.58 -2.815,-1.741l-1.759,-0.1l-0.097,1.348c-0.108,1.489 0,1.562 2.656,1.788c1.868,0.158 1.909,0.132 2.015,-1.295Zm-12.328,-2.554c0.423,-0.122 0.559,-0.503 0.559,-1.563c0,-1.531 -0.201,-1.645 -1.615,-0.914c-0.756,0.391 -0.943,0.698 -0.943,1.546c0,1.234 0.254,1.584 0.943,1.298c0.273,-0.114 0.748,-0.279 1.056,-0.367Zm15.909,-0.855c0,-1.288 -0.085,-1.437 -0.996,-1.755c-1.283,-0.447 -1.562,-0.247 -1.562,1.118c0,0.953 0.151,1.182 1.039,1.568c1.485,0.645 1.519,0.625 1.519,-0.931Zm-10.776,-0.04l1.537,-0.196l-0.098,-1.336l-0.097,-1.337l-2.078,0.113c-2.448,0.133 -2.878,0.405 -2.878,1.818c0,1.096 0.324,1.373 1.427,1.223c0.358,-0.049 1.343,-0.178 2.187,-0.285Zm7.258,-1.123c0,-1.408 -0.185,-1.509 -3.038,-1.661l-1.599,-0.085l-0.097,1.341c-0.094,1.295 -0.061,1.347 0.959,1.516c1.519,0.251 3.256,0.373 3.535,0.249c0.132,-0.058 0.24,-0.67 0.24,-1.36Zm-11.832,-4.073c0,-1.389 -0.019,-1.415 -0.877,-1.2c-1.292,0.324 -1.681,0.767 -1.681,1.914c0,1.342 0.146,1.446 1.457,1.044c1.039,-0.319 1.101,-0.418 1.101,-1.758Zm15.35,0.588c0,-1.05 -0.132,-1.276 -0.94,-1.611c-1.221,-0.506 -1.618,-0.225 -1.618,1.146c0,0.955 0.149,1.178 1.036,1.551c1.32,0.555 1.522,0.411 1.522,-1.086Zm-3.576,-1.177l-0.102,-1.241l-1.918,-0.241c-1.056,-0.133 -2.099,-0.173 -2.319,-0.09c-0.227,0.086 -0.4,0.698 -0.4,1.42c0,1.397 -0.326,1.237 3.518,1.721c1.117,0.14 1.338,-0.144 1.221,-1.569Zm-6.881,1.269c1.199,-0.198 1.214,-0.219 1.119,-1.516l-0.096,-1.314l-2.078,0.109c-1.144,0.06 -2.259,0.258 -2.479,0.439c-0.421,0.347 -0.549,1.913 -0.186,2.277c0.267,0.266 2.121,0.269 3.72,0.005l0,0Z" style="fill:#4d4d4d;fill-rule:nonzero;"/></g><path id="path4596" d="M155.753,71.849c-8.022,-0.125 -12.183,5.812 -9.331,13.311l6.272,16.489c0.524,1.378 1.249,2.71 2.131,3.967l7.58,0l-7.525,-19.191c-1.777,-4.529 0.71,-8.117 5.575,-8.043l29.873,0.451l0,-6.434c-0.088,-0.003 -0.176,-0.014 -0.264,-0.016l-34.311,-0.534l0,0Z" style="fill:#737373;fill-rule:nonzero;"/><path id="path4598" d="M165.332,84.61c0,-0.548 -0.023,-0.587 -0.47,-0.774c-0.402,-0.169 -0.582,-0.176 -1.246,-0.045c-0.606,0.12 -0.876,0.121 -1.232,0.004c-0.306,-0.101 -0.691,-0.118 -1.167,-0.05c-0.39,0.056 -0.766,0.104 -0.835,0.107c-0.296,0.014 -0.034,-0.487 0.861,-1.649c0.526,-0.683 0.956,-1.303 0.956,-1.377c0,-0.075 -0.084,-0.169 -0.187,-0.208c-0.254,-0.098 -0.089,-0.508 0.697,-1.735c0.645,-1.006 0.727,-1.228 0.455,-1.228c-0.09,0 -0.228,-0.065 -0.306,-0.144c-0.159,-0.158 0.03,-0.603 0.797,-1.878c0.484,-0.806 0.506,-0.938 0.209,-1.267c-0.203,-0.225 -0.199,-0.266 0.077,-0.786c0.16,-0.302 0.672,-1.173 1.138,-1.937l0.847,-1.388l0.883,1.475c0.485,0.812 0.982,1.686 1.103,1.943c0.214,0.45 0.213,0.476 -0.018,0.731c-0.235,0.26 -0.234,0.272 0.118,0.911c1.184,2.151 1.24,2.34 0.697,2.34c-0.134,0 -0.244,0.046 -0.244,0.102c0,0.057 0.339,0.631 0.752,1.276c0.793,1.237 0.873,1.465 0.557,1.587c-0.272,0.104 -0.184,0.269 0.884,1.663c0.982,1.281 1.164,1.721 0.659,1.595c-0.825,-0.206 -1.399,-0.231 -1.852,-0.081c-0.394,0.13 -0.63,0.13 -1.229,0.004c-0.904,-0.192 -1.642,-0.002 -1.663,0.428c-0.045,0.932 -0.009,0.88 -0.645,0.921l-0.596,0.038l0,-0.577l0,-0.001Z" style="fill:#335529;fill-rule:nonzero;"/><path id="path4600" d="M179.731,84.61c0,-0.548 -0.023,-0.587 -0.47,-0.774c-0.401,-0.169 -0.582,-0.176 -1.245,-0.045c-0.606,0.12 -0.876,0.121 -1.233,0.004c-0.305,-0.101 -0.691,-0.118 -1.166,-0.05c-0.391,0.056 -0.767,0.104 -0.836,0.107c-0.295,0.014 -0.034,-0.487 0.861,-1.649c0.526,-0.683 0.956,-1.303 0.956,-1.377c0,-0.075 -0.084,-0.169 -0.186,-0.208c-0.255,-0.098 -0.09,-0.508 0.696,-1.735c0.645,-1.006 0.727,-1.228 0.455,-1.228c-0.089,0 -0.227,-0.065 -0.306,-0.144c-0.158,-0.158 0.03,-0.603 0.797,-1.878c0.485,-0.806 0.507,-0.938 0.209,-1.267c-0.203,-0.225 -0.199,-0.266 0.077,-0.786c0.16,-0.302 0.672,-1.173 1.138,-1.937l0.847,-1.388l0.883,1.475c0.485,0.812 0.982,1.686 1.104,1.943c0.213,0.45 0.212,0.476 -0.018,0.731c-0.236,0.26 -0.235,0.272 0.117,0.911c1.184,2.151 1.24,2.34 0.697,2.34c-0.134,0 -0.243,0.046 -0.243,0.102c0,0.057 0.338,0.631 0.752,1.276c0.792,1.237 0.873,1.465 0.556,1.587c-0.272,0.104 -0.184,0.269 0.884,1.663c0.983,1.281 1.164,1.721 0.659,1.595c-0.825,-0.206 -1.399,-0.231 -1.852,-0.081c-0.394,0.13 -0.63,0.13 -1.229,0.004c-0.903,-0.192 -1.642,-0.002 -1.663,0.428c-0.044,0.932 -0.008,0.88 -0.645,0.921l-0.596,0.038l0,-0.577l0,-0.001Z" style="fill:#335529;fill-rule:nonzero;"/><g id="g4602"><rect id="rect4604" x="161.155" y="90.936" width="27.744" height="5.01" style="fill:#737373;"/><ellipse id="ellipse4606" cx="175.642" cy="95.844" rx="14.487" ry="3.534" style="fill:#737373;"/><ellipse id="ellipse4608" cx="175.642" cy="91.044" rx="14.487" ry="3.534" style="fill:#929292;"/><ellipse id="ellipse4610" cx="175.642" cy="91.044" rx="12.326" ry="3.007" style="fill:#74a1c2;fill-opacity:0.988235;"/><ellipse id="ellipse4612" cx="175.642" cy="91.044" rx="1.362" ry="0.332" style="fill:#797979;"/><path id="path4614" d="M177.535,84.837c-0.195,-0.014 -0.381,0.01 -0.541,0.07c-0.937,0.356 -1.361,0.483 -1.442,2.249c-0.202,-1.828 -0.722,-1.952 -1.569,-2.222c-0.649,-0.208 -1.393,0.084 -1.862,1.022c-0.469,0.937 -0.234,2.695 -0.234,2.695c1.084,-0.217 0.586,-2.109 1.875,-1.758c1.289,0.352 1.875,3.867 1.875,3.867c0,0 0.586,-3.515 1.875,-3.867c1.289,-0.351 0.791,1.541 1.875,1.758c0,0 0.234,-1.758 -0.235,-2.695c-0.351,-0.704 -1.03,-1.078 -1.617,-1.119Z" style="fill:#44769a;fill-opacity:0.639216;"/></g><g id="g4616"><path id="path4618" d="M9.609,49.618c0,0 0.919,-0.374 1.362,-0.423c0.405,-0.045 0.699,-0.032 0.699,-0.032l-0.983,0.49l-1.078,-0.035Z" style="fill:#255d23;"/><path id="path4620" d="M10.574,49.673c0,0 0.851,-0.635 1.274,-0.494c0.423,0.141 0.753,0.507 0.753,0.507l-1.364,0.057l-0.663,-0.07Z" style="fill:#296727;"/></g><g id="g4622"><path id="path4624" d="M14.557,49.624c0,0 0.919,-0.374 1.362,-0.423c0.405,-0.044 0.699,-0.032 0.699,-0.032l-0.983,0.49l-1.078,-0.035Z" style="fill:#255d23;"/><path id="path4626" d="M15.522,49.679c0,0 0.851,-0.635 1.274,-0.494c0.423,0.141 1.057,0.432 1.057,0.432l-1.668,0.132l-0.663,-0.07Z" style="fill:#296727;"/><path id="path4628" d="M19.966,49.624c0,0 0.919,-0.374 1.363,-0.423c0.405,-0.044 0.699,-0.032 0.699,-0.032l-0.983,0.49l-1.079,-0.035Z" style="fill:#255d23;"/><path id="path4630" d="M20.931,49.679c0,0 0.852,-0.635 1.275,-0.494c0.564,-0.027 1.331,0.432 1.331,0.432l-1.942,0.132l-0.664,-0.07Z" style="fill:#296727;"/><path id="path4632" d="M25.384,49.633c0,0 0.92,-0.374 1.363,-0.423c0.405,-0.045 0.699,-0.032 0.699,-0.032l-0.983,0.49l-1.079,-0.035Z" style="fill:#255d23;"/><path id="path4634" d="M26.35,49.687c0,0 0.851,-0.634 1.274,-0.493c0.564,-0.027 0.589,0.529 0.589,0.529l-1.2,0.035l-0.663,-0.071Z" style="fill:#296727;"/><path id="path4636" d="M29.22,49.651c0,0 0.725,-0.419 1.168,-0.468c0.405,-0.044 0.7,-0.032 0.7,-0.032l-0.983,0.49l-0.885,0.01Z" style="fill:#255d23;"/><path id="path4638" d="M29.991,49.661c0,0 0.666,-0.652 1.089,-0.511c0.564,-0.027 0.597,0.555 0.597,0.555l-1.022,0.026l-0.664,-0.07Z" style="fill:#296727;"/><path id="path4640" d="M32.146,49.642c0,0 0.725,-0.419 1.168,-0.467c0.405,-0.045 0.699,-0.033 0.699,-0.033l-0.983,0.49l-0.884,0.01Z" style="fill:#255d23;"/><path id="path4642" d="M32.917,49.652c0,0 0.851,-0.67 1.274,-0.529c0.564,-0.027 0.766,0.511 0.766,0.511l-1.377,0.088l-0.663,-0.07Z" style="fill:#296727;"/><path id="path4644" d="M35.222,49.633c0,0 0.725,-0.419 1.168,-0.467c0.405,-0.045 0.699,-0.033 0.699,-0.033l-0.983,0.491l-0.884,0.009Z" style="fill:#255d23;"/><path id="path4646" d="M35.993,49.643c0,0 0.542,-0.643 0.965,-0.502c0.564,-0.027 0.88,0.485 0.88,0.485l-1.182,0.088l-0.663,-0.071Z" style="fill:#296727;"/><path id="path4648" d="M38.713,49.633c0,0 0.725,-0.419 1.168,-0.467c0.405,-0.045 0.699,-0.033 0.699,-0.033l-0.983,0.491l-0.884,0.009Z" style="fill:#255d23;"/><path id="path4650" d="M39.484,49.643c0,0 0.542,-0.643 0.965,-0.502c0.564,-0.027 1.207,0.476 1.207,0.476l-1.508,0.097l-0.664,-0.071Z" style="fill:#296727;"/></g><path id="path4652" d="M116.016,101.44c0.668,-0.785 0.727,-1.104 0.727,-1.104l-0.378,0.174l0.494,-1.104l-0.988,0.668l0.494,-1.539l-1.075,0.813l0.494,-1.423c0,0 -0.494,0.261 -0.784,0.552c-0.291,0.29 -0.669,0.639 -0.669,0.639c0,0 0.029,-0.668 0.146,-0.93c0.116,-0.261 0.348,-0.9 0.348,-0.9c0,0 -0.784,0.464 -1.017,0.784c-0.232,0.319 -0.697,0.871 -0.697,0.871c0,0 -0.145,-0.755 -0.145,-1.103c0,-0.349 0.116,-0.988 0.116,-0.988c0,0 -0.668,0.813 -0.9,1.249c-0.233,0.436 -0.407,0.901 -0.407,0.901c0,0 -0.262,-0.436 -0.32,-0.785c-0.058,-0.348 -0.116,-1.278 -0.116,-1.278c0,0 -0.494,0.61 -0.61,1.046c-0.116,0.436 -0.319,1.075 -0.319,1.075l-1.046,-1.104l0.319,1.83l-1.075,-1.191c0,0 0,0.494 0.117,0.929c0.116,0.436 0.435,0.843 0.435,0.843l-0.813,-0.232c0,0 0.232,0.726 0.523,0.958c0.29,0.233 0.378,0.291 0.378,0.291l6.768,0.058Z" style="fill:#44693a;"/><path id="path4654" d="M128.39,93.388c-0.668,-0.784 -0.727,-1.104 -0.727,-1.104l0.378,0.174l-0.494,-1.103l0.988,0.668l-0.494,-1.54l1.075,0.813l-0.494,-1.423c0,0 0.494,0.261 0.784,0.552c0.291,0.29 0.669,0.639 0.669,0.639c0,0 -0.029,-0.668 -0.146,-0.93c-0.116,-0.261 -0.348,-0.9 -0.348,-0.9c0,0 0.784,0.465 1.017,0.784c0.232,0.32 0.697,0.872 0.697,0.872c0,0 0.145,-0.756 0.145,-1.104c0,-0.349 -0.116,-0.988 -0.116,-0.988c0,0 0.668,0.813 0.9,1.249c0.233,0.436 0.407,0.901 0.407,0.901c0,0 0.262,-0.436 0.32,-0.785c0.058,-0.348 0.116,-1.278 0.116,-1.278c0,0 0.494,0.61 0.61,1.046c0.116,0.436 0.319,1.075 0.319,1.075l1.046,-1.104l-0.319,1.83l1.075,-1.191c0,0 0,0.494 -0.117,0.93c-0.116,0.435 -0.435,0.842 -0.435,0.842l0.813,-0.232c0,0 -0.232,0.726 -0.523,0.958c-0.29,0.233 -0.377,0.291 -0.377,0.291l-6.769,0.058Z" style="fill:#44693a;"/><path id="path4656" d="M117.125,77.365c-0.407,-0.478 -0.443,-0.672 -0.443,-0.672l0.23,0.106l-0.3,-0.672l0.601,0.407l-0.301,-0.938l0.655,0.495l-0.301,-0.867c0,0 0.301,0.16 0.478,0.337c0.177,0.176 0.407,0.389 0.407,0.389c0,0 -0.018,-0.407 -0.089,-0.566c-0.07,-0.16 -0.212,-0.549 -0.212,-0.549c0,0 0.478,0.283 0.619,0.478c0.142,0.194 0.425,0.531 0.425,0.531c0,0 0.088,-0.46 0.088,-0.673c0,-0.212 -0.07,-0.601 -0.07,-0.601c0,0 0.406,0.495 0.548,0.761c0.141,0.265 0.248,0.548 0.248,0.548c0,0 0.159,-0.265 0.194,-0.478c0.036,-0.212 0.071,-0.778 0.071,-0.778c0,0 0.301,0.371 0.372,0.637c0.07,0.265 0.194,0.654 0.194,0.654l0.637,-0.672l-0.195,1.115l0.655,-0.726c0,0 0,0.301 -0.071,0.566c-0.071,0.266 -0.265,0.513 -0.265,0.513l0.495,-0.141c0,0 -0.141,0.442 -0.318,0.584c-0.177,0.141 -0.23,0.177 -0.23,0.177l-4.122,0.035Z" style="fill:#44693a;"/><path id="path4658" d="M115.054,73.752c0.407,-0.478 0.442,-0.673 0.442,-0.673l-0.23,0.106l0.301,-0.672l-0.602,0.407l0.301,-0.938l-0.655,0.496l0.301,-0.867c0,0 -0.301,0.159 -0.478,0.336c-0.176,0.177 -0.406,0.389 -0.406,0.389c0,0 0.017,-0.407 0.088,-0.566c0.071,-0.159 0.212,-0.548 0.212,-0.548c0,0 -0.477,0.283 -0.619,0.477c-0.141,0.195 -0.425,0.531 -0.425,0.531c0,0 -0.088,-0.46 -0.088,-0.672c0,-0.212 0.071,-0.602 0.071,-0.602c0,0 -0.407,0.496 -0.549,0.761c-0.141,0.265 -0.247,0.548 -0.247,0.548c0,0 -0.16,-0.265 -0.195,-0.477c-0.035,-0.213 -0.071,-0.779 -0.071,-0.779c0,0 -0.3,0.372 -0.371,0.637c-0.071,0.266 -0.195,0.655 -0.195,0.655l-0.637,-0.672l0.195,1.114l-0.655,-0.725c0,0 0,0.301 0.071,0.566c0.071,0.265 0.265,0.513 0.265,0.513l-0.495,-0.142c0,0 0.142,0.443 0.319,0.584c0.176,0.142 0.23,0.177 0.23,0.177l4.122,0.036Z" style="fill:#44693a;"/><path id="path4660" d="M117.872,58.252c0.296,-0.348 0.321,-0.49 0.321,-0.49l-0.167,0.078l0.219,-0.49l-0.438,0.296l0.219,-0.682l-0.476,0.36l0.218,-0.631c0,0 -0.218,0.116 -0.347,0.245c-0.129,0.129 -0.296,0.283 -0.296,0.283c0,0 0.013,-0.296 0.064,-0.412c0.052,-0.116 0.155,-0.399 0.155,-0.399c0,0 -0.348,0.206 -0.451,0.348c-0.103,0.142 -0.309,0.386 -0.309,0.386c0,0 -0.065,-0.335 -0.065,-0.489c0,-0.155 0.052,-0.438 0.052,-0.438c0,0 -0.296,0.361 -0.399,0.554c-0.103,0.193 -0.18,0.399 -0.18,0.399c0,0 -0.116,-0.193 -0.142,-0.348c-0.026,-0.154 -0.052,-0.566 -0.052,-0.566c0,0 -0.219,0.27 -0.27,0.463c-0.052,0.193 -0.142,0.477 -0.142,0.477l-0.463,-0.49l0.141,0.812l-0.476,-0.528c0,0 0,0.219 0.051,0.412c0.052,0.193 0.194,0.373 0.194,0.373l-0.361,-0.103c0,0 0.103,0.322 0.232,0.425c0.129,0.103 0.167,0.129 0.167,0.129l3.001,0.026Z" style="fill:#44693a;"/><path id="path4662" d="M135.226,56.492c0.296,-0.347 0.322,-0.489 0.322,-0.489l-0.168,0.077l0.219,-0.489l-0.438,0.296l0.219,-0.682l-0.476,0.36l0.219,-0.631c0,0 -0.219,0.116 -0.348,0.245c-0.129,0.129 -0.296,0.283 -0.296,0.283c0,0 0.013,-0.296 0.064,-0.412c0.052,-0.116 0.155,-0.399 0.155,-0.399c0,0 -0.348,0.206 -0.451,0.348c-0.103,0.141 -0.309,0.386 -0.309,0.386c0,0 -0.064,-0.335 -0.064,-0.489c0,-0.155 0.051,-0.438 0.051,-0.438c0,0 -0.296,0.36 -0.399,0.554c-0.103,0.193 -0.18,0.399 -0.18,0.399c0,0 -0.116,-0.193 -0.142,-0.348c-0.026,-0.154 -0.051,-0.567 -0.051,-0.567c0,0 -0.219,0.271 -0.271,0.464c-0.051,0.193 -0.141,0.476 -0.141,0.476l-0.464,-0.489l0.142,0.811l-0.477,-0.528c0,0 0,0.219 0.052,0.413c0.051,0.193 0.193,0.373 0.193,0.373l-0.361,-0.103c0,0 0.103,0.322 0.232,0.425c0.129,0.103 0.168,0.129 0.168,0.129l3,0.025Z" style="fill:#44693a;"/><path id="path4664" d="M124.45,59.821c-0.296,-0.348 -0.322,-0.49 -0.322,-0.49l0.167,0.078l-0.219,-0.49l0.438,0.296l-0.219,-0.682l0.477,0.36l-0.219,-0.63c0,0 0.219,0.115 0.347,0.244c0.129,0.129 0.297,0.283 0.297,0.283c0,0 -0.013,-0.296 -0.065,-0.412c-0.051,-0.115 -0.154,-0.399 -0.154,-0.399c0,0 0.347,0.206 0.45,0.348c0.103,0.142 0.309,0.386 0.309,0.386c0,0 0.065,-0.335 0.065,-0.489c0,-0.155 -0.052,-0.438 -0.052,-0.438c0,0 0.296,0.361 0.4,0.554c0.103,0.193 0.18,0.399 0.18,0.399c0,0 0.116,-0.193 0.141,-0.348c0.026,-0.154 0.052,-0.566 0.052,-0.566c0,0 0.219,0.27 0.27,0.463c0.052,0.193 0.142,0.477 0.142,0.477l0.464,-0.49l-0.142,0.812l0.476,-0.528c0,0 0,0.219 -0.051,0.412c-0.052,0.193 -0.193,0.373 -0.193,0.373l0.36,-0.103c0,0 -0.103,0.322 -0.232,0.425c-0.128,0.103 -0.167,0.129 -0.167,0.129l-3,0.026Z" style="fill:#44693a;"/></g><path id="path4575" d="M94.41,84.904c-1.412,-0.083 -2.615,-0.226 -3.737,-0.442c-0.304,-0.059 -0.781,-0.151 -1.059,-0.204c-2.569,-0.494 -5.789,-1.669 -8.664,-3.162c-8.053,-4.185 -14.17,-11.399 -16.555,-19.527c-0.323,-1.101 -0.64,-2.368 -0.728,-2.915c-0.031,-0.187 -0.116,-0.438 -0.189,-0.559c-0.132,-0.218 -0.158,-0.221 -2.315,-0.26l-2.181,-0.039l-0.317,-0.329c-0.45,-0.467 -0.491,-0.752 -0.18,-1.249c0.141,-0.224 2.393,-2.487 5.006,-5.029c5.213,-5.074 5.025,-4.925 5.952,-4.691c0.41,0.104 0.748,0.434 5.067,4.945c2.545,2.658 4.693,4.96 4.772,5.115c0.121,0.234 0.124,0.349 0.023,0.687c-0.067,0.223 -0.23,0.519 -0.363,0.657l-0.241,0.251l-2.537,-0.046c-1.844,-0.033 -2.569,-0.015 -2.655,0.068c-0.191,0.185 -0.145,0.553 0.187,1.482c2.179,6.093 6.688,11.109 12.457,13.855c3.427,1.632 6.275,2.296 10.16,2.372c2.266,0.045 3.228,-0.041 5.614,-0.5c0.739,-0.142 2.386,-0.633 3.377,-1.008c2.154,-0.813 4.264,-1.977 6.222,-3.434c1.087,-0.809 3.214,-2.863 4.127,-3.985c0.629,-0.773 0.752,-0.88 0.951,-0.826c0.328,0.088 8.186,3.358 8.263,3.438c0.054,0.056 -0.828,1.326 -1.728,2.488c-5.238,6.761 -12.955,11.301 -21.331,12.548c-2.553,0.38 -4.617,0.464 -7.398,0.299l0,0Zm29.221,-26.077c-0.28,-0.16 -9.044,-9.366 -9.38,-9.853c-0.336,-0.487 -0.291,-0.841 0.164,-1.29l0.381,-0.376l2.875,0.052c3.442,0.062 3.206,0.168 2.867,-1.282c-1.083,-4.634 -3.249,-8.517 -6.631,-11.889c-3.74,-3.728 -8.458,-6.063 -13.864,-6.862c-1.108,-0.164 -4.711,-0.231 -5.765,-0.108c-2.286,0.268 -4.675,0.86 -6.632,1.645c-4.53,1.817 -8.386,4.95 -11.221,9.118l-0.661,0.973l-0.357,-0.133c-0.196,-0.074 -1.112,-0.441 -2.035,-0.816c-0.923,-0.375 -2.434,-0.989 -3.357,-1.364c-0.924,-0.375 -1.886,-0.764 -2.138,-0.863c-0.252,-0.1 -0.476,-0.211 -0.498,-0.247c-0.056,-0.095 1.083,-1.99 1.887,-3.14c2.306,-3.294 5.645,-6.558 8.957,-8.757c3.848,-2.554 8.075,-4.258 12.557,-5.063c0.918,-0.164 1.47,-0.238 3.302,-0.439c1.034,-0.114 5.34,-0.031 6.56,0.126c7.053,0.906 13.139,3.645 18.308,8.241c5.95,5.29 9.766,12.418 10.933,20.426c0.096,0.656 0.097,0.657 2.495,0.7c2.404,0.044 2.31,0.016 2.608,0.767c0.296,0.748 0.418,0.604 -4.762,5.659c-2.632,2.568 -4.908,4.729 -5.057,4.803c-0.342,0.169 -1.219,0.153 -1.536,-0.028l0,0Z" style="fill:#fff;fill-opacity:0.784314;fill-rule:nonzero;"/><path id="path4605" d="M45.835,60.502c-0.457,-0.027 -0.847,-0.073 -1.21,-0.144c-0.099,-0.019 -0.254,-0.048 -0.344,-0.066c-0.832,-0.16 -1.876,-0.54 -2.807,-1.024c-2.61,-1.356 -4.592,-3.694 -5.365,-6.328c-0.104,-0.356 -0.207,-0.767 -0.236,-0.944c-0.009,-0.061 -0.037,-0.142 -0.061,-0.182c-0.043,-0.07 -0.051,-0.071 -0.75,-0.084l-0.707,-0.012l-0.102,-0.107c-0.146,-0.151 -0.16,-0.244 -0.059,-0.405c0.046,-0.072 0.776,-0.806 1.622,-1.629c1.69,-1.644 1.629,-1.596 1.929,-1.52c0.133,0.033 0.243,0.14 1.642,1.602c0.825,0.862 1.521,1.607 1.546,1.657c0.039,0.076 0.041,0.114 0.008,0.223c-0.022,0.073 -0.075,0.168 -0.118,0.213l-0.078,0.081l-0.822,-0.014c-0.598,-0.011 -0.833,-0.005 -0.86,0.022c-0.062,0.059 -0.047,0.179 0.06,0.48c0.706,1.974 2.167,3.599 4.037,4.489c1.11,0.529 2.033,0.744 3.292,0.769c0.734,0.014 1.046,-0.013 1.819,-0.162c0.24,-0.046 0.773,-0.205 1.095,-0.327c0.698,-0.263 1.381,-0.64 2.016,-1.112c0.352,-0.263 1.041,-0.928 1.337,-1.292c0.204,-0.25 0.244,-0.285 0.308,-0.268c0.106,0.029 2.653,1.089 2.678,1.114c0.017,0.019 -0.269,0.43 -0.56,0.807c-1.698,2.191 -4.198,3.662 -6.912,4.066c-0.827,0.123 -1.497,0.15 -2.398,0.097l0,0Zm9.469,-8.45c-0.09,-0.052 -2.931,-3.035 -3.039,-3.193c-0.109,-0.158 -0.095,-0.272 0.053,-0.418l0.123,-0.122l0.932,0.017c1.115,0.02 1.039,0.054 0.929,-0.415c-0.351,-1.502 -1.053,-2.76 -2.149,-3.853c-1.212,-1.208 -2.741,-1.965 -4.492,-2.223c-0.359,-0.054 -1.527,-0.075 -1.868,-0.035c-0.741,0.086 -1.515,0.278 -2.149,0.533c-1.468,0.588 -2.718,1.604 -3.636,2.954l-0.215,0.316l-0.115,-0.044c-0.064,-0.023 -0.361,-0.142 -0.66,-0.264c-0.299,-0.122 -0.788,-0.32 -1.088,-0.442c-0.299,-0.122 -0.611,-0.247 -0.692,-0.28c-0.082,-0.032 -0.155,-0.068 -0.162,-0.08c-0.018,-0.031 0.351,-0.645 0.612,-1.017c0.747,-1.067 1.829,-2.125 2.902,-2.838c1.247,-0.827 2.617,-1.38 4.069,-1.64c0.298,-0.054 0.477,-0.077 1.07,-0.143c0.335,-0.036 1.73,-0.01 2.126,0.041c2.285,0.294 4.257,1.181 5.932,2.671c1.928,1.714 3.165,4.024 3.543,6.618c0.031,0.213 0.032,0.213 0.809,0.227c0.778,0.014 0.748,0.005 0.845,0.249c0.096,0.242 0.135,0.196 -1.543,1.833c-0.853,0.833 -1.591,1.533 -1.639,1.557c-0.111,0.055 -0.395,0.049 -0.498,-0.009l0,0Z" style="fill:#fff;fill-opacity:0.784314;fill-rule:nonzero;"/><path id="path4609" d="M148.235,60.502c-0.457,-0.027 -0.847,-0.073 -1.21,-0.144c-0.099,-0.019 -0.254,-0.048 -0.344,-0.066c-0.832,-0.16 -1.876,-0.54 -2.807,-1.024c-2.61,-1.356 -4.592,-3.694 -5.365,-6.328c-0.104,-0.356 -0.207,-0.767 -0.236,-0.944c-0.009,-0.061 -0.037,-0.142 -0.061,-0.182c-0.043,-0.07 -0.051,-0.071 -0.75,-0.084l-0.707,-0.012l-0.102,-0.107c-0.146,-0.151 -0.16,-0.244 -0.059,-0.405c0.046,-0.072 0.776,-0.806 1.622,-1.629c1.69,-1.644 1.629,-1.596 1.929,-1.52c0.133,0.033 0.243,0.14 1.642,1.602c0.825,0.862 1.521,1.607 1.546,1.657c0.039,0.076 0.041,0.114 0.008,0.223c-0.022,0.073 -0.075,0.168 -0.118,0.213l-0.078,0.081l-0.822,-0.014c-0.598,-0.011 -0.833,-0.005 -0.86,0.022c-0.062,0.059 -0.047,0.179 0.06,0.48c0.706,1.974 2.167,3.599 4.037,4.489c1.11,0.529 2.033,0.744 3.292,0.769c0.734,0.014 1.046,-0.013 1.819,-0.162c0.24,-0.046 0.773,-0.205 1.095,-0.327c0.698,-0.263 1.381,-0.64 2.016,-1.112c0.352,-0.263 1.041,-0.928 1.337,-1.292c0.204,-0.25 0.244,-0.285 0.308,-0.268c0.106,0.029 2.653,1.089 2.678,1.114c0.017,0.019 -0.269,0.43 -0.56,0.807c-1.698,2.191 -4.198,3.662 -6.912,4.066c-0.827,0.123 -1.497,0.15 -2.398,0.097l0,0Zm9.469,-8.45c-0.09,-0.052 -2.931,-3.035 -3.039,-3.193c-0.109,-0.158 -0.095,-0.272 0.053,-0.418l0.123,-0.122l0.932,0.017c1.115,0.02 1.039,0.054 0.929,-0.415c-0.351,-1.502 -1.053,-2.76 -2.149,-3.853c-1.212,-1.208 -2.741,-1.965 -4.492,-2.223c-0.359,-0.054 -1.527,-0.075 -1.868,-0.035c-0.741,0.086 -1.515,0.278 -2.149,0.533c-1.468,0.588 -2.718,1.604 -3.636,2.954l-0.215,0.316l-0.115,-0.044c-0.064,-0.023 -0.361,-0.142 -0.66,-0.264c-0.299,-0.122 -0.788,-0.32 -1.088,-0.442c-0.299,-0.122 -0.611,-0.247 -0.692,-0.28c-0.082,-0.032 -0.155,-0.068 -0.162,-0.08c-0.018,-0.031 0.351,-0.645 0.612,-1.017c0.747,-1.067 1.829,-2.125 2.902,-2.838c1.247,-0.827 2.617,-1.38 4.069,-1.64c0.298,-0.054 0.477,-0.077 1.07,-0.143c0.335,-0.036 1.73,-0.01 2.126,0.041c2.285,0.294 4.257,1.181 5.932,2.671c1.928,1.714 3.165,4.024 3.543,6.618c0.031,0.213 0.032,0.213 0.809,0.227c0.778,0.014 0.748,0.005 0.845,0.249c0.096,0.242 0.135,0.196 -1.543,1.833c-0.853,0.833 -1.591,1.533 -1.639,1.557c-0.111,0.055 -0.395,0.049 -0.498,-0.009l0,0Z" style="fill:#fff;fill-opacity:0.780392;fill-rule:nonzero;"/></g></g></svg>